<svg width="1440" height="980" viewBox="0 0 1440 980" fill="none" xmlns="http://www.w3.org/2000/svg">
<mask id="mask0_5459_4019" style="mask-type:luminance" maskUnits="userSpaceOnUse" x="0" y="0" width="1440" height="980">
<path d="M1440 0H0V980H1440V0Z" fill="white"/>
</mask>
<g mask="url(#mask0_5459_4019)">
<path d="M85.9617 -17.1981C83.1872 -18.0093 82.1951 -19.8714 79.4206 -20.701C72.457 -22.7658 63.3253 -22.4524 56.4719 -19.9082C46.0173 -15.4098 39.0352 -6.8555 36.1689 2.91564L29.9954 23.8775C25.0712 40.6359 32.1083 57.9106 44.8046 66.2437C121.202 110.103 156.884 199.666 131.822 284.859C129.415 293.063 126.402 301.101 122.893 308.881C131.381 298.483 146.117 292.694 161 296.16L182.221 301.101C192.106 303.406 201.018 309.895 206.126 320.09C209.065 326.82 209.911 335.927 208.275 343.025C207.614 345.846 205.832 346.97 205.189 349.791C186.098 390.664 157.913 425.25 123.977 451.909C128.368 450.526 132.521 448.424 136.03 445.53C176.617 410.501 207.099 363.341 222.294 311.647C259.685 184.511 202.102 46.0009 85.98 -17.2166L85.9617 -17.1981Z" fill="#FF5D81" fill-opacity="0.2"/>
<path d="M106.411 453.439C96.251 451.982 86.3292 444.479 81.4234 435.427L70.6565 415.589C61.4513 400.693 64.9422 383.511 77.4547 372.025C96.2694 354.658 112.052 332.94 122.893 308.918C121.717 310.375 120.651 311.905 119.714 313.527C80.5783 392.637 -6.4212 433.638 -92.6674 413.561C-126.585 405.652 -158.207 387.843 -182.57 364.226C-184.793 362.051 -187.2 360.207 -189.718 358.677C-177.15 372.006 -162.469 383.695 -145.86 393.208C-133.163 401.541 -126.108 418.816 -131.014 435.574L-137.169 456.536C-140.035 466.307 -147.017 474.862 -157.453 479.36C-164.307 481.904 -173.438 482.236 -180.402 480.171C-183.177 479.36 -184.187 477.498 -186.943 476.687C-203.094 467.911 -218.105 457.679 -231.885 446.23C-198.004 474.917 -157.233 495.639 -113.981 505.724C-29.1128 525.487 58.2358 503.585 123.958 451.945C118.263 453.734 112.144 454.287 106.411 453.457V453.439Z" fill="#DF1C4D" fill-opacity="0.2"/>
<path d="M205.169 349.809C205.831 346.989 207.613 345.864 208.256 343.043C209.891 335.945 209.046 326.82 206.106 320.109C201.017 309.914 192.087 303.424 182.202 301.12L160.98 296.179C146.098 292.713 131.362 298.52 122.873 308.9C112.033 332.922 96.2504 354.64 77.4357 372.007C64.9416 383.492 61.4322 400.675 70.6374 415.571L81.4043 435.408C86.3102 444.46 96.2319 451.982 106.392 453.42C112.125 454.232 118.243 453.697 123.939 451.909C157.875 425.25 186.061 390.664 205.151 349.791L205.169 349.809Z" fill="#FF134F" fill-opacity="0.2"/>
<path d="M1664.01 819.432C1668.12 816.507 1671.74 817.159 1675.87 814.254C1686.22 806.944 1695.64 794.095 1699.56 781.959C1704.68 762.779 1700.49 743.976 1690.19 729.498L1668.13 698.404C1650.47 673.56 1619.2 664.546 1594.08 672.94C1451.5 730.238 1290.23 682.402 1200.53 556.069C1191.88 543.912 1184.12 531.104 1177.24 517.894C1182.33 540.752 1174.36 567.191 1153.54 583.836L1123.86 607.573C1110.04 618.627 1091.52 623.826 1072.04 619.814C1059.64 616.575 1046.25 607.898 1038.28 597.992C1035.13 594.04 1035.51 590.384 1032.34 586.457C996.931 516.166 979.954 440.204 980.05 364.925C977.205 372.434 975.603 380.392 975.782 388.326C979.978 481.756 1011.71 574.442 1066.15 651.083C1200.04 839.599 1452.03 910.29 1664.01 819.477V819.432Z" fill="#FF5D81" fill-opacity="0.12"/>
<path d="M996.913 339.209C1009.88 326.862 1030.87 321.373 1048.57 324.427L1087.38 331.099C1117.73 334.575 1137.52 357.913 1139.75 387.458C1143.24 431.987 1155.97 477.062 1177.19 517.854C1176.47 514.671 1175.52 511.558 1174.31 508.523C1108.13 369.478 1145.85 206.016 1266.46 109.544C1313.91 71.6191 1372.45 47.5318 1431.12 39.6585C1436.5 38.9621 1441.63 37.6556 1446.44 35.8597C1414.61 38.6824 1382.74 46.1717 1351.77 58.6532C1326.65 67.0475 1295.36 58.0585 1277.68 33.2405L1255.6 2.17162C1245.3 -12.3069 1241.11 -31.1096 1246.21 -50.2646C1250.12 -62.4008 1259.53 -75.2693 1269.87 -82.5793C1273.98 -85.5042 1277.62 -84.8778 1281.71 -87.7774C1311.17 -100.426 1341.4 -109.941 1371.96 -116.456C1296.07 -101.019 1223.66 -67.5424 1163.16 -19.18C1044.46 75.7426 980.189 219.058 980.019 364.86C983.717 355.126 989.563 346.146 996.888 339.189L996.913 339.209Z" fill="#DF1C4D" fill-opacity="0.12"/>
<path d="M1032.34 586.412C1035.49 590.364 1035.11 594.02 1038.28 597.947C1046.24 607.853 1059.66 616.55 1072.03 619.769C1091.5 623.807 1110.03 618.581 1123.86 607.528L1153.54 583.791C1174.35 567.146 1182.3 540.687 1177.24 517.849C1156.02 477.057 1143.29 431.982 1139.8 387.452C1137.54 357.933 1117.78 334.57 1087.43 331.094L1048.62 324.422C1030.92 321.367 1009.9 326.837 996.957 339.204C989.657 346.181 983.786 355.14 980.088 364.874C979.993 440.154 996.97 516.116 1032.38 586.407L1032.34 586.412Z" fill="#FF134F" fill-opacity="0.12"/>
<path d="M1269.87 -82.5792C1259.53 -75.2692 1250.12 -62.4008 1246.21 -50.2646C1241.14 -31.0897 1245.33 -12.2869 1255.6 2.17164L1277.68 33.2406C1295.34 58.0837 1326.65 67.0476 1351.77 58.6533C1382.74 46.1718 1414.61 38.6825 1446.44 35.8598C1467.88 27.7816 1482.88 9.2083 1484.16 -15.6495L1488.41 -54.7284C1490.33 -72.5525 1483.55 -93.2005 1470.43 -105.453C1457.29 -117.68 1438.32 -125.249 1420.08 -123.83C1403.95 -122.222 1387.88 -119.707 1371.98 -116.481C1341.42 -109.966 1311.19 -100.451 1281.73 -87.8026C1277.62 -84.8777 1273.98 -85.5041 1269.89 -82.6044L1269.87 -82.5792Z" fill="#C92876" fill-opacity="0.12"/>
<path d="M586.647 209.21C587.283 206.977 588.774 206.169 589.424 203.936C591.044 198.331 590.741 190.998 588.658 185.507C584.984 177.135 578.07 171.575 570.202 169.328L553.322 164.488C539.827 160.627 525.986 166.377 519.361 176.623C484.548 238.237 412.779 267.406 344.177 247.757C337.57 245.87 331.094 243.495 324.822 240.72C333.226 247.48 337.961 259.283 335.26 271.258L331.41 288.332C329.614 296.285 324.449 303.48 316.286 307.64C310.895 310.04 303.581 310.77 297.868 309.497C295.597 308.981 294.684 307.556 292.413 307.056C259.46 291.953 231.508 269.509 209.893 242.4C211.029 245.92 212.742 249.243 215.088 252.046C243.466 284.449 281.535 308.667 323.162 320.58C425.538 349.894 536.518 302.857 586.662 209.225L586.647 209.21Z" fill="#FF5D81" fill-opacity="0.12"/>
<path d="M208.564 228.3C209.677 220.13 215.651 212.118 222.897 208.126L238.777 199.365C250.696 191.887 264.523 194.594 273.824 204.579C287.886 219.594 305.427 232.149 324.793 240.72C323.616 239.784 322.38 238.937 321.071 238.193C257.278 207.205 223.838 137.555 239.483 68.1642C245.647 40.875 259.779 15.3747 278.62 -4.32897C280.355 -6.12707 281.823 -8.07089 283.039 -10.1014C272.398 0.0688553 263.089 11.9272 255.538 25.3228C248.914 35.5682 235.072 41.3333 221.577 37.4875L204.698 32.6619C196.829 30.4149 189.916 24.855 186.242 16.4977C184.159 11.007 183.84 3.67388 185.46 -1.93132C186.096 -4.16447 187.587 -4.98673 188.223 -7.20511C195.184 -20.2276 203.321 -32.3434 212.443 -43.4771C189.583 -16.0999 173.161 16.7668 165.302 51.5658C149.901 119.848 167.995 189.886 209.864 242.386C208.394 237.821 207.915 232.909 208.55 228.3H208.564Z" fill="#DF1C4D" fill-opacity="0.12"/>
<path d="M292.398 307.041C294.669 307.556 295.583 308.982 297.853 309.482C303.566 310.755 310.895 310.025 316.271 307.626C324.434 303.48 329.599 296.27 331.395 288.317L335.245 271.243C337.946 259.269 333.196 247.465 324.807 240.706C305.442 232.134 287.901 219.579 273.838 204.565C264.538 194.594 250.71 191.872 238.792 199.35L222.912 208.111C215.666 212.103 209.677 220.115 208.579 228.285C207.96 232.894 208.424 237.806 209.893 242.371C231.508 269.479 259.46 291.923 292.413 307.026L292.398 307.041Z" fill="#FF134F" fill-opacity="0.12"/>
<path d="M185.46 -1.93121C183.84 3.674 184.159 11.0072 186.242 16.4978C189.931 24.8551 196.844 30.415 204.698 32.6621L221.577 37.4877C235.072 41.3481 248.914 35.5683 255.538 25.3229C263.089 11.9273 272.398 0.0689697 283.039 -10.1013C288.427 -19.172 288.483 -30.1681 281.795 -39.4785L272.086 -54.7598C267.652 -61.7245 259.272 -67.2003 251.03 -67.8359C242.788 -68.4568 233.784 -65.722 227.632 -59.9668C222.291 -54.7486 217.233 -49.2225 212.443 -43.4917C203.321 -32.3579 195.184 -20.2422 188.223 -7.21975C187.587 -4.9866 186.096 -4.16434 185.46 -1.94595V-1.93121Z" fill="#C92876" fill-opacity="0.12"/>
<path d="M1425.76 -65.3016C1424 -68.4632 1424.76 -70.9952 1423.01 -74.1732C1418.62 -82.1343 1410.21 -89.8807 1401.87 -93.636C1388.6 -98.8144 1374.85 -97.3249 1363.71 -91.1334L1339.77 -77.8724C1320.65 -67.2606 1311.73 -45.6759 1315.72 -27.0885C1345.23 79.1566 1298.28 190.36 1201.04 244.28C1191.68 249.478 1181.93 253.996 1171.96 257.847C1188.67 256.038 1206.89 263.829 1217.1 279.999L1231.67 303.055C1238.45 313.797 1240.69 327.415 1236.27 340.993C1232.98 349.575 1225.72 358.437 1218.02 363.328C1214.95 365.261 1212.38 364.697 1209.32 366.646C1156.37 386.305 1100.85 392.366 1047.17 386.305C1052.3 388.931 1057.84 390.707 1063.52 391.211C1130.48 395.657 1199.11 380.406 1258.11 347.676C1403.21 267.201 1473.69 93.1135 1425.8 -65.3019L1425.76 -65.3016Z" fill="#FF5D81" fill-opacity="0.08"/>
<path d="M1030.17 372.231C1022.4 362.002 1020.15 346.593 1023.74 334.211L1031.59 307.064C1036.48 285.694 1054.7 273.444 1075.95 274.202C1107.99 275.257 1141.15 269.767 1171.93 257.88C1169.6 258.145 1167.3 258.572 1165.04 259.195C1060.61 295.322 947.035 255.411 887.834 161.711C864.565 124.85 852.046 81.1825 851.102 38.7159C851.033 34.8226 850.51 31.0636 849.612 27.4871C849.091 50.4154 851.895 73.7381 858.332 96.817C862.318 115.404 853.416 137.005 834.31 147.633L810.394 160.91C799.248 167.102 785.505 168.591 772.25 163.429C763.906 159.674 755.477 151.944 751.087 143.983C749.328 140.821 750.065 138.273 748.322 135.127C741.647 113.11 737.267 90.7948 735.054 68.4771C740.022 123.828 758.133 178.135 787.807 225.139C846.055 317.348 943.149 374.593 1047.12 386.321C1040.47 382.909 1034.53 378.025 1030.15 372.247L1030.17 372.231Z" fill="#DF1C4D" fill-opacity="0.08"/>
<path d="M1209.29 366.647C1212.36 364.714 1214.94 365.277 1217.99 363.328C1225.69 358.438 1232.96 349.559 1236.24 340.993C1240.67 327.431 1238.42 313.798 1231.64 303.056L1217.07 279.999C1206.86 263.829 1188.62 256.055 1171.93 257.848C1141.15 269.735 1107.99 275.224 1075.95 274.17C1054.72 273.428 1036.48 285.661 1031.59 307.032L1023.74 334.179C1020.15 346.56 1022.38 361.986 1030.17 372.198C1034.56 377.96 1040.49 382.861 1047.13 386.272C1100.82 392.333 1156.34 386.273 1209.29 366.614V366.647Z" fill="#FF134F" fill-opacity="0.08"/>
<path d="M751.087 143.983C755.477 151.944 763.906 159.674 772.25 163.429C785.521 168.575 799.264 167.085 810.394 160.91L834.31 147.633C853.433 137.021 862.318 115.404 858.332 96.8169C851.895 73.738 849.091 50.4153 849.612 27.487C845.557 11.5559 833.505 -0.622616 815.879 -3.51425L788.347 -9.65875C775.788 -12.4484 760.522 -9.25101 750.74 -0.871994C740.974 7.52317 734.065 20.4551 733.626 33.5745C733.488 45.2087 734.002 56.8697 735.038 68.4609C737.251 90.7786 741.63 113.094 748.306 135.111C750.065 138.273 749.328 140.821 751.071 143.966L751.087 143.983Z" fill="#C92876" fill-opacity="0.08"/>
<path d="M69.4289 661.722C67.6523 662.198 66.994 663.368 65.2171 663.856C60.7576 665.068 54.9537 664.735 50.6316 663.016C44.0474 660.001 39.7312 654.456 38.0507 648.196L34.4299 634.767C31.5425 624.031 36.2708 613.141 44.4683 608.024C93.7034 581.229 117.708 524.757 103.01 470.179C101.599 464.924 99.7996 459.765 97.681 454.763C102.929 461.503 112.217 465.402 121.735 463.414L135.305 460.579C141.627 459.257 147.389 455.258 150.787 448.845C152.756 444.605 153.426 438.822 152.49 434.282C152.11 432.477 150.993 431.735 150.625 429.931C139.079 403.643 121.656 381.223 100.459 363.764C103.232 364.708 105.843 366.106 108.033 367.999C133.338 390.882 152.038 421.336 160.949 454.454C182.875 535.901 144.226 623.201 69.4403 661.734L69.4289 661.722Z" fill="#FF5D81" fill-opacity="0.18"/>
<path d="M89.3083 362.534C82.8241 363.312 76.4035 367.942 73.1509 373.631L66.0127 386.097C59.94 395.442 61.9096 406.427 69.7008 413.919C81.4147 425.244 91.1368 439.295 97.6814 454.739C96.9547 453.795 96.2992 452.806 95.7268 451.76C71.9885 400.848 17.2491 373.487 -37.903 385.004C-59.5928 389.542 -79.9662 400.413 -95.8081 415.086C-97.254 416.438 -98.8119 417.576 -100.436 418.513C-92.2468 410.214 -82.7382 402.991 -72.0342 397.18C-63.8368 392.062 -59.0967 381.172 -61.9725 370.437L-65.5816 357.008C-67.2621 350.748 -71.5782 345.203 -78.1508 342.188C-82.4729 340.469 -88.2765 340.125 -92.736 341.337C-94.5126 341.813 -95.1826 342.983 -96.9475 343.459C-107.349 348.807 -117.047 355.099 -125.979 362.184C-104.009 344.424 -77.7729 331.832 -50.1143 326.046C4.15666 314.708 59.3971 329.921 100.447 363.74C96.8507 362.519 92.967 362.078 89.3086 362.522L89.3083 362.534Z" fill="#DF1C4D" fill-opacity="0.18"/>
<path d="M150.614 429.919C150.993 431.724 152.11 432.465 152.478 434.27C153.415 438.81 152.744 444.605 150.776 448.833C147.39 455.246 141.615 459.245 135.294 460.567L121.723 463.402C112.206 465.39 102.918 461.479 97.67 454.751C91.1254 439.306 81.4033 425.256 69.6894 413.93C61.9099 406.439 59.9285 395.453 66.0013 386.109L73.1395 373.642C76.3921 367.954 82.813 363.312 89.2969 362.545C92.9551 362.113 96.8391 362.542 100.436 363.763C121.633 381.223 139.056 403.643 150.602 429.931L150.614 429.919Z" fill="#FF134F" fill-opacity="0.18"/>
</g>
</svg>
