<?xml version="1.0" encoding="UTF-8"?>
<svg id="Vrstva_1" data-name="Vrstva 1" xmlns="http://www.w3.org/2000/svg" viewBox="0 0 2094.02 310.52">
  <defs>
    <style>
      .cls-1 {
        fill: none;
      }

      .cls-2 {
        fill: #ff5d81;
      }

      .cls-3 {
        fill: #164194;
      }

      .cls-4 {
        fill: #575756;
      }

      .cls-5 {
        fill: #fff;
      }

      .cls-6 {
        fill: #ffed00;
      }

      .cls-7 {
        fill: #e30613;
      }

      .cls-8 {
        fill: #008691;
      }

      .cls-9 {
        fill: #040305;
      }

      .cls-10 {
        fill: #004f9f;
      }
    </style>
  </defs>
  <g>
    <path class="cls-9" d="M1737.92,136.79c1.82-1.82,3.98-3.15,6.3-4.15,2.32-.83,4.81-1.33,7.13-1.33,2.99,0,5.81.66,8.46,1.99,2.65,1.33,4.98,3.15,6.8,5.47s2.99,5.14,3.15,8.46v1h-37.66c.33-1.49.66-2.99,1.16-4.15,1.33-2.99,2.82-5.47,4.64-7.3h.02,0ZM1778.56,155.2c1-.83,1.49-1.82,1.49-3.15,0-4.48-1-8.63-2.49-12.28-1.66-3.65-3.65-6.64-6.3-9.29-2.65-2.65-5.64-4.64-9.12-5.97s-6.97-1.99-10.62-1.99c-4.98,0-9.62,1.33-14.1,3.82-4.48,2.65-7.96,6.3-10.78,11.28s-4.15,10.78-4.15,17.75c0,6.3,1.33,11.78,3.98,16.42,2.65,4.81,6.3,8.46,11.11,11.28,4.81,2.65,10.45,4.15,16.92,4.15,4.31,0,8.29-1,12.11-2.82s6.8-3.98,9.12-6.47c1.33-1.16,1.99-2.32,1.99-3.65,0-1.16-.33-2.16-1.16-2.82-.83-.83-1.82-1.16-2.82-1.16s-2.16.33-3.15,1c-1,1.16-2.32,2.16-3.82,3.32-1.49,1-3.32,1.99-5.31,2.65-2.16.66-4.48,1-7.3,1-4.48,0-8.46-1-11.78-2.99s-5.97-4.81-7.8-8.29c-1.66-2.99-2.49-6.47-2.82-10.45h43.63c1.16,0,2.16-.5,3.15-1.33h.02Z"/>
    <path class="cls-9" d="M1843.59,154.87c0-4.64-1-8.63-2.82-12.11s-4.48-6.3-7.63-8.29-6.8-2.99-10.78-2.99-7.8,1-10.95,2.99c-3.15,1.99-5.81,4.81-7.8,8.29s-2.82,7.47-2.82,12.11,1,8.63,2.82,12.11c1.99,3.48,4.48,6.3,7.8,8.29,3.15,1.99,6.97,2.99,10.95,2.99s7.63-1,10.78-2.99c3.32-1.99,5.81-4.81,7.63-8.29,1.82-3.65,2.82-7.63,2.82-12.11h0ZM1853.21,154.87c0,6.3-1.33,11.78-4.15,16.59s-6.47,8.63-11.11,11.45-9.95,4.15-15.76,4.15-11.11-1.33-15.76-4.15-8.46-6.64-11.28-11.45-4.15-10.45-4.15-16.59,1.33-11.78,4.15-16.59,6.47-8.63,11.28-11.45c4.64-2.82,9.95-4.15,15.76-4.15s11.11,1.33,15.76,4.15c4.65,2.82,8.46,6.64,11.11,11.45,2.82,4.81,4.15,10.29,4.15,16.59h0Z"/>
    <path class="cls-9" d="M1863.99,176.11c-.66-1-1-2.16-.83-3.32,0-1.16.66-2.16,1.99-2.99.83-.5,1.82-.83,2.99-.66,1,0,1.99.66,2.99,1.49,2.16,2.65,4.81,4.81,7.63,6.3s6.47,2.32,10.62,2.32c1.82,0,3.65-.33,5.64-1,1.99-.5,3.65-1.49,4.98-2.99,1.33-1.33,1.99-3.32,1.99-5.64,0-2.16-.66-3.98-1.99-5.31s-3.15-2.32-5.31-3.15-4.48-1.66-6.97-2.16c-2.65-.66-5.31-1.49-7.8-2.32s-4.81-1.99-6.97-3.48c-1.99-1.33-3.65-3.15-4.98-5.31-1.16-2.16-1.82-4.81-1.82-7.8,0-3.65,1-6.64,2.99-9.29s4.64-4.64,7.8-6.14c3.32-1.49,6.97-2.16,10.95-2.16,2.16,0,4.64.33,6.97.83,2.49.5,4.81,1.33,7.13,2.65,2.32,1.16,4.31,2.99,6.14,5.14.66.83,1.16,1.82,1.16,2.99s-.5,2.32-1.49,3.32c-.83.66-1.82,1-2.99.83-1.16,0-1.99-.5-2.65-1.16-1.82-2.16-3.82-3.65-6.47-4.81-2.49-1-5.31-1.66-8.29-1.66-1.82,0-3.65.33-5.47.83-1.82.66-3.32,1.49-4.64,2.82-1.16,1.33-1.82,3.15-1.82,5.31s.83,3.98,2.16,5.31,3.15,2.49,5.47,3.32,4.81,1.66,7.63,2.49c2.49.66,4.98,1.33,7.3,2.16s4.48,1.99,6.47,3.32,3.48,3.15,4.48,5.14c1.16,2.16,1.66,4.81,1.66,7.96,0,3.65-1,6.8-3.15,9.46-2.16,2.65-4.81,4.64-8.13,6.14-3.32,1.33-6.97,2.16-10.95,2.16-4.31,0-8.79-.83-13.11-2.49-4.48-1.49-8.13-4.31-11.28-8.46h-.03Z"/>
    <path class="cls-9" d="M1951.75,122.52c4.15,0,7.8.5,11.11,1.33s5.81,2.16,7.8,3.65c1.99,1.49,2.82,3.15,2.82,5.14,0,1.16-.33,2.16-1,3.15-.66,1-1.66,1.49-2.99,1.49-1,0-1.82-.17-2.65-.66-.66-.5-1.33-1-1.99-1.49-.66-.66-1.49-1.16-2.49-1.66s-2.32-.83-4.15-1.33c-1.82-.33-3.65-.5-5.47-.5-4.31,0-8.29,1-11.61,3.15-3.32,2.16-5.97,4.81-7.8,8.46-1.99,3.48-2.82,7.47-2.82,11.94s1,8.46,2.82,11.94,4.31,6.3,7.63,8.46,7.13,3.15,11.45,3.15c2.82,0,4.98-.17,6.64-.66,1.66-.5,2.99-1,4.31-1.66,1.33-.83,2.49-1.66,3.15-2.32.83-.83,1.82-1.16,3.15-1.16s2.49.5,3.15,1.33c.83.83,1.16,1.99,1.16,3.15,0,1.49-1,3.15-2.99,4.64-1.99,1.66-4.64,2.99-8.13,3.98-3.48,1-7.3,1.66-11.45,1.66-6.14,0-11.45-1.49-15.93-4.31s-8.13-6.64-10.62-11.61-3.82-10.45-3.82-16.42,1.33-11.61,3.82-16.42c2.65-4.81,6.14-8.79,10.78-11.61,4.64-3.48,10.12-4.81,16.09-4.81h.03,0Z"/>
    <path class="cls-8" d="M1634.73,127.66c-5.31-3.32-11.28-5.14-17.58-5.14s-12.28,1.82-17.58,5.14c-1,.66-1.82,1.82-1.82,3.15-.17,1.33.33,2.65,1.16,3.48l1.82,1.82c.83.83,1.99,1.33,2.99,1.33.83,0,1.49-.17,2.16-.66,3.32-2.16,7.3-3.15,11.28-3.15s7.8,1.16,11.28,3.15c1.66,1,3.82.83,5.31-.66l1.82-1.82c1-1,1.33-2.16,1.16-3.48-.17-1.33-.83-2.49-1.99-3.15h-.01Z"/>
    <path class="cls-2" d="M1612.34,175.94c-9.79-2.32-16.59-10.95-16.59-21.07,0-3.98,1.16-7.96,3.15-11.28,1-1.66.83-3.65-.66-4.98l-1.82-1.82c-.83-.83-2.16-1.33-3.32-1.16s-2.32.83-2.99,1.82c-3.32,5.14-5.14,11.28-5.14,17.42,0,15.1,10.78,28.37,25.55,31.52.33,0,.5.17.83.17.83,0,1.82-.33,2.49-.83,1-.83,1.49-1.99,1.49-3.15v-2.49c0-1.99-1.33-3.65-2.99-4.15h0Z"/>
    <path class="cls-8" d="M1671.06,122.69c-17.75,0-32.35,14.43-32.35,32.35v.33c-.17,10.12-7.47,18.91-17.42,20.9-1.33.33-2.32,1.49-2.32,2.82v4.98c0,.83.33,1.66,1,2.16s1.49.83,2.32.66c15.59-2.49,27.04-15.93,27.04-31.85,0-11.94,9.62-21.57,21.57-21.57s21.57,9.62,21.57,21.57-9.62,21.57-21.57,21.57c-2.99,0-5.31,2.32-5.31,5.31s2.32,5.31,5.31,5.31c17.75,0,32.35-14.43,32.35-32.35.17-17.75-14.27-32.18-32.18-32.18h-.01,0Z"/>
    <polygon class="cls-9" points="1544.49 219.4 1545.98 219.4 1545.98 90.17 1544.49 90.17 1544.49 219.4"/>
    <path class="cls-9" d="M1334.97,176.77c2.82,0,4.98-.66,6.47-1.99s2.32-3.15,2.32-5.64c0-2.32-.83-4.15-2.32-5.47s-3.65-2.16-6.3-2.16h-9.12v24.72h3.32v-9.79h5.64v.33h0ZM1329.16,164.33h6.14c1.66,0,2.82.5,3.82,1.33s1.33,1.99,1.33,3.48-.5,2.82-1.33,3.65c-1,.83-2.32,1.16-3.98,1.16h-5.81v-9.62h-.17,0ZM1356.2,167.98c-.33-.17-.83-.17-1.33-.17-1.82,0-3.32.83-4.31,2.49v-2.16h-2.99v18.41h3.15v-13.11c.66-1.82,2.16-2.65,4.15-2.65.5,0,1,0,1.49.17l-.17-2.99h.01ZM1358.03,177.27c0,2.82.83,5.14,2.32,6.97,1.49,1.66,3.65,2.65,6.14,2.65,1.66,0,3.15-.33,4.48-1.16s2.32-1.82,2.99-3.32,1-2.99,1-4.81v-.17c0-2.82-.83-5.14-2.32-6.97-1.49-1.66-3.65-2.65-6.14-2.65-1.66,0-2.99.33-4.31,1.16s-2.32,1.82-2.99,3.32c-.66,1.49-1,2.99-1,4.81l-.17.17h0ZM1362.5,172.12c1-1.16,2.16-1.82,3.82-1.82s2.82.66,3.82,1.82c1,1.33,1.49,2.82,1.49,4.98,0,2.32-.5,3.98-1.49,5.31s-2.16,1.82-3.82,1.82-2.82-.66-3.82-1.82-1.49-2.82-1.49-4.98c.17-2.32.66-4.15,1.49-5.31h0ZM1379.92,184.23c1.33,1.66,3.15,2.65,5.31,2.65s3.98-.66,5.14-2.16v1.66c0,1.49-.5,2.82-1.33,3.65s-1.99,1.33-3.65,1.33c-1.99,0-3.65-.83-4.98-2.49l-1.66,1.82c.66,1,1.66,1.82,2.99,2.32s2.65.83,3.98.83c2.32,0,4.31-.66,5.64-1.99,1.49-1.33,2.16-3.32,2.16-5.64v-17.92h-2.82l-.17,1.99c-1.33-1.66-2.99-2.32-5.31-2.32-2.16,0-3.98.83-5.31,2.49s-1.99,3.98-1.99,6.8.66,5.14,1.99,6.97h.01ZM1382.41,172.12c.83-1.16,1.99-1.82,3.65-1.82,1.99,0,3.32.83,4.31,2.65v8.46c-1,1.82-2.32,2.65-4.31,2.65-1.49,0-2.65-.66-3.65-1.82-.83-1.16-1.33-2.82-1.33-4.98s.5-3.98,1.33-5.14h0ZM1407.13,167.98c-.33-.17-.83-.17-1.33-.17-1.82,0-3.32.83-4.31,2.49v-2.16h-3.15v18.41h3.15v-13.11c.66-1.82,2.16-2.65,4.15-2.65.5,0,1,0,1.49.17v-2.99h0ZM1424.05,186.39v-.33c-.5-1-.66-2.32-.66-3.98v-8.46c0-1.82-.66-3.32-1.82-4.31-1.16-1-2.82-1.66-4.98-1.66-1.33,0-2.49.17-3.65.83s-1.99,1.16-2.65,1.99-1,1.82-1,2.65h3.15c0-.83.33-1.49,1.16-1.99s1.66-.83,2.82-.83c1.33,0,2.32.33,2.99,1s1,1.49,1,2.65v1.49h-2.99c-2.65,0-4.64.5-6.14,1.66-1.49,1-2.16,2.49-2.16,4.48,0,1.66.5,2.82,1.82,3.98,1.16,1,2.65,1.49,4.48,1.49,1.99,0,3.82-.83,5.31-2.32.17,1,.33,1.66.5,1.99l2.82-.33h0ZM1412.94,183.24c-.66-.5-1-1.33-1-2.32,0-2.32,1.99-3.32,5.81-3.32h2.49v3.82c-.33.83-1,1.49-1.99,1.99-.83.5-1.82.83-2.82.83-1-.17-1.82-.5-2.49-1h0ZM1428.36,167.98v18.41h3.15v-13.44c.83-1.82,2.16-2.65,4.31-2.65,2.65,0,3.98,1.33,3.98,3.98v12.11h3.15v-12.28c.17-1.16.5-2.16,1.33-2.82s1.66-1,2.99-1c1.49,0,2.49.33,2.99,1,.66.66.83,1.66.83,2.99v12.11h3.15v-12.28c0-4.31-2.16-6.47-6.14-6.47-1.33,0-2.49.33-3.48.83s-1.82,1.33-2.32,2.16c-1-1.99-2.65-2.99-5.31-2.99-2.32,0-4.15.83-5.47,2.32l-.17-1.99h-2.99ZM1458.89,167.98v18.41h3.15v-13.44c.83-1.82,2.16-2.65,4.31-2.65,2.65,0,3.98,1.33,3.98,3.98v12.11h3.15v-12.28c.17-1.16.5-2.16,1.33-2.82s1.82-1,2.99-1c1.49,0,2.49.33,2.99,1,.66.66.83,1.66.83,2.99v12.11h3.15v-12.28c0-4.31-2.16-6.47-6.14-6.47-1.33,0-2.49.33-3.48.83s-1.82,1.33-2.32,2.16c-1-1.99-2.65-2.99-5.31-2.99-2.32,0-4.15.83-5.47,2.32l-.17-1.99h-2.99ZM1504.18,183.24l-1.99-1.49c-.5.83-1.33,1.33-1.99,1.82-.83.5-1.66.66-2.82.66-1.49,0-2.82-.5-3.82-1.66s-1.49-2.65-1.66-4.48h12.44v-1.33c0-2.99-.66-5.14-1.99-6.8s-3.15-2.32-5.64-2.32c-1.49,0-2.82.33-4.15,1.16s-2.16,1.99-2.99,3.32c-.66,1.49-1,3.15-1,4.98v.5c0,2.82.83,4.98,2.32,6.64s3.65,2.49,6.14,2.49c3.15,0,5.47-1.16,7.13-3.48h.02ZM1499.86,171.63c.83.83,1.16,2.16,1.33,3.65v.17h-9.29c.17-1.66.66-2.99,1.66-3.82.83-1,1.99-1.33,3.15-1.33,1.33,0,2.32.33,3.15,1.33h0Z"/>
    <path class="cls-9" d="M1293,120.86h-3.32v19.24l-12.44-19.24h-3.32v24.72h3.32v-19.08l12.44,19.08h3.32v-24.72h0ZM1312.9,145.75v-.33c-.5-1-.66-2.32-.66-3.98v-8.46c0-1.82-.66-3.32-1.82-4.31s-2.82-1.66-4.98-1.66c-1.33,0-2.49.17-3.65.83s-1.99,1.16-2.65,1.99-1,1.82-1,2.65h3.15c0-.83.33-1.49,1.16-1.99s1.66-.83,2.82-.83c1.33,0,2.32.33,2.99,1,.66.66,1,1.49,1,2.65v1.49h-2.99c-2.65,0-4.64.5-6.14,1.66-1.49,1-2.16,2.49-2.16,4.48,0,1.66.66,2.82,1.82,3.98,1.16,1,2.65,1.49,4.48,1.49,1.99,0,3.82-.83,5.31-2.32.17,1,.33,1.66.5,1.99l2.82-.33h0ZM1301.95,142.43c-.66-.5-1-1.33-1-2.32,0-2.32,1.99-3.32,5.81-3.32h2.49v3.82c-.33.83-1,1.49-1.99,1.99-.83.5-1.82.83-2.82.83-1-.17-1.82-.33-2.49-1h0ZM1318.38,122.85v4.48h-3.32v2.49h3.32v11.45c0,1.49.33,2.82,1,3.65s1.82,1.33,3.15,1.33c.83,0,1.66-.17,2.49-.33v-2.49c-.66.17-1.16.17-1.49.17-.66,0-1.33-.17-1.49-.5-.33-.33-.5-1-.5-1.66v-11.45h3.48v-2.49h-3.48v-4.48l-3.15-.17s-.01,0-.01,0ZM1332.15,127.33h-3.15v18.41h3.15v-18.41h0ZM1329.16,123.68c.33.33.83.5,1.33.5.66,0,1-.17,1.33-.5s.5-.83.5-1.33-.17-1-.5-1.33-.83-.5-1.33-.5c-.66,0-1,.17-1.33.5s-.5.83-.5,1.33.17,1,.5,1.33h0ZM1336.29,136.62c0,2.82.83,5.14,2.32,6.97,1.49,1.66,3.65,2.65,6.14,2.65,1.66,0,3.15-.33,4.48-1.16s2.32-1.82,2.99-3.32,1-2.99,1-4.81v-.17c0-2.82-.83-5.14-2.32-6.97-1.49-1.66-3.65-2.65-6.14-2.65-1.66,0-2.99.33-4.31,1.16-1.32.83-2.32,1.82-2.99,3.32-.66,1.49-1,2.99-1,4.81l-.17.17h0ZM1340.94,131.48c1-1.16,2.16-1.82,3.82-1.82s2.82.66,3.82,1.82c1,1.33,1.49,2.82,1.49,4.98,0,2.32-.5,3.98-1.49,5.31-1,1.33-2.16,1.82-3.82,1.82s-2.82-.66-3.82-1.82-1.49-2.82-1.49-4.98c0-2.32.5-4.15,1.49-5.31h0ZM1357.03,127.33v18.41h3.15v-13.11c.5-.83,1-1.66,1.82-2.16s1.66-.83,2.65-.83c1.33,0,2.16.33,2.82,1,.66.66.83,1.66.83,2.99v12.28h3.15v-12.11c0-4.31-1.99-6.64-5.97-6.64-2.32,0-4.15.83-5.47,2.65l-.17-2.32h-2.82v-.17h.01ZM1390.87,145.75v-.33c-.5-1-.66-2.32-.66-3.98v-8.46c0-1.82-.66-3.32-1.82-4.31-1.16-1-2.82-1.66-4.98-1.66-1.33,0-2.49.17-3.65.83-1.16.5-1.99,1.16-2.65,1.99s-1,1.82-1,2.65h3.15c0-.83.33-1.49,1.16-1.99s1.66-.83,2.82-.83c1.33,0,2.32.33,2.99,1s1,1.49,1,2.65v1.49h-2.99c-2.65,0-4.64.5-6.14,1.66-1.49,1-2.16,2.49-2.16,4.48,0,1.66.66,2.82,1.82,3.98,1.16,1,2.65,1.49,4.48,1.49,1.99,0,3.82-.83,5.31-2.32.17,1,.33,1.66.5,1.99l2.82-.33h0ZM1379.92,142.43c-.66-.5-1-1.33-1-2.32,0-2.32,1.99-3.32,5.81-3.32h2.49v3.82c-.33.83-1,1.49-1.99,1.99-.83.5-1.82.83-2.82.83-1-.17-1.82-.33-2.49-1h0ZM1398.67,119.54h-3.15v26.21h3.15v-26.21h0ZM1427.7,137.95c-.33,1.99-1,3.48-1.99,4.31-1,.83-2.32,1.16-4.15,1.16-1.99,0-3.65-.83-4.64-2.32-1.16-1.66-1.66-3.82-1.66-6.47v-2.49c0-2.82.66-4.98,1.82-6.64,1.16-1.49,2.82-2.32,4.98-2.32,1.66,0,2.99.5,3.98,1.33,1,.83,1.49,2.32,1.82,4.31h3.32c-.33-2.65-1.16-4.64-2.82-6.14s-3.65-2.16-6.3-2.16c-1.99,0-3.82.5-5.31,1.33-1.49,1-2.65,2.32-3.48,3.98-.83,1.82-1.16,3.82-1.16,6.14v2.32c0,3.48.83,6.3,2.65,8.46s4.15,3.15,6.97,3.15c2.65,0,4.81-.66,6.47-2.16s2.65-3.48,2.99-6.14h-3.48v.35h0ZM1448.27,129.49v-2.16h-13.93v2.65h9.95l-10.12,13.44v2.32h14.6v-2.65h-10.78l10.29-13.6h-.01,0ZM1466.68,142.6l-1.99-1.49c-.5.83-1.33,1.33-1.99,1.82-.83.5-1.66.66-2.82.66-1.49,0-2.82-.5-3.82-1.66s-1.49-2.65-1.66-4.48h12.44v-1.33c0-2.99-.66-5.14-1.99-6.8s-3.15-2.32-5.64-2.32c-1.49,0-2.82.33-4.15,1.16-1.33.83-2.16,1.99-2.99,3.32s-1,3.15-1,4.98v.5c0,2.82.83,4.98,2.32,6.64s3.65,2.49,6.14,2.49c3.15,0,5.47-1.16,7.13-3.48h.02ZM1462.37,130.82c.83.83,1.16,2.16,1.33,3.65v.17h-9.29c.17-1.66.66-2.99,1.66-3.82.83-1,1.99-1.33,3.15-1.33,1.33,0,2.49.5,3.15,1.33h0ZM1474.15,141.77c-.83-1.16-1.33-2.82-1.33-4.98v-.66c0-2.16.5-3.82,1.33-4.98s2.16-1.66,3.65-1.66c1.16,0,2.16.33,2.99,1.16s1.33,1.82,1.33,2.99h2.99c-.17-1.99-.83-3.65-2.16-4.81s-3.15-1.82-5.14-1.82c-1.66,0-3.15.33-4.31,1.16-1.16.83-2.16,1.82-2.82,3.32-.66,1.33-1,2.99-1,4.81v.5c0,2.99.66,5.14,2.16,6.8,1.49,1.66,3.48,2.49,5.97,2.49,1.33,0,2.49-.33,3.48-.83,1.16-.5,1.99-1.33,2.65-2.32.66-1,1-1.99,1.16-2.99h-2.99c-.17,1-.5,1.82-1.33,2.49s-1.82,1-2.99,1c-1.49,0-2.82-.5-3.65-1.66h.01ZM1491.9,119.54h-3.15v26.21h3.15v-13.11c.5-.83,1-1.66,1.82-2.16s1.66-.83,2.65-.83c1.33,0,2.16.33,2.82,1,.66.66.83,1.66.83,2.99v12.28h3.15v-12.11c0-4.31-1.99-6.64-5.97-6.64-2.16,0-3.98.83-5.47,2.65v-10.29h.17Z"/>
    <rect class="cls-1" x="1153.24" y="-.06" width="941.5" height="310.93"/>
  </g>
  <g>
    <rect class="cls-5" x="62.86" y="86.47" width="199.15" height="135.24"/>
    <rect class="cls-3" x="66.69" y="90.18" width="191.49" height="127.66"/>
    <polygon class="cls-6" points="158.37 117.99 162.4 115.04 166.44 117.99 164.91 113.22 169.01 110.27 163.95 110.27 162.4 105.44 160.86 110.28 155.8 110.27 159.9 113.22 158.37 117.99"/>
    <polygon class="cls-6" points="137.45 123.61 141.49 120.66 145.53 123.61 144 118.84 148.1 115.89 143.04 115.89 141.49 111.06 139.94 115.9 134.89 115.89 138.99 118.84 137.45 123.61"/>
    <polygon class="cls-6" points="126.19 126.39 124.64 131.23 119.59 131.23 123.69 134.18 122.15 138.95 126.19 136 130.23 138.95 128.69 134.18 132.8 131.23 127.74 131.23 126.19 126.39"/>
    <polygon class="cls-6" points="120.58 156.88 124.62 159.83 123.08 155.06 127.18 152.11 122.13 152.11 120.58 147.28 119.03 152.12 113.97 152.11 118.08 155.06 116.54 159.83 120.58 156.88"/>
    <polygon class="cls-6" points="127.74 173.06 126.19 168.23 124.64 173.07 119.59 173.06 123.69 176.01 122.15 180.78 126.19 177.83 130.23 180.78 128.7 176.01 132.8 173.06 127.74 173.06"/>
    <polygon class="cls-6" points="143.07 188.39 141.52 183.56 139.98 188.4 134.92 188.39 139.02 191.34 137.48 196.11 141.52 193.16 145.56 196.11 144.03 191.34 148.13 188.39 143.07 188.39"/>
    <polygon class="cls-6" points="163.96 193.94 162.41 189.11 160.86 193.95 155.8 193.94 159.9 196.89 158.37 201.66 162.41 198.71 166.45 201.66 164.91 196.89 169.01 193.94 163.96 193.94"/>
    <polygon class="cls-6" points="184.84 188.39 183.29 183.56 181.75 188.4 176.69 188.39 180.79 191.34 179.25 196.11 183.29 193.15 187.33 196.11 185.8 191.34 189.9 188.39 184.84 188.39"/>
    <polygon class="cls-6" points="200.17 173.06 198.62 168.23 197.08 173.07 192.02 173.06 196.12 176.01 194.58 180.78 198.62 177.83 202.66 180.78 201.13 176.01 205.23 173.06 200.17 173.06"/>
    <polygon class="cls-6" points="210.78 152.05 205.73 152.05 204.17 147.22 202.63 152.06 197.57 152.05 201.68 155 200.14 159.77 204.17 156.82 208.22 159.77 206.68 155 210.78 152.05"/>
    <polygon class="cls-6" points="194.59 138.88 198.62 135.93 202.66 138.88 201.13 134.11 205.23 131.17 200.17 131.17 198.62 126.34 197.08 131.17 192.02 131.16 196.12 134.11 194.59 138.88"/>
    <polygon class="cls-6" points="183.35 111.06 181.81 115.9 176.75 115.89 180.85 118.85 179.31 123.62 183.36 120.66 187.39 123.62 185.86 118.85 189.96 115.89 184.9 115.89 183.35 111.06"/>
    <path class="cls-3" d="M300.24,140.37c-2.28,0-4.33-.35-6.15-1.05-1.81-.7-3.35-1.73-4.61-3.09-1.26-1.36-2.22-3.02-2.9-4.98-.67-1.96-1.01-4.21-1.01-6.76s.39-4.8,1.16-6.76c.78-1.96,1.84-3.62,3.18-4.98,1.34-1.36,2.92-2.39,4.74-3.1,1.81-.7,3.76-1.05,5.84-1.05,1.26,0,2.4.09,3.42.28,1.02.19,1.92.4,2.68.64.76.23,1.39.48,1.89.75.5.26.85.46,1.05.57l-1.62,4.52c-.7-.44-1.7-.85-3.01-1.25-1.31-.4-2.72-.59-4.24-.59-1.31,0-2.55.23-3.69.68-1.14.45-2.13,1.13-2.96,2.04-.83.91-1.48,2.05-1.95,3.43-.47,1.37-.7,2.97-.7,4.78,0,1.61.18,3.09.55,4.43.37,1.34.93,2.51,1.69,3.49.76.98,1.73,1.74,2.9,2.29,1.17.54,2.57.81,4.21.81,1.96,0,3.56-.2,4.78-.59,1.23-.39,2.18-.77,2.85-1.12l1.49,4.52c-.35.23-.83.47-1.43.7-.6.23-1.31.46-2.13.68-.82.22-1.74.39-2.76.53-1.02.13-2.12.2-3.29.2"/>
    <path class="cls-3" d="M329.21,128.21c0-2.28-.49-4.09-1.47-5.42-.98-1.33-2.35-2-4.1-2s-3.12.66-4.1,2c-.98,1.33-1.47,3.14-1.47,5.42s.49,4.14,1.47,5.49c.98,1.34,2.35,2.02,4.1,2.02s3.12-.67,4.1-2.02c.98-1.34,1.47-3.17,1.47-5.49M334.65,128.21c0,1.81-.26,3.47-.79,4.96-.53,1.49-1.28,2.77-2.24,3.82-.97,1.05-2.13,1.87-3.49,2.45-1.36.59-2.86.88-4.5.88s-3.13-.29-4.48-.88c-1.35-.58-2.5-1.4-3.47-2.45-.96-1.05-1.72-2.33-2.26-3.82-.54-1.49-.81-3.14-.81-4.96s.27-3.46.81-4.94c.54-1.48,1.3-2.75,2.28-3.8.98-1.05,2.14-1.86,3.49-2.43,1.34-.57,2.82-.86,4.43-.86s3.09.29,4.45.86c1.36.57,2.52,1.38,3.49,2.43.96,1.05,1.72,2.32,2.26,3.8.54,1.47.81,3.12.81,4.94"/>
    <rect class="cls-3" x="337.76" y="124.75" width="11.81" height="4.87"/>
    <path class="cls-3" d="M363.31,105.65c1.23,0,2.31.11,3.25.33.94.22,1.64.42,2.11.59l-1.01,4.38c-.5-.23-1.08-.42-1.73-.57s-1.37-.22-2.13-.22c-.85,0-1.57.13-2.15.37-.59.25-1.05.59-1.4,1.03-.35.44-.6.97-.75,1.6-.15.63-.22,1.31-.22,2.04v1.54h8.34v4.43h-8.34v18.52h-5.31v-24.58c0-2.95.78-5.27,2.33-6.96,1.55-1.68,3.89-2.52,7.02-2.52"/>
    <path class="cls-3" d="M390.34,139.01c-1.02.26-2.36.53-3.99.81-1.64.28-3.44.42-5.4.42-1.85,0-3.39-.26-4.63-.79-1.24-.52-2.24-1.26-2.98-2.19-.75-.93-1.28-2.06-1.6-3.36-.32-1.3-.48-2.73-.48-4.28v-12.86h5.31v12.02c0,2.46.36,4.22,1.07,5.27.72,1.05,1.97,1.58,3.76,1.58.64,0,1.32-.03,2.04-.09.72-.06,1.25-.13,1.6-.22v-18.56h5.31v22.25Z"/>
    <path class="cls-3" d="M397.1,117.5c1.02-.29,2.36-.57,3.99-.83,1.64-.26,3.45-.4,5.44-.4,1.87,0,3.44.26,4.7.77,1.25.51,2.26,1.23,3.01,2.15.75.92,1.27,2.03,1.58,3.34.31,1.3.46,2.73.46,4.28v12.9h-5.31v-12.07c0-1.23-.08-2.28-.24-3.14-.16-.86-.43-1.57-.79-2.11-.37-.54-.86-.94-1.49-1.18-.63-.25-1.4-.37-2.3-.37-.68,0-1.37.04-2.11.13-.73.09-1.28.16-1.63.22v18.52h-5.31v-22.21Z"/>
    <path class="cls-3" d="M426.95,128.17c0,2.34.56,4.18,1.67,5.51,1.11,1.34,2.65,2,4.61,2,.85,0,1.57-.03,2.17-.11.6-.07,1.09-.16,1.47-.24v-13.17c-.47-.32-1.09-.62-1.86-.9-.78-.28-1.6-.42-2.48-.42-1.93,0-3.34.65-4.24,1.97-.89,1.31-1.34,3.1-1.34,5.35M442.18,139.01c-1.05.32-2.38.62-3.97.88-1.6.26-3.27.39-5.02.39s-3.44-.28-4.87-.83c-1.43-.56-2.65-1.35-3.66-2.39-1.01-1.04-1.78-2.3-2.32-3.78-.54-1.47-.81-3.14-.81-4.98s.23-3.46.68-4.94c.45-1.47,1.12-2.74,2-3.8.88-1.05,1.95-1.86,3.21-2.44,1.26-.57,2.71-.85,4.35-.85,1.11,0,2.09.13,2.94.39.85.26,1.58.56,2.19.88v-11.02l5.31-.88v33.36Z"/>
    <path class="cls-3" d="M463.07,125.97c0-.73-.1-1.42-.31-2.08-.2-.66-.5-1.23-.9-1.71-.39-.48-.88-.86-1.45-1.14-.57-.28-1.25-.42-2.04-.42s-1.54.15-2.15.46c-.61.31-1.13.71-1.56,1.21-.43.49-.75,1.07-.99,1.71-.23.65-.39,1.3-.48,1.97h9.88ZM447.66,128.34c0-2.02.3-3.79.9-5.31.6-1.52,1.4-2.79,2.39-3.8.99-1.01,2.13-1.77,3.42-2.28,1.29-.51,2.61-.77,3.95-.77,3.16,0,5.63.98,7.39,2.94,1.77,1.96,2.65,4.89,2.65,8.78,0,.29,0,.62-.02.98-.01.37-.03.7-.07.99h-15.14c.15,1.84.8,3.27,1.95,4.28,1.16,1.01,2.83,1.51,5.03,1.51,1.29,0,2.46-.12,3.53-.35,1.07-.23,1.91-.48,2.52-.75l.7,4.35c-.29.15-.69.3-1.21.46-.51.16-1.1.31-1.76.44-.66.13-1.37.24-2.13.33-.76.09-1.54.13-2.32.13-2.02,0-3.77-.3-5.27-.9-1.49-.6-2.72-1.43-3.69-2.5-.97-1.07-1.68-2.32-2.15-3.77s-.7-3.04-.7-4.76"/>
    <path class="cls-3" d="M478.16,128.17c0,2.34.56,4.18,1.67,5.51,1.11,1.34,2.65,2,4.61,2,.85,0,1.57-.03,2.17-.11.6-.07,1.09-.16,1.47-.24v-13.17c-.46-.32-1.09-.62-1.86-.9-.77-.28-1.6-.42-2.48-.42-1.93,0-3.34.65-4.24,1.97-.89,1.31-1.34,3.1-1.34,5.35M493.4,139.01c-1.05.32-2.38.62-3.97.88-1.6.26-3.27.39-5.03.39s-3.44-.28-4.87-.83c-1.43-.56-2.65-1.35-3.66-2.39-1.01-1.04-1.79-2.3-2.32-3.78-.54-1.47-.81-3.14-.81-4.98s.23-3.46.68-4.94c.46-1.47,1.12-2.74,2-3.8.88-1.05,1.94-1.86,3.21-2.44,1.25-.57,2.71-.85,4.34-.85,1.11,0,2.09.13,2.94.39.85.26,1.58.56,2.19.88v-11.02l5.31-.88v33.36Z"/>
    <path class="cls-3" d="M525.61,128.17c0-2.26-.45-4.04-1.34-5.36-.89-1.31-2.3-1.97-4.23-1.97-.88,0-1.7.13-2.48.39-.78.26-1.4.56-1.86.88v13.21c.38.09.87.17,1.47.24s1.32.11,2.17.11c1.96,0,3.5-.66,4.61-2,1.11-1.33,1.67-3.17,1.67-5.51M531.05,128.26c0,1.84-.27,3.5-.81,4.98-.54,1.47-1.32,2.74-2.33,3.8-1.01,1.05-2.23,1.86-3.66,2.42-1.43.56-3.06.83-4.87.83s-3.43-.13-5.03-.39c-1.6-.26-2.92-.56-3.97-.88v-32.48l5.31-.88v11.89c.62-.32,1.37-.62,2.26-.88.89-.26,1.88-.39,2.96-.39,1.61,0,3.05.29,4.32.86,1.28.57,2.33,1.38,3.18,2.43.85,1.05,1.5,2.32,1.95,3.8.45,1.48.68,3.11.68,4.89"/>
    <path class="cls-3" d="M554.8,116.76c-2.37,8.72-5.11,16.62-8.24,23.7-.59,1.32-1.19,2.45-1.8,3.38-.61.93-1.3,1.71-2.06,2.32-.76.62-1.61,1.06-2.55,1.34-.94.28-2.02.42-3.25.42-.82,0-1.63-.09-2.44-.26-.81-.18-1.41-.36-1.82-.57l.96-4.26c1.06.41,2.1.62,3.13.62,1.38,0,2.46-.33,3.24-.99s1.46-1.68,2.05-3.05c-1.67-3.22-3.28-6.73-4.83-10.53-1.54-3.8-2.92-7.84-4.12-12.11h5.66c.29,1.23.65,2.56,1.08,3.99.43,1.43.89,2.89,1.39,4.37.5,1.47,1.03,2.94,1.59,4.41.56,1.46,1.11,2.82,1.67,4.08.93-2.61,1.8-5.38,2.62-8.32.82-2.94,1.56-5.79,2.23-8.54h5.49Z"/>
    <path class="cls-3" d="M286.2,163.37l5.31-.88v6.93h8.17v4.44h-8.17v9.35c0,1.84.29,3.16.88,3.95.59.79,1.58,1.18,2.98,1.18.97,0,1.82-.1,2.57-.31.75-.2,1.34-.39,1.78-.57l.88,4.21c-.62.26-1.42.53-2.41.82-1,.27-2.17.42-3.51.42-1.64,0-3.01-.22-4.1-.66-1.1-.44-1.97-1.08-2.61-1.91-.65-.84-1.1-1.84-1.36-3.03-.26-1.18-.39-2.54-.39-4.06v-19.88Z"/>
    <path class="cls-3" d="M304.8,192.38v-33.18l5.31-.88v11.37c.59-.2,1.27-.38,2.04-.52.78-.15,1.54-.22,2.3-.22,1.84,0,3.37.26,4.59.77,1.21.51,2.19,1.23,2.92,2.15.73.92,1.25,2.03,1.56,3.31s.46,2.72.46,4.3v12.91h-5.31v-12.07c0-1.23-.08-2.27-.24-3.14-.16-.86-.43-1.56-.79-2.1-.37-.54-.85-.94-1.47-1.18-.62-.25-1.37-.37-2.28-.37-.7,0-1.42.07-2.15.22-.73.15-1.28.28-1.63.39v18.26h-5.31Z"/>
    <path class="cls-3" d="M344.48,178.65c0-.73-.1-1.43-.31-2.09-.2-.66-.5-1.23-.9-1.71-.39-.48-.88-.86-1.45-1.14-.57-.28-1.25-.42-2.04-.42s-1.54.15-2.15.46c-.61.31-1.13.71-1.56,1.21-.43.49-.75,1.07-.99,1.71-.23.65-.39,1.3-.48,1.98,0,0,9.88,0,9.88,0ZM329.07,181.01c0-2.02.3-3.79.9-5.31.6-1.52,1.4-2.78,2.39-3.8.99-1.01,2.13-1.77,3.42-2.28,1.29-.51,2.61-.77,3.95-.77,3.16,0,5.63.98,7.39,2.94,1.77,1.96,2.65,4.89,2.65,8.78,0,.29,0,.62-.02.99-.01.36-.03.69-.07.98h-15.14c.15,1.84.8,3.27,1.95,4.28,1.16,1.01,2.83,1.51,5.03,1.51,1.29,0,2.46-.12,3.53-.35,1.07-.23,1.91-.48,2.52-.75l.7,4.34c-.29.15-.69.3-1.21.46-.51.16-1.1.31-1.76.44-.65.13-1.37.24-2.13.33-.76.09-1.54.13-2.33.13-2.02,0-3.77-.3-5.27-.9-1.49-.6-2.72-1.44-3.69-2.5s-1.68-2.32-2.15-3.77c-.47-1.45-.7-3.04-.7-4.76"/>
    <polygon class="cls-3" points="365.9 192.38 365.9 161.96 385.43 161.96 385.43 166.66 371.43 166.66 371.43 174.16 383.89 174.16 383.89 178.78 371.43 178.78 371.43 187.68 386.48 187.68 386.48 192.38 365.9 192.38"/>
    <path class="cls-3" d="M409.44,191.68c-1.02.26-2.36.53-3.99.81-1.64.28-3.44.42-5.4.42-1.85,0-3.39-.26-4.63-.79s-2.24-1.26-2.98-2.19c-.75-.94-1.28-2.06-1.6-3.36-.32-1.3-.48-2.73-.48-4.28v-12.86h5.31v12.03c0,2.46.36,4.22,1.07,5.27.72,1.05,1.97,1.58,3.76,1.58.64,0,1.32-.03,2.04-.09.72-.06,1.25-.13,1.6-.22v-18.57h5.31v22.25Z"/>
    <path class="cls-3" d="M429.27,174.21c-.44-.15-1.05-.3-1.82-.46-.78-.16-1.67-.24-2.7-.24-.59,0-1.21.06-1.86.17-.66.12-1.12.22-1.38.31v18.39h-5.31v-21.86c1.02-.38,2.31-.74,3.84-1.08,1.54-.34,3.24-.51,5.11-.51.35,0,.76.03,1.23.07s.94.1,1.41.17c.47.07.92.16,1.36.26.44.1.79.2,1.06.29,0,0-.92,4.48-.92,4.48Z"/>
    <path class="cls-3" d="M449.2,180.88c0-2.28-.49-4.09-1.47-5.42s-2.35-2-4.1-2-3.12.66-4.1,2c-.98,1.33-1.47,3.14-1.47,5.42s.49,4.14,1.47,5.49c.98,1.34,2.35,2.02,4.1,2.02s3.12-.67,4.1-2.02c.98-1.34,1.47-3.17,1.47-5.49M454.64,180.88c0,1.82-.26,3.47-.79,4.96-.53,1.49-1.28,2.76-2.24,3.82-.97,1.05-2.13,1.87-3.49,2.45-1.36.59-2.86.88-4.5.88s-3.13-.29-4.48-.88c-1.35-.58-2.5-1.4-3.47-2.45-.96-1.05-1.72-2.33-2.26-3.82-.54-1.5-.81-3.14-.81-4.96s.27-3.46.81-4.94c.54-1.48,1.3-2.75,2.28-3.8.98-1.05,2.14-1.86,3.49-2.43,1.34-.57,2.82-.86,4.43-.86s3.09.29,4.45.86c1.36.57,2.52,1.38,3.49,2.43.96,1.05,1.72,2.32,2.26,3.8.54,1.47.81,3.12.81,4.94"/>
    <path class="cls-3" d="M475.36,181.01c0-2.37-.53-4.21-1.6-5.53-1.07-1.31-2.79-1.97-5.16-1.97-.5,0-1.02.02-1.56.07-.54.04-1.08.14-1.6.29v13.12c.47.33,1.09.62,1.86.9s1.6.42,2.48.42c1.93,0,3.34-.66,4.23-1.97.89-1.32,1.34-3.09,1.34-5.31M480.8,180.93c0,1.76-.23,3.37-.68,4.83-.46,1.47-1.11,2.72-1.95,3.77-.85,1.05-1.91,1.87-3.18,2.46-1.27.59-2.72.88-4.32.88-1.08,0-2.08-.13-2.98-.4-.91-.26-1.65-.56-2.24-.88v8.91h-5.31v-30.33c1.08-.29,2.41-.57,3.99-.83,1.58-.26,3.25-.4,5.01-.4s3.44.28,4.87.84c1.44.56,2.66,1.35,3.66,2.39,1.01,1.04,1.79,2.3,2.33,3.78.54,1.47.81,3.14.81,4.98"/>
    <path class="cls-3" d="M500.42,178.65c0-.73-.1-1.43-.31-2.09s-.5-1.23-.9-1.71c-.39-.48-.88-.86-1.45-1.14-.57-.28-1.25-.42-2.04-.42s-1.54.15-2.15.46c-.61.31-1.13.71-1.56,1.21-.43.49-.75,1.07-.98,1.71-.24.65-.4,1.3-.49,1.98,0,0,9.88,0,9.88,0ZM485.02,181.01c0-2.02.3-3.79.9-5.31.6-1.52,1.39-2.78,2.39-3.8.99-1.01,2.13-1.77,3.42-2.28s2.61-.77,3.95-.77c3.16,0,5.63.98,7.39,2.94,1.77,1.96,2.65,4.89,2.65,8.78,0,.29,0,.62-.02.99-.01.36-.03.69-.07.98h-15.14c.15,1.84.8,3.27,1.95,4.28,1.16,1.01,2.83,1.51,5.03,1.51,1.29,0,2.46-.12,3.53-.35,1.07-.23,1.91-.48,2.52-.75l.7,4.34c-.29.15-.69.3-1.21.46-.51.16-1.1.31-1.76.44s-1.37.24-2.13.33c-.76.09-1.54.13-2.32.13-2.02,0-3.77-.3-5.27-.9s-2.72-1.44-3.69-2.5c-.97-1.07-1.68-2.32-2.15-3.77-.47-1.45-.7-3.04-.7-4.76"/>
    <path class="cls-3" d="M519.42,188.65c1.64,0,2.88-.09,3.73-.26v-5.88c-.29-.09-.72-.18-1.27-.26-.56-.09-1.17-.13-1.84-.13-.59,0-1.18.04-1.78.13-.6.09-1.14.25-1.63.48-.48.24-.87.57-1.16.99-.29.43-.44.96-.44,1.6,0,1.26.39,2.13,1.18,2.61.79.48,1.86.72,3.21.72M518.99,168.86c1.76,0,3.23.22,4.43.66,1.2.44,2.16,1.05,2.88,1.84.72.79,1.23,1.75,1.54,2.87.31,1.13.46,2.36.46,3.71v13.91c-.82.18-2.06.39-3.71.64-1.65.25-3.52.37-5.59.37-1.37,0-2.63-.13-3.78-.39-1.14-.26-2.11-.69-2.91-1.27-.81-.59-1.44-1.35-1.89-2.28-.45-.94-.68-2.09-.68-3.47s.26-2.43.77-3.34c.51-.91,1.21-1.65,2.09-2.22.88-.57,1.89-.98,3.05-1.23,1.15-.24,2.36-.37,3.62-.37.58,0,1.2.04,1.84.11.64.07,1.33.2,2.06.37v-.88c0-.61-.07-1.2-.22-1.75-.15-.56-.4-1.05-.77-1.47-.37-.43-.85-.75-1.45-.99-.6-.23-1.35-.35-2.26-.35-1.23,0-2.36.09-3.38.26-1.02.17-1.86.38-2.5.62l-.66-4.31c.67-.23,1.65-.46,2.94-.7,1.28-.23,2.66-.35,4.12-.35"/>
    <path class="cls-3" d="M534.79,170.17c1.02-.29,2.36-.57,3.99-.83,1.64-.26,3.45-.39,5.44-.39,1.87,0,3.44.26,4.69.77s2.26,1.23,3.01,2.15c.75.92,1.27,2.03,1.58,3.34.31,1.3.46,2.73.46,4.28v12.91h-5.31v-12.07c0-1.23-.08-2.28-.24-3.14-.16-.86-.43-1.57-.79-2.11-.37-.54-.86-.94-1.49-1.18-.63-.25-1.4-.37-2.3-.37-.68,0-1.38.04-2.11.13-.73.09-1.27.16-1.62.22v18.52h-5.31v-22.21Z"/>
    <path class="cls-3" d="M582.67,193.04c-2.08,0-3.86-.3-5.36-.9-1.49-.6-2.73-1.44-3.71-2.52-.98-1.08-1.7-2.36-2.17-3.82-.47-1.46-.7-3.07-.7-4.83v-19.01h5.58v18.48c0,1.37.15,2.55.46,3.53.31.98.75,1.78,1.32,2.39.57.62,1.24,1.07,2.02,1.36.78.29,1.64.44,2.61.44s1.84-.15,2.63-.44c.79-.29,1.47-.75,2.04-1.36.57-.62,1.01-1.41,1.31-2.39.31-.98.46-2.16.46-3.53v-18.48h5.57v19.01c0,1.76-.24,3.37-.72,4.83-.49,1.47-1.21,2.74-2.19,3.82-.98,1.08-2.23,1.92-3.75,2.52-1.52.6-3.32.9-5.4.9"/>
    <path class="cls-3" d="M601.54,170.17c1.02-.29,2.36-.57,3.99-.83,1.64-.26,3.45-.39,5.44-.39,1.87,0,3.44.26,4.69.77s2.26,1.23,3.01,2.15c.75.92,1.27,2.03,1.58,3.34.31,1.3.46,2.73.46,4.28v12.91h-5.31v-12.07c0-1.23-.08-2.28-.24-3.14-.16-.86-.43-1.57-.79-2.11-.37-.54-.86-.94-1.49-1.18-.63-.25-1.4-.37-2.3-.37-.68,0-1.38.04-2.11.13-.73.09-1.27.16-1.62.22v18.52h-5.31v-22.21Z"/>
    <path class="cls-3" d="M632.57,192.38h-5.31v-22.96h5.31v22.96ZM633.14,162.71c0,.99-.32,1.79-.97,2.37-.64.59-1.4.88-2.28.88s-1.68-.29-2.32-.88c-.65-.59-.97-1.38-.97-2.37s.32-1.83.97-2.41c.64-.59,1.42-.88,2.32-.88s1.64.29,2.28.88c.65.59.97,1.39.97,2.41"/>
    <path class="cls-3" d="M654.65,180.88c0-2.28-.49-4.09-1.47-5.42s-2.35-2-4.1-2-3.12.66-4.1,2-1.47,3.14-1.47,5.42.49,4.14,1.47,5.49c.98,1.34,2.35,2.02,4.1,2.02s3.12-.67,4.1-2.02c.98-1.34,1.47-3.17,1.47-5.49M660.09,180.88c0,1.82-.26,3.47-.79,4.96-.52,1.49-1.27,2.76-2.24,3.82-.97,1.05-2.13,1.87-3.49,2.45-1.36.59-2.86.88-4.5.88s-3.13-.29-4.48-.88c-1.35-.58-2.5-1.4-3.47-2.45-.96-1.05-1.72-2.33-2.26-3.82-.54-1.5-.81-3.14-.81-4.96s.27-3.46.81-4.94c.54-1.48,1.3-2.75,2.29-3.8.98-1.05,2.14-1.86,3.49-2.43,1.34-.57,2.82-.86,4.43-.86s3.09.29,4.45.86c1.36.57,2.52,1.38,3.49,2.43.96,1.05,1.72,2.32,2.26,3.8.54,1.47.81,3.12.81,4.94"/>
    <path class="cls-3" d="M665.57,170.17c1.02-.29,2.36-.57,3.99-.83,1.64-.26,3.45-.39,5.44-.39,1.87,0,3.44.26,4.69.77s2.26,1.23,3.01,2.15c.75.92,1.27,2.03,1.58,3.34.31,1.3.46,2.73.46,4.28v12.91h-5.31v-12.07c0-1.23-.08-2.28-.24-3.14-.16-.86-.43-1.57-.79-2.11-.37-.54-.86-.94-1.49-1.18-.63-.25-1.4-.37-2.3-.37-.68,0-1.38.04-2.11.13-.73.09-1.27.16-1.62.22v18.52h-5.31v-22.21Z"/>
    <g>
      <g>
        <g>
          <rect class="cls-7" x="764.67" y="90.22" width="57.48" height="127.73"/>
          <rect class="cls-10" x="822.15" y="90.22" width="6.39" height="127.73"/>
        </g>
        <g>
          <path class="cls-5" d="M793.06,132.36s-.87-.21-1.07-1.02c-.25-.97.46-1.53.46-1.53-.87-.51-1.94-1.33-2.91-2.09l-3.98.71c-3.52.61-4.54,3.26-.1,8.77h-5c-.05-1.17-.36-1.89-.66-2.4-.87-1.38-2.09-1.22-3.21-.25.61.41,1.02.82,1.43,1.43.41.61.61,1.12.66,1.33-.87-.71-2.4-1.12-3.01-1.07-.76.05-1.68.76-1.68,2.35,0,0,1.07-.31,2.35-.1.72.1,1.63.41,1.63.41-.56.15-1.17.56-1.58.97-1.02,1.02-.56,1.99.66,3.06.2-.72.56-1.33,1.38-2.14.72-.72.92-.87,1.23-1.02.79.24,1.56.43,2.3.58.39,1.02-.47,2.32-.47,2.32,1.43.36,2.8-.81,2.86-1.93,2.71.31,4.95.12,6.38-.31l-2.86-6.53s3.42-.31,5.2-1.53Z"/>
          <path class="cls-5" d="M777.4,111.39l1.57,1.53c-.24,1.04-1.67,1.63-1.67,1.63,1,1.09,2.72.88,3.42.06l4.39,4.27c.36-2.14,1.28-3.16,2.55-4.13-3.42-2.5-7.91-4.64-7.91-4.64.77-.87,1.07-1.58,1.23-2.19.36-1.58-.61-2.35-2.09-2.4.15.71.1,1.43,0,1.94-.1.61-.21.97-.46,1.48-.1-1.12-.92-2.5-1.38-2.91-.56-.51-1.74-.61-2.86.46,0,0,1.02.61,1.74,1.58.41.56.87,1.48.87,1.48-.51-.31-1.23-.46-1.79-.46-1.48,0-1.84,1.02-1.73,2.65.66-.36,1.43-.56,2.5-.56.66,0,1.17.05,1.63.21h0Z"/>
          <path class="cls-5" d="M816.32,122.21h-2.02c.02-.3.03-.61.03-.92,0-3.11-1.12-5.31-2.55-7.04,0,0-1.07.82-1.48,1.33,1.17,1.48,2.04,3.26,2.04,5.76,0,.29-.01.58-.04.87h-2.21c0,.61.68,1.68,1.87,2.08-.53,2.12-1.57,4.08-2.79,5.59-1.77-2.19-3.16-5.31-3.16-8.53,0-4.28,2.4-6.48,4.95-8.62.22-.19.56-.46.96-.8.65.59,1.34,1.31,1.9,2.22,0,0,1.43-.71,1.43-1.89,0-1.09-1.19-1.32-2.3-1.3,1.13-1.16,2.25-2.74,2.25-4.57s-1.17-3.06-2.8-3.06c-2.4,0-2.65,2.5-2.65,3.06,0,0,.61-.56,1.38-.56.72,0,1.43.51,1.43,1.63,0,1.38-1.12,2.35-3.16,4.08-2.35,1.99-5.35,4.69-5.35,9.74,0,.31,0,.61.03.92h-2.28c0,.73.98,2.11,2.62,2.24.9,3.86,3.14,6.66,3.46,7.05-.33.39-1.11,1.07-2.46,1.07s-2.56-.65-3.58-1.99c0-.15,0-.3,0-.46,0-3.72-1.33-8.01-3.47-10.56h3.72c-.05-2.14-.92-4.13-3.06-6.07h2.14c0-4.23-3.01-5.71-3.26-5.92,1.94-.46,2.75-1.99,2.75-2.86h-9.33s-1.12,1.28-3.11,2.09c0,1.38,1.02,2.55,1.89,3.16.82-1.33,1.84-1.48,2.4-1.48.87,0,1.58.46,1.58,1.28,0,.61-.41,1.22-1.12,1.22-.51,0-1.07-.31-1.84-.31-1.89,0-1.63,1.89-1.63,1.89h3.21c.3,2.43-5.82,2.55-5.91,7.13-5.34,1.42-8.67,3.37-8.67,3.37-.15-1.12-.51-1.84-.92-2.35-1.02-1.28-2.19-1.02-3.16.05.66.36,1.02.66,1.53,1.27.51.61.56.77.82,1.28-.92-.61-2.5-.87-3.11-.77-.76.1-1.58.92-1.48,2.45,0,0,1.02-.31,2.04-.31s1.94.31,1.94.31c-.56.15-1.12.61-1.48,1.07-.92,1.17-.41,2.04.92,3.01.15-.72.61-1.63,1.17-2.3.31-.36.82-.87,1.17-1.07l2.14-.29c.64.88.21,2.33.21,2.33,1.46-.1,2.42-1.59,2.2-2.66l6.46-.88c2.22,2.8,5.83,4.72,6.49,5.06l-1.94,6.68c-.82,2.8-.25,4.95,1.84,5.35,1.32.26,3.11-.2,3.11-.2l-2.35,4.69c-1.02-.56-1.78-.77-2.4-.77-1.63,0-2.19,1.12-1.94,2.55.71-.31,1.22-.41,1.99-.41.46,0,.92,0,1.48.15-1.07.36-2.25,1.43-2.55,1.94-.41.66-.26,1.84,1.02,2.7,0,0,.31-1.02,1.17-1.99.51-.56,1.27-1.17,1.27-1.17-.2.56-.2,1.33-.05,1.84.36,1.38,1.07,1.63,2.91,1.17-.46-.61-.77-1.12-1.02-2.35-.15-.66-.21-1.17-.15-1.63.44-.5,1.07-1.08,1.78-1.72,1.04.29,1.59,1.72,1.59,1.72,1.08-.94.98-2.63.19-3.39,1.84-1.82,3.58-4,3.58-6.4h-5.61s1.8-1.61,2.54-4.99c1,.94,2.51,1.47,3.78,1.47s2.55-.61,3.27-1.27v3.67c1.63,0,3.01-2.25,1.84-4.18,2.65,1.48,4.39-.41,4.39-1.53h-4.09c.66-.86,2.48-3.43,3.26-6.82,1.48-.24,2.36-1.51,2.36-2.2ZM792.9,107.31c-.61,0-1.07-.46-1.07-1.43h2.6c0,.71-.82,1.43-1.53,1.43h0Z"/>
          <path class="cls-5" d="M787.34,111.29h1.74c0-1.07-1.07-1.17-2.04-1.53-.82-.31-1.53-.87-1.53-2.3,0-.61.15-1.58,1.02-2.29-1.53,0-3.16,1.02-3.16,2.91,0,1.53,1.07,3.21,3.98,3.21Z"/>
          <path class="cls-5" d="M794.94,103.03h4.13l2.96-5.46c-1.02-.76-3.26-.51-3.26,1.23,0,.61.25,1.02.25,1.53,0,.82-.66,1.07-1.43,1.07-1.53,0-2.09-1.12-2.09-2.04l.46.31c.77.51,1.68-.1,1.68-.92,0-.71-.66-1.17-1.28-1.07l-.66.1.31-.66c.46-.97-.26-1.53-1.07-1.99-.82.46-1.53,1.02-1.07,1.99l.31.66-.66-.1c-.61-.1-1.28.36-1.28,1.07,0,.82.92,1.43,1.68.92l.46-.31c0,.92-.56,2.04-2.09,2.04-.76,0-1.43-.25-1.43-1.07,0-.51.25-.92.25-1.53,0-1.73-2.24-1.99-3.26-1.23l2.96,5.46h4.13Z"/>
          <path class="cls-5" d="M803.1,112.26c0,1.17,1.43,1.89,1.43,1.89.56-.92,2.35-2.75,3.37-3.52-1.38-1.17-2.09-2.04-2.09-3.16s.71-1.63,1.43-1.63c.77,0,1.38.56,1.38.56,0-.56-.25-3.06-2.65-3.06-1.63,0-2.81,1.17-2.81,3.06s1.12,3.42,2.25,4.59c-1.12-.05-2.3.2-2.3,1.28h0Z"/>
        </g>
      </g>
      <g>
        <polygon class="cls-4" points="846.47 106.56 851.85 116.59 857.23 106.56 857.23 119.9 860 119.9 860 101.26 857.36 101.26 851.9 111.48 846.42 101.26 843.7 101.26 843.7 119.9 846.47 119.9 846.47 106.56"/>
        <rect class="cls-4" x="863.62" y="106.21" width="2.66" height="13.69"/>
        <rect class="cls-4" x="863.4" y="101.15" width="3.09" height="3.09"/>
        <path class="cls-4" d="M872.56,111.27c0-2.05,1.33-3.06,3.01-3.06,1.78,0,3.01.99,3.01,3.54v8.15h2.66v-8.41c0-3.83-2.05-5.54-4.93-5.54-1.65,0-2.98.72-3.86,2.05v-1.78h-2.56v13.69h2.66v-8.63h0Z"/>
        <rect class="cls-4" x="884.65" y="101.15" width="3.09" height="3.09"/>
        <rect class="cls-4" x="884.87" y="106.21" width="2.66" height="13.69"/>
        <path class="cls-4" d="M896.1,118.03c-2.26,0-2.98-.88-3.09-2.34h-2.66c.13,2.82,2.13,4.47,5.75,4.47s5.75-1.78,5.75-4.18c0-2.24-1.6-3.46-4.18-3.89l-2-.35c-1.57-.27-2.16-.67-2.16-1.76,0-1.15.93-1.92,2.61-1.92,2,0,2.72.88,2.82,2.34h2.66c-.13-2.77-2.05-4.47-5.51-4.47s-5.25,1.89-5.25,4.18,1.54,3.38,4.15,3.81l2.02.35c1.46.24,2.16.72,2.16,1.81,0,1.28-1.15,1.94-3.09,1.94h0Z"/>
        <path class="cls-4" d="M908.94,101.79l-2.66.53v3.89h-2.82v2.26h2.82v7.16c0,2.69,1.01,4.45,4.26,4.45.59,0,1.25-.05,2.02-.19v-2.26c-.67.11-1.2.16-1.65.16-1.47,0-1.97-.61-1.97-2.16v-7.16h3.62v-2.26h-3.62s0-4.42,0-4.42Z"/>
        <path class="cls-4" d="M918.36,111.7c0-1.76.93-3.22,3.44-3.22h1.44v-2.26c-.4-.08-.83-.13-1.22-.13-1.57,0-2.88.67-3.75,2.02v-1.89h-2.56v13.69h2.66v-8.2Z"/>
        <path class="cls-4" d="M929.31,120.96c-.56,1.52-.96,2.16-2.29,2.16-.45,0-1.01-.05-1.65-.16v2.26c.72.13,1.36.21,1.92.21,2.32,0,3.65-1.28,4.74-4.37l5.25-14.86h-2.74l-3.67,11.1-3.67-11.1h-2.88l5.11,14.51s-.11.24-.11.24Z"/>
        <path class="cls-4" d="M956.52,113.05c0-4.85-2.1-7.11-5.94-7.11s-5.94,2.26-5.94,7.11,2.1,7.11,5.94,7.11,5.94-2.26,5.94-7.11ZM947.41,113.05c0-3.41,1.01-4.9,3.17-4.9s3.17,1.49,3.17,4.9-1.01,4.9-3.17,4.9-3.17-1.49-3.17-4.9Z"/>
        <path class="cls-4" d="M963.39,119.9v-11.42h3.83v-2.26h-3.83v-1.76c0-1.55.51-2.16,2.08-2.16.48,0,1.04.05,1.76.16v-2.26c-.8-.13-1.46-.19-2.1-.19-3.38,0-4.39,1.76-4.39,4.45v1.76h-2.82v2.26h2.82v11.42s2.66,0,2.66,0Z"/>
        <polygon class="cls-4" points="988.23 117.45 979.02 117.45 979.02 111.67 987.17 111.67 987.17 109.22 979.02 109.22 979.02 103.71 988.23 103.71 988.23 101.26 976.25 101.26 976.25 119.9 988.23 119.9 988.23 117.45"/>
        <path class="cls-4" d="M995.29,120.16c1.7,0,3.12-.77,4.02-2.4v2.13h2.56v-19.97l-2.66.53v7.43c-.93-1.33-2.24-1.94-3.7-1.94-3.17,0-5.41,2.21-5.41,7.11s1.97,7.11,5.19,7.11h0ZM996.03,108.18c2.16,0,3.17,1.49,3.17,4.87s-1.01,4.87-3.17,4.87-3.17-1.49-3.17-4.87,1.01-4.87,3.17-4.87Z"/>
        <path class="cls-4" d="M1011.16,120.16c3.43,0,5.67-1.89,5.67-5.7v-8.25h-2.66v8.25c0,2.48-1.17,3.49-3.01,3.49s-3.01-1.01-3.01-3.49v-8.25h-2.66v8.25c0,3.81,2.24,5.7,5.67,5.7Z"/>
        <path class="cls-4" d="M1025.64,120.16c3.12,0,5.27-1.62,5.67-5.17h-2.77c-.24,2.02-1.33,2.96-2.9,2.96-2.16,0-3.17-1.49-3.17-4.9s1.01-4.9,3.17-4.9c1.57,0,2.66.93,2.9,2.96h2.77c-.4-3.54-2.45-5.17-5.67-5.17-3.83,0-5.94,2.26-5.94,7.11s2.1,7.11,5.94,7.11Z"/>
        <path class="cls-4" d="M1038.45,112.01c-3.04.21-4.93,1.78-4.93,4.21,0,2.29,1.68,3.94,4.23,3.94,1.65,0,3.41-.67,4.55-2.32v2.05h2.56v-8.63c0-3.41-2.13-5.33-5.46-5.33-3.01,0-5.33,1.92-5.46,4.9h2.72c.11-1.84,1.2-2.74,2.72-2.74,1.65,0,2.82.91,2.82,3.06v.61l-3.76.24h0ZM1042.21,114.22c0,2.82-2.13,3.78-3.89,3.78-1.22,0-2.13-.72-2.13-1.86s.83-2.02,2.56-2.13l3.46-.27v.48h0Z"/>
        <path class="cls-4" d="M1052.27,101.79l-2.66.53v3.89h-2.82v2.26h2.82v7.16c0,2.69,1.01,4.45,4.26,4.45.59,0,1.25-.05,2.02-.19v-2.26c-.67.11-1.2.16-1.65.16-1.47,0-1.97-.61-1.97-2.16v-7.16h3.62v-2.26h-3.62s0-4.42,0-4.42Z"/>
        <rect class="cls-4" x="1059.03" y="106.21" width="2.66" height="13.69"/>
        <rect class="cls-4" x="1058.82" y="101.15" width="3.09" height="3.09"/>
        <path class="cls-4" d="M1070.51,105.94c-3.83,0-5.94,2.26-5.94,7.11s2.1,7.11,5.94,7.11,5.94-2.26,5.94-7.11-2.1-7.11-5.94-7.11ZM1070.51,117.95c-2.16,0-3.17-1.49-3.17-4.9s1.01-4.9,3.17-4.9,3.17,1.49,3.17,4.9-1.01,4.9-3.17,4.9Z"/>
        <path class="cls-4" d="M1088,111.75v8.15h2.66v-8.41c0-3.83-2.05-5.54-4.93-5.54-1.65,0-2.98.72-3.86,2.05v-1.78h-2.56v13.69h2.66v-8.63c0-2.05,1.33-3.06,3.01-3.06,1.78,0,3.01.99,3.01,3.54h0Z"/>
        <polygon class="cls-4" points="1093.91 116.49 1093.91 119.9 1095.25 119.9 1093.7 123.89 1095.62 123.89 1097.32 119.9 1097.32 116.49 1093.91 116.49"/>
        <polygon class="cls-4" points="848.44 149.6 851.21 149.6 851.21 142.57 857.49 130.96 854.43 130.96 849.91 139.77 845.35 130.96 842.16 130.96 848.44 142.57 848.44 149.6"/>
        <path class="cls-4" d="M862.05,135.64c-3.83,0-5.94,2.26-5.94,7.11s2.1,7.11,5.94,7.11,5.94-2.26,5.94-7.11-2.1-7.11-5.94-7.11ZM862.05,147.65c-2.16,0-3.17-1.49-3.17-4.9s1.01-4.9,3.17-4.9,3.17,1.49,3.17,4.9-1.01,4.9-3.17,4.9Z"/>
        <path class="cls-4" d="M879.54,144.16c0,2.48-1.17,3.49-3.01,3.49s-3.01-1.01-3.01-3.49v-8.25h-2.66v8.25c0,3.81,2.24,5.7,5.67,5.7s5.67-1.89,5.67-5.7v-8.25h-2.66v8.25h0Z"/>
        <path class="cls-4" d="M887.42,145.34c0,2.69,1.01,4.45,4.26,4.45.59,0,1.25-.05,2.02-.19v-2.26c-.67.11-1.2.16-1.65.16-1.47,0-1.97-.61-1.97-2.16v-7.16h3.62v-2.26h-3.62v-4.42l-2.66.53v3.89h-2.82v2.26h2.82s0,7.16,0,7.16Z"/>
        <path class="cls-4" d="M899.51,140.97c0-2.05,1.33-3.06,3.01-3.06,1.78,0,3.01.99,3.01,3.54v8.15h2.66v-8.41c0-3.83-2.05-5.54-4.93-5.54-1.6,0-2.88.67-3.75,1.94v-7.96l-2.66.53v19.44h2.66v-8.63h0Z"/>
        <path class="cls-4" d="M922.71,141.71c-3.04.21-4.93,1.78-4.93,4.21,0,2.29,1.68,3.94,4.23,3.94,1.65,0,3.41-.67,4.55-2.32v2.05h2.56v-8.63c0-3.41-2.13-5.33-5.46-5.33-3.01,0-5.33,1.92-5.46,4.9h2.72c.11-1.84,1.2-2.74,2.72-2.74,1.65,0,2.82.91,2.82,3.06v.61l-3.75.24h0ZM926.46,143.92c0,2.82-2.13,3.78-3.89,3.78-1.22,0-2.13-.72-2.13-1.86s.83-2.02,2.56-2.13l3.46-.27v.48h0Z"/>
        <path class="cls-4" d="M935.3,137.69v-1.78h-2.56v13.69h2.66v-8.63c0-2.05,1.33-3.06,3.01-3.06,1.78,0,3.01.99,3.01,3.54v8.15h2.66v-8.41c0-3.83-2.05-5.54-4.93-5.54-1.65,0-2.98.72-3.86,2.05h0Z"/>
        <path class="cls-4" d="M952.15,149.86c1.7,0,3.12-.77,4.02-2.4v2.13h2.56v-19.97l-2.66.53v7.43c-.93-1.33-2.24-1.94-3.7-1.94-3.17,0-5.41,2.21-5.41,7.11s1.97,7.11,5.19,7.11h0ZM952.9,137.88c2.16,0,3.17,1.49,3.17,4.87s-1.01,4.87-3.17,4.87-3.17-1.49-3.17-4.87,1.01-4.87,3.17-4.87Z"/>
        <path class="cls-4" d="M982.11,144.4c0-3.04-1.76-4.53-5.62-5.27l-2-.4c-1.94-.4-2.88-1.12-2.88-2.77,0-1.86,1.57-2.88,3.6-2.88s3.57,1.09,3.81,3.3h2.82c-.27-3.78-2.88-5.7-6.63-5.7s-6.42,2.21-6.42,5.46c0,3.04,1.76,4.45,5.3,5.17l2.02.43c2.18.45,3.17,1.2,3.17,2.85,0,2-1.65,2.88-4.1,2.88-2.26,0-3.86-1.09-4.1-3.3h-2.82c.27,3.78,2.9,5.7,6.92,5.7s6.92-2.21,6.92-5.46h0Z"/>
        <path class="cls-4" d="M991.91,135.64c-1.7,0-3.17.8-4.07,2.42v-2.16h-2.56v19.28l2.66-.53v-6.74c.93,1.33,2.24,1.94,3.7,1.94,3.17,0,5.41-2.21,5.41-7.11s-1.92-7.11-5.14-7.11h0ZM991.11,147.63c-2.16,0-3.17-1.49-3.17-4.87s1.01-4.87,3.17-4.87,3.14,1.49,3.14,4.87-.99,4.87-3.14,4.87Z"/>
        <path class="cls-4" d="M999.44,142.75c0,4.85,2.1,7.11,5.94,7.11s5.94-2.26,5.94-7.11-2.1-7.11-5.94-7.11-5.94,2.26-5.94,7.11ZM1005.38,137.85c2.16,0,3.17,1.49,3.17,4.9s-1.01,4.9-3.17,4.9-3.17-1.49-3.17-4.9,1.01-4.9,3.17-4.9Z"/>
        <path class="cls-4" d="M1016.75,135.91h-2.56v13.69h2.66v-8.2c0-1.76.93-3.22,3.44-3.22h1.44v-2.26c-.4-.08-.83-.13-1.22-.13-1.57,0-2.88.67-3.75,2.02v-1.89Z"/>
        <path class="cls-4" d="M1032.27,149.6v-2.26c-.67.11-1.2.16-1.65.16-1.47,0-1.97-.61-1.97-2.16v-7.16h3.62v-2.26h-3.62v-4.42l-2.66.53v3.89h-2.82v2.26h2.82v7.16c0,2.69,1.01,4.45,4.26,4.45.59,0,1.25-.05,2.02-.19Z"/>
        <path class="cls-4" d="M1045.85,145.68c0-2.24-1.6-3.46-4.18-3.89l-2-.35c-1.57-.27-2.16-.67-2.16-1.76,0-1.15.93-1.92,2.61-1.92,2,0,2.72.88,2.82,2.34h2.66c-.13-2.77-2.05-4.47-5.51-4.47s-5.25,1.89-5.25,4.18,1.54,3.38,4.15,3.81l2.02.35c1.46.24,2.16.72,2.16,1.81,0,1.28-1.15,1.94-3.09,1.94-2.26,0-2.98-.88-3.09-2.34h-2.66c.13,2.82,2.13,4.47,5.75,4.47s5.75-1.78,5.75-4.18h0Z"/>
        <path class="cls-4" d="M848.89,165.34c-3.83,0-5.94,2.26-5.94,7.11s2.1,7.11,5.94,7.11,5.94-2.26,5.94-7.11-2.1-7.11-5.94-7.11ZM848.89,177.35c-2.16,0-3.17-1.49-3.17-4.9s1.01-4.9,3.17-4.9,3.17,1.49,3.17,4.9-1.01,4.9-3.17,4.9Z"/>
        <path class="cls-4" d="M859.04,163.85v1.76h-2.82v2.26h2.82v11.42h2.66v-11.42h3.83v-2.26h-3.83v-1.76c0-1.55.51-2.16,2.08-2.16.48,0,1.04.05,1.76.16v-2.26c-.8-.13-1.47-.19-2.1-.19-3.38,0-4.39,1.76-4.39,4.45Z"/>
        <path class="cls-4" d="M878.02,161.19l-2.66.53v3.89h-2.82v2.26h2.82v7.16c0,2.69,1.01,4.45,4.26,4.45.59,0,1.25-.05,2.02-.19v-2.26c-.67.11-1.2.16-1.65.16-1.47,0-1.97-.61-1.97-2.16v-7.16h3.62v-2.26h-3.62s0-4.42,0-4.42Z"/>
        <path class="cls-4" d="M891.2,165.34c-1.6,0-2.88.67-3.75,1.94v-7.96l-2.66.53v19.44h2.66v-8.63c0-2.05,1.33-3.06,3.01-3.06,1.78,0,3.01.99,3.01,3.54v8.15h2.66v-8.41c0-3.83-2.05-5.54-4.93-5.54h0Z"/>
        <path class="cls-4" d="M904.92,165.34c-3.81,0-5.91,2.26-5.91,7.11s2.1,7.11,5.91,7.11c3.06,0,5.22-1.65,5.54-4.47h-2.77c-.13,1.41-1.2,2.32-2.77,2.32-2.02,0-3.09-1.25-3.17-4.23h8.84c.03-.19.03-.35.03-.51,0-5.06-2.1-7.32-5.7-7.32h0ZM901.78,171.12c.21-2.53,1.25-3.62,3.14-3.62,1.68,0,2.72,1.09,2.93,3.62h-6.07Z"/>
        <path class="cls-4" d="M925.74,162.87c2.13,0,3.52,1.15,4.02,4.1h2.98c-.72-4.47-3.09-6.58-7-6.58-4.69,0-7.22,3.06-7.22,9.59s2.53,9.59,7.22,9.59c3.91,0,6.28-2.1,7-6.58h-2.98c-.51,2.96-1.89,4.1-4.02,4.1-2.77,0-4.23-1.84-4.23-7.11s1.46-7.11,4.23-7.11Z"/>
        <polygon class="cls-4" points="934.87 167.87 941.96 167.87 934.87 177.3 934.87 179.3 945.21 179.3 945.21 177.03 938.12 177.03 945.21 167.61 945.21 165.61 934.87 165.61 934.87 167.87"/>
        <path class="cls-4" d="M953.25,165.34c-3.81,0-5.91,2.26-5.91,7.11s2.1,7.11,5.91,7.11c3.06,0,5.22-1.65,5.54-4.47h-2.77c-.13,1.41-1.2,2.32-2.77,2.32-2.02,0-3.09-1.25-3.17-4.23h8.84c.03-.19.03-.35.03-.51,0-5.06-2.1-7.32-5.7-7.32h0ZM950.1,171.12c.21-2.53,1.25-3.62,3.14-3.62,1.68,0,2.72,1.09,2.93,3.62h-6.07Z"/>
        <path class="cls-4" d="M967.28,167.55c1.57,0,2.66.93,2.9,2.96h2.77c-.4-3.54-2.45-5.17-5.67-5.17-3.83,0-5.94,2.26-5.94,7.11s2.1,7.11,5.94,7.11c3.12,0,5.27-1.62,5.67-5.17h-2.77c-.24,2.02-1.33,2.96-2.9,2.96-2.16,0-3.17-1.49-3.17-4.9s1.01-4.9,3.17-4.9Z"/>
        <path class="cls-4" d="M982.24,165.34c-1.6,0-2.88.67-3.75,1.94v-7.96l-2.66.53v19.44h2.66v-8.63c0-2.05,1.33-3.06,3.01-3.06,1.78,0,3.01.99,3.01,3.54v8.15h2.66v-8.41c0-3.83-2.05-5.54-4.93-5.54h0Z"/>
        <path class="cls-4" d="M1010.89,166.49c0-3.97-2.66-5.83-6.55-5.83h-6.39v18.64h2.77v-6.95h3.62c.19,0,.35,0,.56-.03l3.57,6.98h3.22l-4.05-7.64c1.89-.88,3.25-2.58,3.25-5.17h0ZM1004.34,169.95h-3.62v-6.84h3.62c2.05,0,3.67,1.07,3.67,3.41s-1.62,3.44-3.67,3.44Z"/>
        <path class="cls-4" d="M1018.88,165.34c-3.81,0-5.91,2.26-5.91,7.11s2.1,7.11,5.91,7.11c3.06,0,5.22-1.65,5.54-4.47h-2.77c-.13,1.41-1.2,2.32-2.77,2.32-2.02,0-3.09-1.25-3.17-4.23h8.84c.03-.19.03-.35.03-.51,0-5.06-2.1-7.32-5.7-7.32h0ZM1015.74,171.12c.21-2.53,1.25-3.62,3.14-3.62,1.68,0,2.72,1.09,2.93,3.62h-6.07Z"/>
        <path class="cls-4" d="M1034.09,165.34c-1.7,0-3.17.8-4.07,2.42v-2.16h-2.56v19.28l2.66-.53v-6.74c.93,1.33,2.24,1.94,3.7,1.94,3.17,0,5.41-2.21,5.41-7.11s-1.92-7.11-5.14-7.11h0ZM1033.29,177.32c-2.16,0-3.17-1.49-3.17-4.87s1.01-4.87,3.17-4.87,3.14,1.49,3.14,4.87-.99,4.87-3.14,4.87Z"/>
        <path class="cls-4" d="M1050.78,173.86c0,2.48-1.17,3.49-3.01,3.49s-3.01-1.01-3.01-3.49v-8.25h-2.66v8.25c0,3.81,2.24,5.7,5.67,5.7s5.67-1.89,5.67-5.7v-8.25h-2.66v8.25Z"/>
        <path class="cls-4" d="M1063.7,165.34c-1.65,0-3.06.75-3.97,2.29v-8.31l-2.66.53v19.44h2.56v-1.84c.91,1.38,2.29,2.1,3.81,2.1,3.17,0,5.41-2.21,5.41-7.11s-1.92-7.11-5.14-7.11ZM1062.9,177.32c-2.16,0-3.17-1.49-3.17-4.87s1.01-4.87,3.17-4.87,3.14,1.49,3.14,4.87-.99,4.87-3.14,4.87Z"/>
        <polygon class="cls-4" points="1071.71 179.3 1074.37 179.3 1074.37 159.32 1071.71 159.86 1071.71 179.3"/>
        <rect class="cls-4" x="1077.99" y="165.61" width="2.66" height="13.69"/>
        <rect class="cls-4" x="1077.78" y="160.55" width="3.09" height="3.09"/>
        <path class="cls-4" d="M1089.47,167.55c1.57,0,2.66.93,2.9,2.96h2.77c-.4-3.54-2.45-5.17-5.67-5.17-3.83,0-5.94,2.26-5.94,7.11s2.1,7.11,5.94,7.11c3.12,0,5.27-1.62,5.67-5.17h-2.77c-.24,2.02-1.33,2.96-2.9,2.96-2.16,0-3.17-1.49-3.17-4.9s1.01-4.9,3.17-4.9Z"/>
      </g>
    </g>
  </g>
</svg>