<?xml version="1.0" encoding="UTF-8"?>
<svg id="Vrstva_1" data-name="Vrstva 1" xmlns="http://www.w3.org/2000/svg" viewBox="0 0 2034.16 310.52">
  <defs>
    <style>
      .cls-1 {
        fill: none;
      }

      .cls-2 {
        fill: #ff5d81;
      }

      .cls-3 {
        fill: #164194;
      }

      .cls-4 {
        fill: #575756;
      }

      .cls-5 {
        fill: #fff;
      }

      .cls-6 {
        fill: #ffed00;
      }

      .cls-7 {
        fill: #e30613;
      }

      .cls-8 {
        fill: #008691;
      }

      .cls-9 {
        fill: #040305;
      }

      .cls-10 {
        fill: #004f9f;
      }
    </style>
  </defs>
  <g>
    <path class="cls-9" d="M1677.92,136.79c1.82-1.82,3.98-3.15,6.3-4.15,2.32-.83,4.81-1.33,7.13-1.33,2.99,0,5.81.66,8.46,1.99,2.65,1.33,4.98,3.15,6.8,5.47s2.99,5.14,3.15,8.46v1h-37.66c.33-1.49.66-2.99,1.16-4.15,1.33-2.99,2.82-5.47,4.64-7.3h.02,0ZM1718.56,155.2c1-.83,1.49-1.82,1.49-3.15,0-4.48-1-8.63-2.49-12.28-1.66-3.65-3.65-6.64-6.3-9.29-2.65-2.65-5.64-4.64-9.12-5.97s-6.97-1.99-10.62-1.99c-4.98,0-9.62,1.33-14.1,3.82-4.48,2.65-7.96,6.3-10.78,11.28s-4.15,10.78-4.15,17.75c0,6.3,1.33,11.78,3.98,16.42,2.65,4.81,6.3,8.46,11.11,11.28,4.81,2.65,10.45,4.15,16.92,4.15,4.31,0,8.29-1,12.11-2.82s6.8-3.98,9.12-6.47c1.33-1.16,1.99-2.32,1.99-3.65,0-1.16-.33-2.16-1.16-2.82-.83-.83-1.82-1.16-2.82-1.16s-2.16.33-3.15,1c-1,1.16-2.32,2.16-3.82,3.32-1.49,1-3.32,1.99-5.31,2.65-2.16.66-4.48,1-7.3,1-4.48,0-8.46-1-11.78-2.99s-5.97-4.81-7.8-8.29c-1.66-2.99-2.49-6.47-2.82-10.45h43.63c1.16,0,2.16-.5,3.15-1.33h.02Z"/>
    <path class="cls-9" d="M1783.59,154.87c0-4.64-1-8.63-2.82-12.11s-4.48-6.3-7.63-8.29-6.8-2.99-10.78-2.99-7.8,1-10.95,2.99c-3.15,1.99-5.81,4.81-7.8,8.29s-2.82,7.47-2.82,12.11,1,8.63,2.82,12.11c1.99,3.48,4.48,6.3,7.8,8.29,3.15,1.99,6.97,2.99,10.95,2.99s7.63-1,10.78-2.99c3.32-1.99,5.81-4.81,7.63-8.29,1.82-3.65,2.82-7.63,2.82-12.11h0ZM1793.21,154.87c0,6.3-1.33,11.78-4.15,16.59s-6.47,8.63-11.11,11.45-9.95,4.15-15.76,4.15-11.11-1.33-15.76-4.15-8.46-6.64-11.28-11.45-4.15-10.45-4.15-16.59,1.33-11.78,4.15-16.59,6.47-8.63,11.28-11.45c4.64-2.82,9.95-4.15,15.76-4.15s11.11,1.33,15.76,4.15c4.65,2.82,8.46,6.64,11.11,11.45,2.82,4.81,4.15,10.29,4.15,16.59h0Z"/>
    <path class="cls-9" d="M1803.99,176.11c-.66-1-1-2.16-.83-3.32,0-1.16.66-2.16,1.99-2.99.83-.5,1.82-.83,2.99-.66,1,0,1.99.66,2.99,1.49,2.16,2.65,4.81,4.81,7.63,6.3s6.47,2.32,10.62,2.32c1.82,0,3.65-.33,5.64-1,1.99-.5,3.65-1.49,4.98-2.99,1.33-1.33,1.99-3.32,1.99-5.64,0-2.16-.66-3.98-1.99-5.31s-3.15-2.32-5.31-3.15-4.48-1.66-6.97-2.16c-2.65-.66-5.31-1.49-7.8-2.32s-4.81-1.99-6.97-3.48c-1.99-1.33-3.65-3.15-4.98-5.31-1.16-2.16-1.82-4.81-1.82-7.8,0-3.65,1-6.64,2.99-9.29s4.64-4.64,7.8-6.14c3.32-1.49,6.97-2.16,10.95-2.16,2.16,0,4.64.33,6.97.83,2.49.5,4.81,1.33,7.13,2.65,2.32,1.16,4.31,2.99,6.14,5.14.66.83,1.16,1.82,1.16,2.99s-.5,2.32-1.49,3.32c-.83.66-1.82,1-2.99.83-1.16,0-1.99-.5-2.65-1.16-1.82-2.16-3.82-3.65-6.47-4.81-2.49-1-5.31-1.66-8.29-1.66-1.82,0-3.65.33-5.47.83-1.82.66-3.32,1.49-4.64,2.82-1.16,1.33-1.82,3.15-1.82,5.31s.83,3.98,2.16,5.31,3.15,2.49,5.47,3.32,4.81,1.66,7.63,2.49c2.49.66,4.98,1.33,7.3,2.16s4.48,1.99,6.47,3.32,3.48,3.15,4.48,5.14c1.16,2.16,1.66,4.81,1.66,7.96,0,3.65-1,6.8-3.15,9.46-2.16,2.65-4.81,4.64-8.13,6.14-3.32,1.33-6.97,2.16-10.95,2.16-4.31,0-8.79-.83-13.11-2.49-4.48-1.49-8.13-4.31-11.28-8.46h-.03Z"/>
    <path class="cls-9" d="M1891.75,122.52c4.15,0,7.8.5,11.11,1.33s5.81,2.16,7.8,3.65c1.99,1.49,2.82,3.15,2.82,5.14,0,1.16-.33,2.16-1,3.15-.66,1-1.66,1.49-2.99,1.49-1,0-1.82-.17-2.65-.66-.66-.5-1.33-1-1.99-1.49-.66-.66-1.49-1.16-2.49-1.66s-2.32-.83-4.15-1.33c-1.82-.33-3.65-.5-5.47-.5-4.31,0-8.29,1-11.61,3.15-3.32,2.16-5.97,4.81-7.8,8.46-1.99,3.48-2.82,7.47-2.82,11.94s1,8.46,2.82,11.94,4.31,6.3,7.63,8.46,7.13,3.15,11.45,3.15c2.82,0,4.98-.17,6.64-.66,1.66-.5,2.99-1,4.31-1.66,1.33-.83,2.49-1.66,3.15-2.32.83-.83,1.82-1.16,3.15-1.16s2.49.5,3.15,1.33c.83.83,1.16,1.99,1.16,3.15,0,1.49-1,3.15-2.99,4.64-1.99,1.66-4.64,2.99-8.13,3.98-3.48,1-7.3,1.66-11.45,1.66-6.14,0-11.45-1.49-15.93-4.31s-8.13-6.64-10.62-11.61-3.82-10.45-3.82-16.42,1.33-11.61,3.82-16.42c2.65-4.81,6.14-8.79,10.78-11.61,4.64-3.48,10.12-4.81,16.09-4.81h.03,0Z"/>
    <path class="cls-8" d="M1574.73,127.66c-5.31-3.32-11.28-5.14-17.58-5.14s-12.28,1.82-17.58,5.14c-1,.66-1.82,1.82-1.82,3.15-.17,1.33.33,2.65,1.16,3.48l1.82,1.82c.83.83,1.99,1.33,2.99,1.33.83,0,1.49-.17,2.16-.66,3.32-2.16,7.3-3.15,11.28-3.15s7.8,1.16,11.28,3.15c1.66,1,3.82.83,5.31-.66l1.82-1.82c1-1,1.33-2.16,1.16-3.48-.17-1.33-.83-2.49-1.99-3.15h-.01Z"/>
    <path class="cls-2" d="M1552.34,175.94c-9.79-2.32-16.59-10.95-16.59-21.07,0-3.98,1.16-7.96,3.15-11.28,1-1.66.83-3.65-.66-4.98l-1.82-1.82c-.83-.83-2.16-1.33-3.32-1.16s-2.32.83-2.99,1.82c-3.32,5.14-5.14,11.28-5.14,17.42,0,15.1,10.78,28.37,25.55,31.52.33,0,.5.17.83.17.83,0,1.82-.33,2.49-.83,1-.83,1.49-1.99,1.49-3.15v-2.49c0-1.99-1.33-3.65-2.99-4.15h0Z"/>
    <path class="cls-8" d="M1611.06,122.69c-17.75,0-32.35,14.43-32.35,32.35v.33c-.17,10.12-7.47,18.91-17.42,20.9-1.33.33-2.32,1.49-2.32,2.82v4.98c0,.83.33,1.66,1,2.16s1.49.83,2.32.66c15.59-2.49,27.04-15.93,27.04-31.85,0-11.94,9.62-21.57,21.57-21.57s21.57,9.62,21.57,21.57-9.62,21.57-21.57,21.57c-2.99,0-5.31,2.32-5.31,5.31s2.32,5.31,5.31,5.31c17.75,0,32.35-14.43,32.35-32.35.17-17.75-14.27-32.18-32.18-32.18h-.01,0Z"/>
    <polygon class="cls-9" points="1484.49 219.4 1485.98 219.4 1485.98 90.17 1484.49 90.17 1484.49 219.4"/>
    <path class="cls-9" d="M1274.97,176.77c2.82,0,4.98-.66,6.47-1.99s2.32-3.15,2.32-5.64c0-2.32-.83-4.15-2.32-5.47s-3.65-2.16-6.3-2.16h-9.12v24.72h3.32v-9.79h5.64v.33h0ZM1269.16,164.33h6.14c1.66,0,2.82.5,3.82,1.33s1.33,1.99,1.33,3.48-.5,2.82-1.33,3.65c-1,.83-2.32,1.16-3.98,1.16h-5.81v-9.62h-.17,0ZM1296.2,167.98c-.33-.17-.83-.17-1.33-.17-1.82,0-3.32.83-4.31,2.49v-2.16h-2.99v18.41h3.15v-13.11c.66-1.82,2.16-2.65,4.15-2.65.5,0,1,0,1.49.17l-.17-2.99h.01ZM1298.03,177.27c0,2.82.83,5.14,2.32,6.97,1.49,1.66,3.65,2.65,6.14,2.65,1.66,0,3.15-.33,4.48-1.16s2.32-1.82,2.99-3.32,1-2.99,1-4.81v-.17c0-2.82-.83-5.14-2.32-6.97-1.49-1.66-3.65-2.65-6.14-2.65-1.66,0-2.99.33-4.31,1.16s-2.32,1.82-2.99,3.32c-.66,1.49-1,2.99-1,4.81l-.17.17h0ZM1302.5,172.12c1-1.16,2.16-1.82,3.82-1.82s2.82.66,3.82,1.82c1,1.33,1.49,2.82,1.49,4.98,0,2.32-.5,3.98-1.49,5.31s-2.16,1.82-3.82,1.82-2.82-.66-3.82-1.82-1.49-2.82-1.49-4.98c.17-2.32.66-4.15,1.49-5.31h0ZM1319.92,184.23c1.33,1.66,3.15,2.65,5.31,2.65s3.98-.66,5.14-2.16v1.66c0,1.49-.5,2.82-1.33,3.65s-1.99,1.33-3.65,1.33c-1.99,0-3.65-.83-4.98-2.49l-1.66,1.82c.66,1,1.66,1.82,2.99,2.32s2.65.83,3.98.83c2.32,0,4.31-.66,5.64-1.99,1.49-1.33,2.16-3.32,2.16-5.64v-17.92h-2.82l-.17,1.99c-1.33-1.66-2.99-2.32-5.31-2.32-2.16,0-3.98.83-5.31,2.49s-1.99,3.98-1.99,6.8.66,5.14,1.99,6.97h.01ZM1322.41,172.12c.83-1.16,1.99-1.82,3.65-1.82,1.99,0,3.32.83,4.31,2.65v8.46c-1,1.82-2.32,2.65-4.31,2.65-1.49,0-2.65-.66-3.65-1.82-.83-1.16-1.33-2.82-1.33-4.98s.5-3.98,1.33-5.14h0ZM1347.13,167.98c-.33-.17-.83-.17-1.33-.17-1.82,0-3.32.83-4.31,2.49v-2.16h-3.15v18.41h3.15v-13.11c.66-1.82,2.16-2.65,4.15-2.65.5,0,1,0,1.49.17v-2.99h0ZM1364.05,186.39v-.33c-.5-1-.66-2.32-.66-3.98v-8.46c0-1.82-.66-3.32-1.82-4.31-1.16-1-2.82-1.66-4.98-1.66-1.33,0-2.49.17-3.65.83s-1.99,1.16-2.65,1.99-1,1.82-1,2.65h3.15c0-.83.33-1.49,1.16-1.99s1.66-.83,2.82-.83c1.33,0,2.32.33,2.99,1s1,1.49,1,2.65v1.49h-2.99c-2.65,0-4.64.5-6.14,1.66-1.49,1-2.16,2.49-2.16,4.48,0,1.66.5,2.82,1.82,3.98,1.16,1,2.65,1.49,4.48,1.49,1.99,0,3.82-.83,5.31-2.32.17,1,.33,1.66.5,1.99l2.82-.33h0ZM1352.94,183.24c-.66-.5-1-1.33-1-2.32,0-2.32,1.99-3.32,5.81-3.32h2.49v3.82c-.33.83-1,1.49-1.99,1.99-.83.5-1.82.83-2.82.83-1-.17-1.82-.5-2.49-1h0ZM1368.36,167.98v18.41h3.15v-13.44c.83-1.82,2.16-2.65,4.31-2.65,2.65,0,3.98,1.33,3.98,3.98v12.11h3.15v-12.28c.17-1.16.5-2.16,1.33-2.82s1.66-1,2.99-1c1.49,0,2.49.33,2.99,1,.66.66.83,1.66.83,2.99v12.11h3.15v-12.28c0-4.31-2.16-6.47-6.14-6.47-1.33,0-2.49.33-3.48.83s-1.82,1.33-2.32,2.16c-1-1.99-2.65-2.99-5.31-2.99-2.32,0-4.15.83-5.47,2.32l-.17-1.99h-2.99ZM1398.89,167.98v18.41h3.15v-13.44c.83-1.82,2.16-2.65,4.31-2.65,2.65,0,3.98,1.33,3.98,3.98v12.11h3.15v-12.28c.17-1.16.5-2.16,1.33-2.82s1.82-1,2.99-1c1.49,0,2.49.33,2.99,1,.66.66.83,1.66.83,2.99v12.11h3.15v-12.28c0-4.31-2.16-6.47-6.14-6.47-1.33,0-2.49.33-3.48.83s-1.82,1.33-2.32,2.16c-1-1.99-2.65-2.99-5.31-2.99-2.32,0-4.15.83-5.47,2.32l-.17-1.99h-2.99ZM1444.18,183.24l-1.99-1.49c-.5.83-1.33,1.33-1.99,1.82-.83.5-1.66.66-2.82.66-1.49,0-2.82-.5-3.82-1.66s-1.49-2.65-1.66-4.48h12.44v-1.33c0-2.99-.66-5.14-1.99-6.8s-3.15-2.32-5.64-2.32c-1.49,0-2.82.33-4.15,1.16s-2.16,1.99-2.99,3.32c-.66,1.49-1,3.15-1,4.98v.5c0,2.82.83,4.98,2.32,6.64s3.65,2.49,6.14,2.49c3.15,0,5.47-1.16,7.13-3.48h.02ZM1439.86,171.63c.83.83,1.16,2.16,1.33,3.65v.17h-9.29c.17-1.66.66-2.99,1.66-3.82.83-1,1.99-1.33,3.15-1.33,1.33,0,2.32.33,3.15,1.33h0Z"/>
    <path class="cls-9" d="M1233,120.86h-3.32v19.24l-12.44-19.24h-3.32v24.72h3.32v-19.08l12.44,19.08h3.32v-24.72h0ZM1252.9,145.75v-.33c-.5-1-.66-2.32-.66-3.98v-8.46c0-1.82-.66-3.32-1.82-4.31s-2.82-1.66-4.98-1.66c-1.33,0-2.49.17-3.65.83s-1.99,1.16-2.65,1.99-1,1.82-1,2.65h3.15c0-.83.33-1.49,1.16-1.99s1.66-.83,2.82-.83c1.33,0,2.32.33,2.99,1,.66.66,1,1.49,1,2.65v1.49h-2.99c-2.65,0-4.64.5-6.14,1.66-1.49,1-2.16,2.49-2.16,4.48,0,1.66.66,2.82,1.82,3.98,1.16,1,2.65,1.49,4.48,1.49,1.99,0,3.82-.83,5.31-2.32.17,1,.33,1.66.5,1.99l2.82-.33h0ZM1241.95,142.43c-.66-.5-1-1.33-1-2.32,0-2.32,1.99-3.32,5.81-3.32h2.49v3.82c-.33.83-1,1.49-1.99,1.99-.83.5-1.82.83-2.82.83-1-.17-1.82-.33-2.49-1h0ZM1258.38,122.85v4.48h-3.32v2.49h3.32v11.45c0,1.49.33,2.82,1,3.65s1.82,1.33,3.15,1.33c.83,0,1.66-.17,2.49-.33v-2.49c-.66.17-1.16.17-1.49.17-.66,0-1.33-.17-1.49-.5-.33-.33-.5-1-.5-1.66v-11.45h3.48v-2.49h-3.48v-4.48l-3.15-.17s-.01,0-.01,0ZM1272.15,127.33h-3.15v18.41h3.15v-18.41h0ZM1269.16,123.68c.33.33.83.5,1.33.5.66,0,1-.17,1.33-.5s.5-.83.5-1.33-.17-1-.5-1.33-.83-.5-1.33-.5c-.66,0-1,.17-1.33.5s-.5.83-.5,1.33.17,1,.5,1.33h0ZM1276.29,136.62c0,2.82.83,5.14,2.32,6.97,1.49,1.66,3.65,2.65,6.14,2.65,1.66,0,3.15-.33,4.48-1.16s2.32-1.82,2.99-3.32,1-2.99,1-4.81v-.17c0-2.82-.83-5.14-2.32-6.97-1.49-1.66-3.65-2.65-6.14-2.65-1.66,0-2.99.33-4.31,1.16-1.32.83-2.32,1.82-2.99,3.32-.66,1.49-1,2.99-1,4.81l-.17.17h0ZM1280.94,131.48c1-1.16,2.16-1.82,3.82-1.82s2.82.66,3.82,1.82c1,1.33,1.49,2.82,1.49,4.98,0,2.32-.5,3.98-1.49,5.31-1,1.33-2.16,1.82-3.82,1.82s-2.82-.66-3.82-1.82-1.49-2.82-1.49-4.98c0-2.32.5-4.15,1.49-5.31h0ZM1297.03,127.33v18.41h3.15v-13.11c.5-.83,1-1.66,1.82-2.16s1.66-.83,2.65-.83c1.33,0,2.16.33,2.82,1,.66.66.83,1.66.83,2.99v12.28h3.15v-12.11c0-4.31-1.99-6.64-5.97-6.64-2.32,0-4.15.83-5.47,2.65l-.17-2.32h-2.82v-.17h.01ZM1330.87,145.75v-.33c-.5-1-.66-2.32-.66-3.98v-8.46c0-1.82-.66-3.32-1.82-4.31-1.16-1-2.82-1.66-4.98-1.66-1.33,0-2.49.17-3.65.83-1.16.5-1.99,1.16-2.65,1.99s-1,1.82-1,2.65h3.15c0-.83.33-1.49,1.16-1.99s1.66-.83,2.82-.83c1.33,0,2.32.33,2.99,1s1,1.49,1,2.65v1.49h-2.99c-2.65,0-4.64.5-6.14,1.66-1.49,1-2.16,2.49-2.16,4.48,0,1.66.66,2.82,1.82,3.98,1.16,1,2.65,1.49,4.48,1.49,1.99,0,3.82-.83,5.31-2.32.17,1,.33,1.66.5,1.99l2.82-.33h0ZM1319.92,142.43c-.66-.5-1-1.33-1-2.32,0-2.32,1.99-3.32,5.81-3.32h2.49v3.82c-.33.83-1,1.49-1.99,1.99-.83.5-1.82.83-2.82.83-1-.17-1.82-.33-2.49-1h0ZM1338.67,119.54h-3.15v26.21h3.15v-26.21h0ZM1367.7,137.95c-.33,1.99-1,3.48-1.99,4.31-1,.83-2.32,1.16-4.15,1.16-1.99,0-3.65-.83-4.64-2.32-1.16-1.66-1.66-3.82-1.66-6.47v-2.49c0-2.82.66-4.98,1.82-6.64,1.16-1.49,2.82-2.32,4.98-2.32,1.66,0,2.99.5,3.98,1.33,1,.83,1.49,2.32,1.82,4.31h3.32c-.33-2.65-1.16-4.64-2.82-6.14s-3.65-2.16-6.3-2.16c-1.99,0-3.82.5-5.31,1.33-1.49,1-2.65,2.32-3.48,3.98-.83,1.82-1.16,3.82-1.16,6.14v2.32c0,3.48.83,6.3,2.65,8.46s4.15,3.15,6.97,3.15c2.65,0,4.81-.66,6.47-2.16s2.65-3.48,2.99-6.14h-3.48v.35h0ZM1388.27,129.49v-2.16h-13.93v2.65h9.95l-10.12,13.44v2.32h14.6v-2.65h-10.78l10.29-13.6h-.01,0ZM1406.68,142.6l-1.99-1.49c-.5.83-1.33,1.33-1.99,1.82-.83.5-1.66.66-2.82.66-1.49,0-2.82-.5-3.82-1.66s-1.49-2.65-1.66-4.48h12.44v-1.33c0-2.99-.66-5.14-1.99-6.8s-3.15-2.32-5.64-2.32c-1.49,0-2.82.33-4.15,1.16-1.33.83-2.16,1.99-2.99,3.32s-1,3.15-1,4.98v.5c0,2.82.83,4.98,2.32,6.64s3.65,2.49,6.14,2.49c3.15,0,5.47-1.16,7.13-3.48h.02ZM1402.37,130.82c.83.83,1.16,2.16,1.33,3.65v.17h-9.29c.17-1.66.66-2.99,1.66-3.82.83-1,1.99-1.33,3.15-1.33,1.33,0,2.49.5,3.15,1.33h0ZM1414.15,141.77c-.83-1.16-1.33-2.82-1.33-4.98v-.66c0-2.16.5-3.82,1.33-4.98s2.16-1.66,3.65-1.66c1.16,0,2.16.33,2.99,1.16s1.33,1.82,1.33,2.99h2.99c-.17-1.99-.83-3.65-2.16-4.81s-3.15-1.82-5.14-1.82c-1.66,0-3.15.33-4.31,1.16-1.16.83-2.16,1.82-2.82,3.32-.66,1.33-1,2.99-1,4.81v.5c0,2.99.66,5.14,2.16,6.8,1.49,1.66,3.48,2.49,5.97,2.49,1.33,0,2.49-.33,3.48-.83,1.16-.5,1.99-1.33,2.65-2.32.66-1,1-1.99,1.16-2.99h-2.99c-.17,1-.5,1.82-1.33,2.49s-1.82,1-2.99,1c-1.49,0-2.82-.5-3.65-1.66h.01ZM1431.9,119.54h-3.15v26.21h3.15v-13.11c.5-.83,1-1.66,1.82-2.16s1.66-.83,2.65-.83c1.33,0,2.16.33,2.82,1,.66.66.83,1.66.83,2.99v12.28h3.15v-12.11c0-4.31-1.99-6.64-5.97-6.64-2.16,0-3.98.83-5.47,2.65v-10.29h.17Z"/>
    <rect class="cls-1" x="1093.24" y="-.06" width="941.5" height="310.93"/>
  </g>
  <g>
    <rect class="cls-5" x="62.39" y="86.91" width="201.73" height="136.99"/>
    <rect class="cls-3" x="66.27" y="90.67" width="193.97" height="129.32"/>
    <polygon class="cls-6" points="159.12 118.84 163.21 115.86 167.31 118.84 165.75 114.01 169.9 111.02 164.78 111.02 163.21 106.13 161.65 111.03 156.52 111.02 160.68 114.01 159.12 118.84"/>
    <polygon class="cls-6" points="137.94 124.53 142.03 121.55 146.12 124.53 144.57 119.7 148.72 116.71 143.6 116.71 142.03 111.82 140.46 116.72 135.34 116.71 139.49 119.7 137.94 124.53"/>
    <polygon class="cls-6" points="126.53 127.35 124.96 132.25 119.84 132.25 124 135.23 122.44 140.07 126.53 137.08 130.63 140.07 129.07 135.23 133.22 132.25 128.1 132.25 126.53 127.35"/>
    <polygon class="cls-6" points="120.85 158.23 124.94 161.22 123.38 156.39 127.54 153.4 122.42 153.4 120.85 148.51 119.28 153.42 114.15 153.4 118.31 156.39 116.76 161.22 120.85 158.23"/>
    <polygon class="cls-6" points="128.1 174.62 126.53 169.73 124.96 174.63 119.84 174.62 124 177.61 122.44 182.44 126.53 179.45 130.62 182.44 129.07 177.61 133.22 174.62 128.1 174.62"/>
    <polygon class="cls-6" points="143.63 190.15 142.06 185.26 140.49 190.16 135.37 190.15 139.53 193.14 137.97 197.97 142.06 194.98 146.15 197.97 144.6 193.14 148.75 190.15 143.63 190.15"/>
    <polygon class="cls-6" points="164.79 195.78 163.22 190.88 161.65 195.78 156.53 195.78 160.68 198.76 159.12 203.6 163.22 200.61 167.31 203.6 165.75 198.76 169.91 195.78 164.79 195.78"/>
    <polygon class="cls-6" points="185.94 190.15 184.37 185.26 182.81 190.16 177.68 190.15 181.84 193.14 180.28 197.97 184.37 194.98 188.46 197.97 186.91 193.14 191.06 190.15 185.94 190.15"/>
    <polygon class="cls-6" points="201.47 174.62 199.9 169.73 198.33 174.63 193.21 174.62 197.37 177.61 195.81 182.44 199.9 179.45 203.99 182.44 202.44 177.61 206.59 174.62 201.47 174.62"/>
    <polygon class="cls-6" points="212.22 153.35 207.09 153.35 205.52 148.45 203.96 153.35 198.83 153.35 202.99 156.33 201.44 161.17 205.52 158.17 209.62 161.17 208.06 156.33 212.22 153.35"/>
    <polygon class="cls-6" points="195.81 140 199.9 137.02 203.99 140 202.44 135.17 206.59 132.19 201.47 132.19 199.9 127.3 198.33 132.19 193.21 132.19 197.36 135.17 195.81 140"/>
    <polygon class="cls-6" points="184.43 111.83 182.87 116.73 177.74 116.72 181.89 119.71 180.34 124.54 184.44 121.55 188.52 124.54 186.97 119.71 191.13 116.72 186 116.72 184.43 111.83"/>
    <path class="cls-3" d="M298.92,138.38c1.09.16,2.29.25,3.61.25,3.92,0,6.9-.79,8.93-2.36,2.04-1.58,3.06-3.81,3.06-6.69,0-1.5-.22-2.78-.64-3.83-.43-1.06-1.05-1.98-1.86-2.76-.81-.78-1.81-1.45-2.99-2.02-1.18-.57-2.52-1.13-4.02-1.68-.86-.31-1.65-.63-2.37-.96-.72-.34-1.35-.71-1.88-1.1-.53-.4-.95-.85-1.24-1.35-.29-.51-.43-1.11-.43-1.82,0-1.16.43-2.07,1.31-2.71.87-.64,2.09-.96,3.66-.96,1.32,0,2.59.15,3.83.46,1.24.31,2.38.75,3.42,1.33l1.79-4.69c-.89-.52-2.11-1-3.66-1.45-1.55-.44-3.31-.67-5.3-.67-3.43,0-6.14.82-8.13,2.46-1.99,1.64-2.99,3.89-2.99,6.77,0,1.38.24,2.56.71,3.54.47.98,1.1,1.82,1.88,2.53.78.7,1.68,1.29,2.71,1.77,1.03.47,2.09.91,3.19,1.31,1.1.37,2.08.74,2.94,1.13.86.38,1.58.8,2.18,1.24.6.44,1.06.94,1.38,1.49.32.55.48,1.21.48,1.97,0,1.29-.47,2.28-1.42,2.99-.95.7-2.46,1.05-4.55,1.05s-3.69-.23-5.1-.69c-1.41-.46-2.53-.92-3.35-1.38l-1.7,4.73c.37.22.86.45,1.47.72.61.26,1.34.51,2.18.76.84.25,1.81.45,2.9.62"/>
    <path class="cls-3" d="M337.69,116.79c-1.06-1.08-2.33-1.92-3.84-2.5-1.5-.58-3.2-.87-5.1-.87s-3.58.14-5.24.41c-1.65.28-3.05.57-4.18.87v31.74h5.56v-9.32c.61.34,1.39.64,2.34.92.95.28,1.99.41,3.12.41,1.68,0,3.19-.31,4.52-.92,1.33-.61,2.44-1.47,3.33-2.57.89-1.1,1.57-2.42,2.04-3.95.47-1.53.71-3.22.71-5.05,0-1.93-.29-3.67-.85-5.22-.57-1.55-1.38-2.86-2.43-3.95M333.88,131.61c-.93,1.38-2.41,2.07-4.43,2.07-.92,0-1.78-.14-2.6-.44-.81-.29-1.46-.6-1.95-.94v-13.73c.55-.15,1.11-.25,1.68-.3.57-.04,1.11-.07,1.63-.07,2.48,0,4.28.69,5.4,2.07,1.12,1.38,1.68,3.31,1.68,5.79,0,2.33-.47,4.18-1.4,5.56"/>
    <path class="cls-3" d="M367.62,131.1c.55-1.56.83-3.29.83-5.19s-.28-3.62-.85-5.17c-.57-1.55-1.36-2.87-2.37-3.98-1.01-1.1-2.23-1.96-3.65-2.55-1.42-.6-2.98-.9-4.66-.9s-3.23.3-4.64.9c-1.41.59-2.63,1.45-3.66,2.55s-1.82,2.43-2.39,3.98c-.56,1.55-.85,3.27-.85,5.17s.29,3.63.85,5.19c.57,1.56,1.36,2.9,2.37,4,1.01,1.1,2.22,1.96,3.63,2.57,1.41.61,2.97.92,4.69.92s3.29-.31,4.71-.92c1.42-.61,2.64-1.47,3.65-2.57,1.01-1.1,1.79-2.44,2.34-4M361.21,131.65c-1.03,1.41-2.46,2.11-4.3,2.11s-3.27-.7-4.29-2.11c-1.03-1.41-1.54-3.32-1.54-5.74s.51-4.28,1.54-5.68c1.02-1.39,2.46-2.09,4.29-2.09s3.27.7,4.3,2.09c1.03,1.4,1.54,3.29,1.54,5.68s-.51,4.34-1.54,5.74"/>
    <path class="cls-3" d="M375.84,136.41c.64.63,1.51,1.11,2.6,1.45,1.09.34,2.46.52,4.11.55l.78-4.59c-.74-.09-1.34-.22-1.81-.39-.47-.17-.85-.41-1.12-.74-.28-.32-.47-.71-.58-1.17-.11-.46-.16-1.03-.16-1.7v-27.52l-5.56.92v27.66c0,1.19.13,2.26.39,3.2.26.93.71,1.71,1.35,2.34"/>
    <path class="cls-3" d="M397.71,138.5c2.05,0,3.94-.14,5.65-.43,1.71-.29,3.11-.58,4.18-.85v-23.29h-5.56v19.43c-.37.09-.92.17-1.68.23-.75.06-1.46.09-2.14.09-1.87,0-3.18-.55-3.93-1.65-.75-1.1-1.13-2.94-1.13-5.51v-12.59h-5.56v13.46c0,1.62.17,3.12.51,4.48.34,1.36.9,2.53,1.68,3.51.78.98,1.82,1.75,3.12,2.3,1.3.55,2.92.83,4.85.83"/>
    <rect class="cls-3" x="433.18" y="113.92" width="5.56" height="24.03"/>
    <path class="cls-3" d="M420.18,118.56h8.82v-4.64h-8.82v-1.61c0-1.56.35-2.83,1.03-3.81.69-.98,1.95-1.47,3.79-1.47.71,0,1.35.06,1.96.18.59.12,1.11.26,1.54.41l.87-4.5c-.46-.18-1.1-.37-1.9-.55-.81-.18-1.8-.27-2.97-.27-3.34,0-5.82.87-7.44,2.62-1.62,1.74-2.44,4.18-2.44,7.3v25.73h5.56v-19.39h0Z"/>
    <path class="cls-3" d="M435.98,110.29c.92,0,1.72-.31,2.39-.92.67-.61,1.01-1.44,1.01-2.48s-.34-1.92-1.01-2.53c-.67-.61-1.47-.92-2.39-.92s-1.76.31-2.43.92c-.67.61-1.01,1.45-1.01,2.53s.34,1.87,1.01,2.48c.67.61,1.48.92,2.43.92"/>
    <path class="cls-3" d="M465.93,137.95v-13.51c0-1.62-.16-3.11-.48-4.48-.32-1.36-.87-2.52-1.65-3.49-.78-.97-1.83-1.71-3.15-2.25-1.32-.54-2.95-.8-4.92-.8-2.08,0-3.98.14-5.7.41s-3.11.57-4.18.87v23.25h5.56v-19.39c.37-.06.93-.14,1.7-.23s1.5-.14,2.21-.14c.95,0,1.76.13,2.41.39.66.26,1.18.67,1.56,1.24.38.56.66,1.3.83,2.21.16.9.25,2,.25,3.28v12.63h5.56Z"/>
    <path class="cls-3" d="M490.46,122.83c0-1.41-.16-2.7-.48-3.88-.32-1.18-.86-2.18-1.61-3.01-.75-.83-1.76-1.47-3.01-1.93-1.26-.46-2.8-.69-4.64-.69-1.54,0-2.97.12-4.32.37-1.35.25-2.37.49-3.08.74l.69,4.5c.67-.25,1.55-.46,2.62-.64,1.07-.18,2.25-.27,3.54-.27.95,0,1.74.12,2.37.37.63.24,1.13.59,1.52,1.03.38.45.65.96.81,1.54.15.58.23,1.19.23,1.84v.92c-.77-.18-1.48-.31-2.16-.39-.67-.08-1.32-.12-1.93-.12-1.32,0-2.58.13-3.79.39-1.21.26-2.28.69-3.19,1.29-.92.6-1.65,1.37-2.18,2.32-.54.95-.8,2.11-.8,3.49s.24,2.65.71,3.63c.47.98,1.13,1.78,1.97,2.39.84.62,1.86,1.06,3.06,1.33,1.19.28,2.51.41,3.95.41,2.17,0,4.13-.13,5.86-.39,1.73-.26,3.02-.48,3.88-.67v-14.56ZM485.09,133.77c-.89.18-2.19.27-3.91.27-1.41,0-2.53-.25-3.35-.76-.83-.51-1.24-1.42-1.24-2.73,0-.67.15-1.23.46-1.68.31-.44.71-.79,1.22-1.03.51-.25,1.07-.41,1.7-.51.62-.09,1.25-.14,1.86-.14.71,0,1.35.05,1.93.14.58.09,1.03.18,1.33.28v6.15Z"/>
    <path class="cls-3" d="M515.21,116.47c-.78-.96-1.83-1.71-3.15-2.25-1.32-.54-2.96-.8-4.92-.8-2.08,0-3.98.14-5.7.41-1.72.28-3.11.57-4.18.87v23.25h5.56v-19.39c.37-.06.93-.14,1.7-.23.76-.09,1.5-.14,2.21-.14.95,0,1.76.13,2.41.39.66.26,1.18.67,1.56,1.24.38.57.66,1.3.83,2.21.16.9.25,2,.25,3.28v12.63h5.56v-13.51c0-1.62-.16-3.11-.48-4.48-.33-1.36-.87-2.52-1.65-3.49"/>
    <path class="cls-3" d="M534.89,138.54c1.31,0,2.59-.12,3.84-.37,1.24-.25,2.17-.52,2.78-.83l-.78-4.59c-.67.27-1.47.51-2.39.69-.92.18-1.85.28-2.8.28-2.54,0-4.35-.7-5.42-2.09-1.07-1.4-1.61-3.29-1.61-5.67s.57-4.4,1.7-5.77c1.13-1.36,2.79-2.05,4.96-2.05.92,0,1.78.09,2.6.27.81.18,1.54.41,2.18.69l1.19-4.55c-2.02-.83-4.17-1.24-6.43-1.24-1.84,0-3.49.32-4.96.96-1.47.64-2.72,1.53-3.75,2.66-1.03,1.13-1.81,2.48-2.36,4.02-.55,1.54-.83,3.21-.83,4.98s.24,3.48.73,5.03c.49,1.54,1.23,2.88,2.23,4,1,1.12,2.25,1.99,3.77,2.62,1.52.62,3.3.94,5.35.94"/>
    <path class="cls-3" d="M560.23,137.67c1.42-.61,2.64-1.47,3.66-2.57,1.01-1.1,1.79-2.44,2.34-4,.55-1.56.83-3.29.83-5.19s-.29-3.62-.85-5.17c-.57-1.55-1.36-2.87-2.37-3.98s-2.22-1.96-3.65-2.55c-1.43-.6-2.98-.9-4.67-.9s-3.23.3-4.64.9c-1.41.59-2.63,1.45-3.66,2.55s-1.82,2.43-2.39,3.98c-.57,1.55-.85,3.27-.85,5.17s.28,3.63.85,5.19c.57,1.56,1.35,2.9,2.37,4,1.01,1.1,2.22,1.96,3.63,2.57,1.41.61,2.97.92,4.68.92s3.29-.31,4.71-.92M551.22,131.65c-1.03-1.41-1.54-3.32-1.54-5.74s.51-4.28,1.54-5.68c1.03-1.39,2.46-2.09,4.29-2.09s3.27.7,4.3,2.09c1.03,1.4,1.54,3.29,1.54,5.68s-.51,4.34-1.54,5.74c-1.03,1.41-2.46,2.11-4.3,2.11s-3.27-.7-4.29-2.11"/>
    <path class="cls-3" d="M585.38,118.26c-.46,1.55-.95,3.1-1.45,4.64-.51,1.55-1.02,3.05-1.54,4.51-.52,1.46-1.02,2.76-1.48,3.93-.46-1.16-.96-2.47-1.5-3.93-.54-1.45-1.06-2.95-1.57-4.51-.51-1.54-.99-3.09-1.43-4.64-.45-1.54-.84-2.99-1.18-4.34h-5.93c1.32,4.69,2.79,9.07,4.41,13.16,1.61,4.09,3.19,7.71,4.73,10.86h4.75c1.54-3.15,3.11-6.77,4.73-10.86,1.61-4.09,3.08-8.48,4.4-13.16h-5.75c-.34,1.35-.74,2.8-1.2,4.34"/>
    <polygon class="cls-3" points="611.34 104.09 607.84 100.83 601.09 108.87 603.84 111.35 611.34 104.09"/>
    <path class="cls-3" d="M612.05,115.94c-.75-.83-1.76-1.47-3.01-1.93s-2.8-.69-4.64-.69c-1.53,0-2.97.12-4.32.37-1.35.25-2.37.49-3.08.74l.69,4.5c.67-.25,1.55-.46,2.61-.64,1.08-.18,2.25-.27,3.54-.27.95,0,1.74.12,2.37.37.63.24,1.13.59,1.52,1.03.38.45.65.96.81,1.54.15.58.23,1.19.23,1.84v.92c-.77-.18-1.48-.31-2.16-.39-.68-.08-1.32-.12-1.93-.12-1.32,0-2.58.13-3.79.39-1.21.26-2.28.69-3.19,1.29-.92.6-1.65,1.37-2.18,2.32-.54.95-.81,2.11-.81,3.49s.24,2.65.71,3.63c.48.98,1.13,1.78,1.98,2.39.84.62,1.86,1.06,3.05,1.33,1.2.28,2.51.41,3.95.41,2.17,0,4.13-.13,5.86-.39,1.73-.26,3.02-.48,3.88-.67v-14.56c0-1.41-.16-2.7-.48-3.88-.32-1.18-.86-2.18-1.61-3.01M608.76,133.77c-.89.18-2.19.27-3.91.27-1.41,0-2.53-.25-3.35-.76-.83-.51-1.25-1.42-1.25-2.73,0-.67.15-1.23.46-1.68.3-.44.71-.79,1.22-1.03s1.07-.41,1.7-.51c.63-.09,1.25-.14,1.86-.14.7,0,1.35.05,1.93.14.58.09,1.03.18,1.34.28v6.15Z"/>
    <path class="cls-3" d="M638.88,116.47c-.78-.96-1.83-1.71-3.15-2.25-1.32-.54-2.96-.8-4.92-.8-2.08,0-3.98.14-5.7.41-1.71.28-3.11.57-4.18.87v23.25h5.56v-19.39c.37-.06.94-.14,1.7-.23.76-.09,1.5-.14,2.21-.14.95,0,1.75.13,2.41.39.66.26,1.18.67,1.57,1.24.38.57.65,1.3.82,2.21s.25,2,.25,3.28v12.63h5.56v-13.51c0-1.62-.16-3.11-.48-4.48-.32-1.36-.87-2.52-1.65-3.49"/>
    <path class="cls-3" d="M668.69,120.74c-.57-1.55-1.36-2.87-2.37-3.98-1.01-1.1-2.23-1.96-3.65-2.55-1.42-.6-2.98-.9-4.66-.9s-3.23.3-4.64.9c-1.41.59-2.63,1.45-3.65,2.55-1.03,1.1-1.82,2.43-2.39,3.98-.56,1.55-.85,3.27-.85,5.17s.29,3.63.85,5.19c.57,1.56,1.36,2.9,2.37,4,1.01,1.1,2.22,1.96,3.63,2.57,1.41.61,2.97.92,4.69.92s3.29-.31,4.71-.92c1.42-.61,2.64-1.47,3.65-2.57,1.01-1.1,1.79-2.44,2.34-4,.55-1.56.83-3.29.83-5.19s-.28-3.62-.85-5.17M662.31,131.65c-1.03,1.41-2.46,2.11-4.3,2.11s-3.27-.7-4.3-2.11c-1.03-1.41-1.54-3.32-1.54-5.74s.51-4.28,1.54-5.68c1.03-1.39,2.46-2.09,4.3-2.09s3.27.7,4.3,2.09c1.03,1.4,1.54,3.29,1.54,5.68s-.51,4.34-1.54,5.74"/>
    <polygon class="cls-3" points="300.59 178.83 313.64 178.83 313.64 174.01 300.59 174.01 300.59 166.16 315.25 166.16 315.25 161.24 294.81 161.24 294.81 193.08 316.35 193.08 316.35 188.16 300.59 188.16 300.59 178.83"/>
    <path class="cls-3" d="M333.57,173.39c-.46,1.55-.95,3.1-1.45,4.64-.51,1.55-1.02,3.05-1.55,4.51-.52,1.46-1.01,2.76-1.48,3.93-.46-1.16-.96-2.47-1.5-3.93-.54-1.45-1.06-2.95-1.57-4.51-.51-1.54-.99-3.09-1.43-4.64-.44-1.54-.84-2.99-1.17-4.34h-5.93c1.32,4.69,2.79,9.07,4.41,13.16,1.61,4.09,3.19,7.71,4.72,10.86h4.75c1.54-3.15,3.11-6.77,4.73-10.86,1.61-4.09,3.08-8.48,4.4-13.16h-5.74c-.34,1.35-.74,2.8-1.2,4.34"/>
    <path class="cls-3" d="M356.73,168.8c-.49-.07-.98-.14-1.47-.18-.49-.05-.92-.07-1.29-.07-1.96,0-3.74.18-5.35.53-1.61.35-2.95.73-4.02,1.12v22.88h5.56v-19.25c.28-.09.76-.2,1.45-.32.69-.12,1.34-.18,1.96-.18,1.07,0,2.01.09,2.83.25.81.17,1.45.33,1.9.48l.96-4.69c-.27-.09-.64-.19-1.1-.3s-.93-.2-1.42-.28"/>
    <path class="cls-3" d="M381.63,171.9c-1.01-1.1-2.23-1.96-3.65-2.55-1.42-.6-2.98-.9-4.66-.9s-3.23.3-4.64.9c-1.41.59-2.63,1.45-3.66,2.55-1.03,1.1-1.82,2.43-2.39,3.98-.57,1.55-.85,3.27-.85,5.17s.29,3.63.85,5.19c.57,1.56,1.35,2.9,2.36,4,1.01,1.1,2.22,1.96,3.63,2.57,1.41.61,2.97.92,4.69.92s3.29-.31,4.71-.92c1.42-.61,2.64-1.47,3.65-2.57,1.01-1.1,1.79-2.44,2.34-4,.55-1.56.83-3.29.83-5.19s-.28-3.62-.85-5.17c-.57-1.55-1.36-2.87-2.37-3.98M377.61,186.78c-1.03,1.41-2.46,2.11-4.3,2.11s-3.27-.7-4.29-2.11c-1.03-1.41-1.54-3.32-1.54-5.74s.51-4.28,1.54-5.68c1.02-1.39,2.46-2.09,4.29-2.09s3.27.7,4.3,2.09c1.03,1.4,1.54,3.29,1.54,5.68s-.51,4.34-1.54,5.74"/>
    <path class="cls-3" d="M408.95,171.92c-1.06-1.08-2.34-1.92-3.84-2.5-1.5-.58-3.2-.87-5.1-.87s-3.58.14-5.24.41c-1.65.28-3.05.57-4.18.87v31.74h5.56v-9.32c.61.34,1.39.64,2.34.92.95.27,1.99.41,3.12.41,1.68,0,3.19-.31,4.52-.92,1.33-.61,2.44-1.47,3.33-2.57.89-1.1,1.57-2.42,2.04-3.95s.71-3.22.71-5.05c0-1.93-.29-3.67-.85-5.22-.57-1.55-1.38-2.86-2.43-3.95M405.13,186.74c-.93,1.38-2.41,2.07-4.43,2.07-.92,0-1.79-.14-2.6-.44-.81-.29-1.46-.6-1.95-.94v-13.74c.55-.15,1.11-.25,1.68-.3.57-.04,1.11-.07,1.63-.07,2.48,0,4.28.69,5.4,2.07,1.12,1.38,1.68,3.31,1.68,5.79,0,2.33-.47,4.18-1.4,5.56"/>
    <path class="cls-3" d="M432.05,181.89c-.6-.6-1.35-1.13-2.27-1.61-.92-.47-2.04-.96-3.35-1.45-.8-.27-1.47-.54-2.02-.8-.55-.26-1-.52-1.33-.78-.34-.26-.58-.54-.71-.85-.14-.31-.2-.66-.2-1.06,0-.8.35-1.38,1.06-1.77.7-.38,1.62-.57,2.76-.57,1.25,0,2.36.11,3.31.34.95.23,1.73.48,2.34.76l1.01-4.5c-.64-.25-1.61-.5-2.89-.76-1.29-.26-2.63-.39-4.04-.39-2.79,0-4.99.64-6.61,1.91-1.62,1.27-2.44,3.01-2.44,5.21,0,1.13.17,2.09.53,2.87.35.78.83,1.44,1.45,1.99.61.55,1.34,1.04,2.18,1.45.84.41,1.77.8,2.78,1.17,1.65.61,2.84,1.18,3.56,1.7.72.52,1.08,1.18,1.08,1.97,0,.86-.34,1.46-1.01,1.82-.67.35-1.74.52-3.22.52s-2.78-.15-3.93-.46c-1.15-.31-2.14-.62-2.96-.96l-.96,4.64c.52.22,1.42.5,2.71.85,1.29.35,2.99.53,5.1.53,3.16,0,5.58-.59,7.28-1.77,1.7-1.18,2.55-2.92,2.55-5.21,0-1.07-.14-1.99-.41-2.76-.28-.76-.71-1.45-1.31-2.04"/>
    <path class="cls-3" d="M455.52,186c-.95-1.23-1.92-2.38-2.93-3.47-1.01-1.09-1.97-2.02-2.89-2.78,1.71-1.75,3.42-3.54,5.11-5.38,1.69-1.84,3.31-3.61,4.83-5.33h-6.57c-.49.58-1.08,1.26-1.77,2.04-.69.79-1.42,1.6-2.18,2.44-.77.84-1.55,1.68-2.34,2.53-.8.84-1.55,1.63-2.25,2.36v-21l-5.56.92v34.73h5.56v-11.02c.83.61,1.67,1.35,2.53,2.23.86.87,1.7,1.8,2.53,2.78.83.98,1.6,1.99,2.32,3.03.72,1.04,1.36,2.04,1.91,2.99h6.43c-.55-1.04-1.24-2.17-2.06-3.4-.83-1.22-1.71-2.45-2.66-3.67"/>
    <path class="cls-3" d="M481.6,171.9c-1.01-1.1-2.23-1.96-3.65-2.55-1.42-.6-2.98-.9-4.66-.9s-3.23.3-4.64.9c-1.41.59-2.63,1.45-3.66,2.55-1.03,1.1-1.82,2.43-2.39,3.98-.56,1.55-.85,3.27-.85,5.17s.29,3.63.85,5.19c.57,1.56,1.36,2.9,2.37,4,1.01,1.1,2.22,1.96,3.63,2.57,1.41.61,2.97.92,4.69.92s3.29-.31,4.71-.92c1.42-.61,2.64-1.47,3.65-2.57,1.01-1.1,1.79-2.44,2.34-4,.55-1.56.83-3.29.83-5.19s-.28-3.62-.85-5.17c-.57-1.55-1.36-2.87-2.37-3.98M477.58,186.78c-1.03,1.41-2.46,2.11-4.3,2.11s-3.27-.7-4.29-2.11c-1.03-1.41-1.54-3.32-1.54-5.74s.51-4.28,1.54-5.68c1.03-1.39,2.46-2.09,4.29-2.09s3.27.7,4.3,2.09c1.03,1.4,1.54,3.29,1.54,5.68s-.51,4.34-1.54,5.74"/>
    <path class="cls-3" d="M504.71,188.48c-.37.09-.92.17-1.68.23-.75.06-1.46.09-2.14.09-1.87,0-3.18-.55-3.93-1.65-.75-1.1-1.13-2.94-1.13-5.51v-12.59h-5.56v13.46c0,1.62.17,3.12.51,4.48s.9,2.53,1.68,3.51c.78.98,1.82,1.75,3.12,2.3,1.3.55,2.92.83,4.85.83,2.05,0,3.94-.14,5.65-.43,1.72-.29,3.11-.58,4.18-.85v-23.29h-5.56v19.43Z"/>
    <path class="cls-3" d="M542.2,188.48c-.37.09-.92.17-1.68.23-.75.06-1.46.09-2.14.09-1.87,0-3.18-.55-3.93-1.65-.75-1.1-1.13-2.94-1.13-5.51v-12.59h-5.56v13.46c0,1.62.17,3.12.51,4.48s.9,2.53,1.68,3.51c.78.98,1.82,1.75,3.12,2.3,1.3.55,2.92.83,4.85.83,2.05,0,3.94-.14,5.65-.43,1.72-.29,3.11-.58,4.18-.85v-23.29h-5.56v19.43h0Z"/>
    <path class="cls-3" d="M572.77,171.6c-.78-.96-1.83-1.71-3.15-2.25-1.32-.54-2.96-.8-4.92-.8-2.08,0-3.98.14-5.69.41-1.72.27-3.11.57-4.18.87v23.25h5.56v-19.39c.37-.06.94-.14,1.7-.23.76-.09,1.5-.14,2.2-.14.95,0,1.75.13,2.41.39.66.26,1.18.67,1.56,1.24.38.57.66,1.3.83,2.21.16.9.25,2,.25,3.28v12.63h5.56v-13.51c0-1.62-.16-3.11-.48-4.48-.33-1.36-.87-2.52-1.65-3.49"/>
    <rect class="cls-3" x="581.75" y="169.05" width="5.56" height="24.03"/>
    <path class="cls-3" d="M584.51,158.57c-.95,0-1.76.31-2.43.92-.68.61-1.01,1.46-1.01,2.53s.33,1.87,1.01,2.48c.67.61,1.48.92,2.43.92s1.71-.31,2.39-.92c.68-.61,1.01-1.44,1.01-2.48s-.33-1.92-1.01-2.53c-.67-.61-1.47-.92-2.39-.92"/>
    <rect class="cls-3" x="594.43" y="169.05" width="5.56" height="24.03"/>
    <polygon class="cls-3" points="593.55 163.99 596.31 166.47 603.8 159.22 600.31 155.95 593.55 163.99"/>
    <g>
      <g>
        <g>
          <rect class="cls-7" x="747.3" y="90.71" width="58.22" height="129.38"/>
          <rect class="cls-10" x="805.53" y="90.71" width="6.47" height="129.38"/>
        </g>
        <g>
          <path class="cls-5" d="M776.06,133.39s-.88-.21-1.08-1.03c-.26-.98.46-1.55.46-1.55-.88-.52-1.96-1.35-2.94-2.12l-4.03.72c-3.56.62-4.6,3.31-.1,8.89h-5.06c-.05-1.19-.36-1.91-.67-2.43-.88-1.39-2.12-1.24-3.25-.26.62.41,1.03.83,1.45,1.45.41.62.62,1.14.67,1.34-.88-.72-2.43-1.14-3.05-1.08-.77.05-1.7.77-1.7,2.38,0,0,1.08-.31,2.38-.1.72.1,1.65.41,1.65.41-.57.15-1.19.57-1.6.98-1.03,1.03-.57,2.01.67,3.1.21-.72.57-1.34,1.39-2.17.72-.72.93-.88,1.24-1.03.8.24,1.58.43,2.33.59.39,1.03-.47,2.35-.47,2.35,1.44.36,2.84-.82,2.89-1.96,2.75.32,5.01.12,6.46-.32l-2.89-6.61s3.46-.31,5.27-1.55Z"/>
          <path class="cls-5" d="M760.2,112.16l1.59,1.55c-.24,1.05-1.69,1.66-1.69,1.66,1.01,1.11,2.75.89,3.46.06l4.44,4.33c.36-2.17,1.29-3.2,2.58-4.18-3.46-2.53-8.01-4.7-8.01-4.7.78-.88,1.09-1.6,1.24-2.22.36-1.6-.62-2.38-2.12-2.43.16.72.1,1.45,0,1.96-.1.62-.21.98-.46,1.5-.1-1.14-.93-2.53-1.39-2.94-.57-.52-1.76-.62-2.89.46,0,0,1.03.62,1.76,1.6.41.57.88,1.5.88,1.5-.52-.31-1.24-.46-1.81-.46-1.5,0-1.86,1.03-1.75,2.69.67-.36,1.45-.57,2.53-.57.67,0,1.19.05,1.65.21h0Z"/>
          <path class="cls-5" d="M799.62,123.11h-2.05c.02-.31.03-.62.03-.93,0-3.15-1.14-5.37-2.58-7.13,0,0-1.08.83-1.5,1.34,1.19,1.5,2.07,3.3,2.07,5.84,0,.29-.01.59-.04.88h-2.24c0,.62.69,1.7,1.89,2.11-.54,2.15-1.59,4.13-2.82,5.66-1.79-2.22-3.2-5.38-3.2-8.65,0-4.34,2.43-6.56,5.01-8.73.22-.19.57-.46.97-.81.66.6,1.35,1.33,1.92,2.25,0,0,1.45-.72,1.45-1.91,0-1.11-1.2-1.34-2.33-1.32,1.14-1.17,2.28-2.77,2.28-4.62s-1.19-3.1-2.84-3.1c-2.43,0-2.69,2.53-2.69,3.1,0,0,.62-.57,1.39-.57.72,0,1.45.52,1.45,1.65,0,1.4-1.14,2.38-3.2,4.13-2.38,2.02-5.42,4.75-5.42,9.87,0,.31.01.62.03.93h-2.31c0,.74.99,2.14,2.65,2.26.91,3.91,3.18,6.75,3.51,7.14-.34.39-1.12,1.08-2.49,1.08s-2.59-.65-3.62-2.01c0-.15,0-.31,0-.46,0-3.77-1.34-8.11-3.51-10.7h3.77c-.05-2.17-.93-4.18-3.1-6.15h2.17c0-4.29-3.05-5.79-3.31-5.99,1.96-.46,2.79-2.01,2.79-2.89h-9.45s-1.14,1.29-3.15,2.12c0,1.4,1.03,2.59,1.91,3.2.83-1.34,1.86-1.5,2.43-1.5.88,0,1.6.46,1.6,1.29,0,.62-.41,1.24-1.14,1.24-.52,0-1.08-.31-1.86-.31-1.91,0-1.65,1.91-1.65,1.91h3.25c.31,2.46-5.89,2.58-5.99,7.23-5.41,1.44-8.79,3.42-8.79,3.42-.16-1.14-.52-1.86-.93-2.38-1.03-1.29-2.22-1.03-3.2.05.67.36,1.03.67,1.55,1.29.52.62.57.78.83,1.29-.93-.62-2.53-.88-3.15-.78-.77.1-1.6.93-1.5,2.48,0,0,1.03-.31,2.07-.31s1.96.31,1.96.31c-.57.15-1.14.62-1.5,1.08-.93,1.19-.41,2.07.93,3.05.15-.72.62-1.65,1.19-2.33.31-.36.83-.88,1.19-1.08l2.17-.29c.65.89.21,2.36.21,2.36,1.48-.1,2.45-1.61,2.23-2.69l6.54-.89c2.25,2.84,5.9,4.78,6.57,5.13l-1.97,6.77c-.83,2.84-.26,5.01,1.86,5.42,1.34.26,3.15-.2,3.15-.2l-2.38,4.75c-1.03-.57-1.81-.78-2.43-.78-1.65,0-2.22,1.14-1.96,2.58.72-.31,1.24-.41,2.01-.41.46,0,.93,0,1.5.16-1.08.36-2.27,1.45-2.58,1.96-.41.67-.26,1.86,1.03,2.74,0,0,.31-1.03,1.19-2.01.52-.57,1.29-1.19,1.29-1.19-.21.57-.21,1.34-.05,1.86.36,1.39,1.08,1.65,2.95,1.19-.46-.62-.78-1.14-1.03-2.38-.16-.67-.21-1.19-.16-1.65.44-.5,1.08-1.09,1.8-1.75,1.06.29,1.61,1.75,1.61,1.75,1.1-.95.99-2.67.19-3.43,1.86-1.84,3.63-4.05,3.63-6.49h-5.68s1.83-1.63,2.58-5.05c1.01.95,2.54,1.48,3.83,1.48s2.58-.62,3.31-1.29v3.72c1.65,0,3.05-2.27,1.86-4.24,2.69,1.5,4.44-.41,4.44-1.55h-4.14c.67-.87,2.51-3.48,3.31-6.91,1.5-.25,2.39-1.53,2.39-2.23ZM775.9,108.02c-.62,0-1.09-.47-1.09-1.45h2.64c0,.72-.83,1.45-1.55,1.45h0Z"/>
          <path class="cls-5" d="M770.27,112.05h1.76c0-1.08-1.08-1.19-2.07-1.55-.83-.31-1.55-.88-1.55-2.32,0-.62.15-1.6,1.03-2.32-1.55,0-3.2,1.03-3.2,2.94,0,1.55,1.08,3.25,4.03,3.25Z"/>
          <path class="cls-5" d="M777.97,103.68h4.18l3-5.53c-1.03-.77-3.3-.52-3.3,1.24,0,.62.26,1.03.26,1.55,0,.83-.67,1.08-1.45,1.08-1.55,0-2.12-1.14-2.12-2.07l.46.31c.78.52,1.71-.1,1.71-.93,0-.72-.67-1.19-1.29-1.08l-.67.1.31-.67c.46-.98-.26-1.55-1.08-2.01-.83.46-1.55,1.03-1.08,2.01l.31.67-.67-.1c-.62-.1-1.29.36-1.29,1.08,0,.83.93,1.45,1.7.93l.46-.31c0,.93-.57,2.07-2.12,2.07-.77,0-1.45-.26-1.45-1.08,0-.52.26-.93.26-1.55,0-1.76-2.27-2.01-3.31-1.24l3,5.53h4.18Z"/>
          <path class="cls-5" d="M786.24,113.03c0,1.19,1.45,1.91,1.45,1.91.57-.93,2.38-2.79,3.41-3.56-1.4-1.19-2.12-2.07-2.12-3.2s.72-1.65,1.45-1.65c.78,0,1.39.57,1.39.57,0-.57-.26-3.1-2.68-3.1-1.65,0-2.84,1.19-2.84,3.1s1.14,3.46,2.27,4.65c-1.14-.05-2.33.21-2.33,1.29h0Z"/>
        </g>
      </g>
      <g>
        <polygon class="cls-4" points="843.87 120.77 843.87 101.89 841.2 101.89 835.67 112.25 830.11 101.89 827.36 101.89 827.36 120.77 830.16 120.77 830.16 107.26 835.61 117.43 841.06 107.26 841.06 120.77 843.87 120.77"/>
        <rect class="cls-4" x="847.32" y="101.78" width="3.13" height="3.13"/>
        <rect class="cls-4" x="847.53" y="106.91" width="2.7" height="13.86"/>
        <path class="cls-4" d="M856.59,112.03c0-2.08,1.35-3.1,3.05-3.1,1.81,0,3.05,1,3.05,3.59v8.25h2.7v-8.52c0-3.88-2.08-5.61-4.99-5.61-1.67,0-3.02.73-3.91,2.08v-1.81h-2.59v13.86h2.7v-8.74h0Z"/>
        <rect class="cls-4" x="868.84" y="101.78" width="3.13" height="3.13"/>
        <rect class="cls-4" x="869.06" y="106.91" width="2.7" height="13.86"/>
        <path class="cls-4" d="M880.44,118.88c-2.29,0-3.02-.89-3.13-2.37h-2.7c.13,2.86,2.16,4.53,5.83,4.53s5.83-1.81,5.83-4.23c0-2.27-1.62-3.51-4.23-3.94l-2.02-.35c-1.59-.27-2.19-.67-2.19-1.78,0-1.16.94-1.94,2.64-1.94,2.02,0,2.75.89,2.86,2.37h2.7c-.13-2.81-2.08-4.53-5.58-4.53s-5.31,1.92-5.31,4.24,1.56,3.43,4.21,3.86l2.05.35c1.48.24,2.18.73,2.18,1.83,0,1.29-1.16,1.97-3.13,1.97h0Z"/>
        <path class="cls-4" d="M890.74,116.45c0,2.72,1.03,4.5,4.32,4.5.59,0,1.27-.05,2.05-.19v-2.29c-.67.11-1.21.16-1.67.16-1.48,0-2-.62-2-2.19v-7.26h3.67v-2.29h-3.67v-4.48l-2.7.54v3.94h-2.86v2.29h2.86v7.26Z"/>
        <path class="cls-4" d="M904.98,121.04c3.1,0,5.29-1.67,5.61-4.53h-2.81c-.13,1.43-1.21,2.35-2.81,2.35-2.05,0-3.13-1.27-3.21-4.29h8.96c.03-.19.03-.35.03-.51,0-5.12-2.13-7.42-5.77-7.42-3.86,0-5.99,2.29-5.99,7.2s2.13,7.2,5.99,7.2h0ZM904.98,108.82c1.7,0,2.75,1.11,2.97,3.67h-6.15c.22-2.56,1.27-3.67,3.18-3.67Z"/>
        <path class="cls-4" d="M916.36,112.46c0-1.78.94-3.26,3.48-3.26h1.46v-2.29c-.4-.08-.84-.13-1.24-.13-1.59,0-2.91.67-3.8,2.05v-1.91h-2.59v13.86h2.7v-8.31Z"/>
        <path class="cls-4" d="M929.8,112.87l-2.02-.35c-1.59-.27-2.19-.67-2.19-1.78,0-1.16.94-1.94,2.64-1.94,2.02,0,2.75.89,2.86,2.37h2.7c-.13-2.81-2.08-4.53-5.58-4.53s-5.31,1.92-5.31,4.24,1.56,3.43,4.21,3.86l2.05.35c1.48.24,2.18.73,2.18,1.83,0,1.29-1.16,1.97-3.13,1.97-2.29,0-3.02-.89-3.13-2.37h-2.7c.13,2.86,2.16,4.53,5.83,4.53s5.83-1.81,5.83-4.23c0-2.27-1.62-3.51-4.23-3.94h0Z"/>
        <path class="cls-4" d="M938.51,116.45c0,2.72,1.03,4.5,4.32,4.5.59,0,1.27-.05,2.05-.19v-2.29c-.67.11-1.21.16-1.67.16-1.48,0-2-.62-2-2.19v-7.26h3.67v-2.29h-3.67v-4.48l-2.7.54v3.94h-2.86v2.29h2.86v7.26Z"/>
        <polygon class="cls-4" points="954.96 120.77 959.84 106.91 957.06 106.91 953.34 118.15 949.62 106.91 946.7 106.91 951.59 120.77 954.96 120.77"/>
        <path class="cls-4" d="M966.91,121.04c3.88,0,6.02-2.29,6.02-7.2s-2.13-7.2-6.02-7.2-6.01,2.29-6.01,7.2,2.13,7.2,6.01,7.2ZM966.91,108.87c2.19,0,3.21,1.51,3.21,4.96s-1.03,4.96-3.21,4.96-3.21-1.51-3.21-4.96,1.03-4.96,3.21-4.96Z"/>
        <path class="cls-4" d="M833.97,142.95l-2.02-.35c-1.59-.27-2.19-.67-2.19-1.78,0-1.16.94-1.94,2.64-1.94,2.02,0,2.75.89,2.86,2.37h2.7c-.13-2.81-2.08-4.53-5.58-4.53s-5.31,1.92-5.31,4.24,1.56,3.43,4.21,3.86l2.05.35c1.48.24,2.18.73,2.18,1.83,0,1.29-1.16,1.97-3.13,1.97-2.29,0-3.02-.89-3.13-2.37h-2.7c.13,2.86,2.16,4.53,5.83,4.53s5.83-1.81,5.83-4.23c0-2.27-1.62-3.51-4.23-3.94h0Z"/>
        <polygon class="cls-4" points="834.02 135.48 836.93 130.89 834.61 130.89 832.4 133.83 830.19 130.89 827.82 130.89 830.73 135.48 834.02 135.48"/>
        <polygon class="cls-4" points="853.25 150.85 847.24 143.6 852.77 136.99 849.83 136.99 844.03 143.9 844.03 130.62 841.33 131.16 841.33 150.85 844.03 150.85 844.03 143.95 849.83 150.85 853.25 150.85"/>
        <path class="cls-4" d="M859.81,151.12c3.88,0,6.02-2.29,6.02-7.2s-2.13-7.2-6.02-7.2-6.01,2.29-6.01,7.2,2.13,7.2,6.01,7.2ZM859.81,138.96c2.19,0,3.21,1.51,3.21,4.96s-1.03,4.96-3.21,4.96-3.21-1.51-3.21-4.96,1.03-4.96,3.21-4.96Z"/>
        <polygon class="cls-4" points="868.73 150.85 871.43 150.85 871.43 130.62 868.73 131.16 868.73 150.85"/>
        <path class="cls-4" d="M880.11,151.12c3.67,0,5.83-1.81,5.83-4.23,0-2.27-1.62-3.51-4.23-3.94l-2.02-.35c-1.59-.27-2.19-.67-2.19-1.78,0-1.16.94-1.94,2.64-1.94,2.02,0,2.75.89,2.86,2.37h2.7c-.13-2.81-2.08-4.53-5.58-4.53s-5.31,1.92-5.31,4.24,1.56,3.43,4.21,3.86l2.05.35c1.48.24,2.18.73,2.18,1.83,0,1.29-1.16,1.97-3.13,1.97-2.29,0-3.02-.89-3.13-2.37h-2.7c.13,2.86,2.16,4.53,5.83,4.53h0Z"/>
        <path class="cls-4" d="M896.78,150.85v-2.29c-.67.11-1.21.16-1.67.16-1.48,0-2-.62-2-2.19v-7.26h3.67v-2.29h-3.67v-4.48l-2.7.54v3.94h-2.86v2.29h2.86v7.26c0,2.72,1.03,4.5,4.32,4.5.59,0,1.27-.05,2.05-.19Z"/>
        <polygon class="cls-4" points="906.87 150.85 911.75 136.99 908.97 136.99 905.25 148.24 901.53 136.99 898.62 136.99 903.5 150.85 906.87 150.85"/>
        <rect class="cls-4" x="914.07" y="136.99" width="2.7" height="13.86"/>
        <polygon class="cls-4" points="913.83 135.48 916.2 135.48 919.17 130.89 916.15 130.89 913.83 135.48"/>
        <polygon class="cls-4" points="923.51 150.85 923.51 147.4 920.06 147.4 920.06 150.85 921.41 150.85 919.84 154.9 921.78 154.9 923.51 150.85"/>
        <path class="cls-4" d="M949.05,150.85h2.7v-9.01c0-3.61-2.02-5.13-4.48-5.13-1.65,0-2.99.84-3.83,2.29-.75-1.59-2.24-2.29-3.88-2.29-1.4,0-2.62.7-3.45,2v-1.73h-2.59v13.86h2.7v-9.04c0-2.02,1.32-2.81,2.54-2.81,1.32,0,2.53.75,2.53,3.07v8.77h2.7v-9.25c0-1.81,1.32-2.59,2.54-2.59,1.32,0,2.53.75,2.53,3.07v8.77h0Z"/>
        <polygon class="cls-4" points="958.12 150.85 958.12 130.62 955.42 131.16 955.42 150.85 958.12 150.85"/>
        <path class="cls-4" d="M966.1,142.87c-3.07.22-4.99,1.81-4.99,4.26,0,2.32,1.7,3.99,4.29,3.99,1.67,0,3.45-.67,4.61-2.35v2.08h2.59v-8.74c0-3.45-2.16-5.4-5.53-5.4-3.05,0-5.39,1.94-5.53,4.96h2.75c.11-1.86,1.21-2.78,2.75-2.78,1.67,0,2.86.92,2.86,3.1v.62l-3.8.24h0ZM969.9,145.11c0,2.86-2.16,3.83-3.94,3.83-1.24,0-2.16-.73-2.16-1.89s.84-2.05,2.59-2.16l3.51-.27v.49h0Z"/>
        <polygon class="cls-4" points="967.85 135.48 970.82 130.89 967.8 130.89 965.48 135.48 967.85 135.48"/>
        <path class="cls-4" d="M980.77,151.12c1.73,0,3.16-.78,4.07-2.43v2.16h2.59v-20.23l-2.7.54v7.52c-.94-1.35-2.27-1.97-3.75-1.97-3.21,0-5.48,2.24-5.48,7.2s2,7.2,5.26,7.2h0ZM981.53,138.99c2.19,0,3.21,1.51,3.21,4.94s-1.03,4.94-3.21,4.94-3.21-1.51-3.21-4.94,1.03-4.94,3.21-4.94Z"/>
        <path class="cls-4" d="M996.33,136.72c-3.86,0-5.99,2.29-5.99,7.2s2.13,7.2,5.99,7.2c3.1,0,5.29-1.67,5.61-4.53h-2.81c-.13,1.43-1.21,2.35-2.81,2.35-2.05,0-3.13-1.27-3.21-4.29h8.96c.03-.19.03-.35.03-.51,0-5.12-2.13-7.42-5.77-7.42h0ZM993.15,142.57c.22-2.56,1.27-3.67,3.18-3.67,1.7,0,2.75,1.11,2.97,3.67h-6.15Z"/>
        <polygon class="cls-4" points="1011.14 135.48 1014.05 130.89 1011.73 130.89 1009.52 133.83 1007.31 130.89 1004.94 130.89 1007.85 135.48 1011.14 135.48"/>
        <polygon class="cls-4" points="1004.26 139.28 1011.44 139.28 1004.26 148.83 1004.26 150.85 1014.73 150.85 1014.73 148.56 1007.55 148.56 1014.73 139.01 1014.73 136.99 1004.26 136.99 1004.26 139.28"/>
        <path class="cls-4" d="M1028.65,144.14c0-5.12-2.13-7.42-5.77-7.42-3.86,0-5.99,2.29-5.99,7.2s2.13,7.2,5.99,7.2c3.1,0,5.29-1.67,5.61-4.53h-2.81c-.13,1.43-1.21,2.35-2.81,2.35-2.05,0-3.13-1.27-3.21-4.29h8.96c.03-.19.03-.35.03-.51h0ZM1019.69,142.57c.22-2.56,1.27-3.67,3.18-3.67,1.7,0,2.75,1.11,2.97,3.67h-6.15Z"/>
        <path class="cls-4" d="M832.65,166.8c-3.05,0-5.39,1.94-5.53,4.96h2.75c.11-1.86,1.21-2.78,2.75-2.78,1.67,0,2.86.92,2.86,3.1v.62l-3.8.24c-3.08.22-4.99,1.81-4.99,4.26,0,2.32,1.7,3.99,4.29,3.99,1.67,0,3.45-.67,4.61-2.35v2.08h2.59v-8.74c0-3.45-2.16-5.4-5.53-5.4h0ZM835.48,175.19c0,2.86-2.16,3.83-3.94,3.83-1.24,0-2.16-.73-2.16-1.89s.84-2.05,2.59-2.16l3.51-.27v.49h0Z"/>
        <path class="cls-4" d="M852.6,162.6l-2.7.54v3.94h-2.86v2.29h2.86v7.26c0,2.72,1.03,4.5,4.32,4.5.59,0,1.27-.05,2.05-.19v-2.29c-.67.11-1.21.16-1.67.16-1.48,0-2-.62-2-2.19v-7.26h3.67v-2.29h-3.67s0-4.48,0-4.48Z"/>
        <path class="cls-4" d="M864.15,166.8c-3.86,0-5.99,2.29-5.99,7.2s2.13,7.2,5.99,7.2c3.1,0,5.29-1.67,5.61-4.53h-2.81c-.13,1.43-1.21,2.35-2.81,2.35-2.05,0-3.13-1.27-3.21-4.29h8.96c.03-.19.03-.35.03-.51,0-5.12-2.13-7.42-5.77-7.42h0ZM860.97,172.66c.22-2.56,1.27-3.67,3.18-3.67,1.7,0,2.75,1.11,2.97,3.67h-6.15Z"/>
        <polygon class="cls-4" points="861.96 160.98 859.59 160.98 862.5 165.56 865.79 165.56 868.71 160.98 866.39 160.98 864.17 163.92 861.96 160.98"/>
        <polygon class="cls-4" points="872.83 180.94 875.53 180.94 875.53 160.71 872.83 161.25 872.83 180.94"/>
        <path class="cls-4" d="M884.46,166.8c-3.88,0-6.01,2.29-6.01,7.2s2.13,7.2,6.01,7.2,6.02-2.29,6.02-7.2-2.13-7.2-6.02-7.2ZM884.46,178.97c-2.18,0-3.21-1.51-3.21-4.96s1.03-4.96,3.21-4.96,3.21,1.51,3.21,4.96-1.03,4.96-3.21,4.96Z"/>
        <polygon class="cls-4" points="898.16 178.32 894.44 167.07 891.52 167.07 896.4 180.94 899.78 180.94 904.66 167.07 901.88 167.07 898.16 178.32"/>
        <path class="cls-4" d="M912.32,178.32l-3.72-11.25h-2.91l5.18,14.7-.11.24c-.57,1.54-.97,2.19-2.32,2.19-.46,0-1.03-.05-1.67-.16v2.29c.73.13,1.38.22,1.94.22,2.35,0,3.7-1.29,4.8-4.42l5.31-15.05h-2.78l-3.72,11.25Z"/>
        <polygon class="cls-4" points="913.05 165.56 916.01 160.98 912.99 160.98 910.67 165.56 913.05 165.56"/>
        <path class="cls-4" d="M925.88,169.04c1.59,0,2.7.94,2.94,2.99h2.81c-.41-3.59-2.48-5.23-5.75-5.23-3.88,0-6.01,2.29-6.01,7.2s2.13,7.2,6.01,7.2c3.16,0,5.34-1.65,5.75-5.23h-2.81c-.24,2.05-1.35,2.99-2.94,2.99-2.18,0-3.21-1.51-3.21-4.96s1.03-4.96,3.21-4.96Z"/>
        <path class="cls-4" d="M941.04,166.8c-1.62,0-2.91.67-3.8,1.97v-8.06l-2.7.54v19.69h2.7v-8.74c0-2.08,1.35-3.1,3.05-3.1,1.81,0,3.05,1,3.05,3.59v8.25h2.7v-8.52c0-3.88-2.08-5.61-4.99-5.61h0Z"/>
        <path class="cls-4" d="M954.96,166.8c-3.88,0-6.01,2.29-6.01,7.2s2.13,7.2,6.01,7.2,6.02-2.29,6.02-7.2-2.13-7.2-6.02-7.2ZM954.96,178.97c-2.18,0-3.21-1.51-3.21-4.96s1.03-4.96,3.21-4.96,3.21,1.51,3.21,4.96-1.03,4.96-3.21,4.96Z"/>
        <polygon class="cls-4" points="968.66 178.32 964.94 167.07 962.03 167.07 966.91 180.94 970.28 180.94 975.16 167.07 972.38 167.07 968.66 178.32"/>
        <path class="cls-4" d="M982.82,178.32l-3.72-11.25h-2.91l5.18,14.7-.11.24c-.57,1.54-.97,2.19-2.32,2.19-.46,0-1.03-.05-1.67-.16v2.29c.73.13,1.38.22,1.94.22,2.35,0,3.7-1.29,4.8-4.42l5.31-15.05h-2.78l-3.72,11.25Z"/>
      </g>
    </g>
  </g>
</svg>