<svg width="52" height="63" viewBox="0 0 52 63" fill="none" xmlns="http://www.w3.org/2000/svg">
<path d="M30.4305 14.6039C30.2298 14.5451 30.1581 14.4103 29.9574 14.3502C29.4538 14.2007 28.7934 14.2234 28.2977 14.4076C27.5416 14.7334 27.0366 15.3528 26.8293 16.0604L26.3828 17.5783C26.0267 18.7918 26.5357 20.0428 27.4539 20.6462C32.9792 23.8222 35.5598 30.3078 33.7473 36.477C33.5732 37.0711 33.3553 37.6531 33.1014 38.2165C33.7154 37.4636 34.7811 37.0444 35.8574 37.2953L37.3923 37.6531C38.1072 37.82 38.7517 38.2899 39.1211 39.0282C39.3337 39.5155 39.3948 40.175 39.2765 40.689C39.2287 40.8932 39.0998 40.9747 39.0533 41.1789C37.6726 44.1387 35.6342 46.6432 33.1798 48.5737C33.4974 48.4735 33.7978 48.3213 34.0516 48.1117C36.987 45.5752 39.1915 42.1602 40.2904 38.4168C42.9946 29.2104 38.8301 19.1803 30.4318 14.6025L30.4305 14.6039Z" fill="#FF5D81"/>
<path d="M31.9099 48.685C31.175 48.5795 30.4575 48.0362 30.1027 47.3807L29.324 45.9442C28.6582 44.8655 28.9107 43.6212 29.8156 42.7895C31.1764 41.5319 32.3178 39.9593 33.1018 38.2197C33.0168 38.3252 32.9397 38.436 32.872 38.5535C30.0415 44.2821 23.7495 47.2512 17.5119 45.7973C15.0589 45.2246 12.772 43.935 11.01 42.2248C10.8492 42.0673 10.6751 41.9338 10.493 41.823C11.402 42.7882 12.4637 43.6346 13.665 44.3235C14.5832 44.9269 15.0935 46.1778 14.7387 47.3914L14.2935 48.9093C14.0862 49.6169 13.5813 50.2363 12.8265 50.5621C12.3308 50.7463 11.6704 50.7703 11.1668 50.6208C10.9661 50.5621 10.893 50.4272 10.6937 50.3685C9.52565 49.733 8.43999 48.9921 7.44336 48.163C9.89373 50.2403 12.8424 51.7409 15.9705 52.4712C22.1084 53.9023 28.4257 52.3163 33.1789 48.5769C32.767 48.7064 32.3245 48.7464 31.9099 48.6863V48.685Z" fill="#DF1C4D"/>
<path d="M39.0524 41.181C39.1003 40.9767 39.2292 40.8953 39.2757 40.691C39.3939 40.177 39.3328 39.5162 39.1202 39.0302C38.7521 38.292 38.1063 37.822 37.3914 37.6551L35.8566 37.2974C34.7802 37.0464 33.7145 37.4669 33.1006 38.2185C32.3166 39.9581 31.1751 41.5307 29.8144 42.7883C28.9108 43.6201 28.657 44.8643 29.3227 45.943L30.1014 47.3795C30.4562 48.035 31.1738 48.5797 31.9086 48.6838C32.3232 48.7426 32.7657 48.7038 33.1777 48.5743C35.632 46.6439 37.6704 44.1394 39.0511 41.1796L39.0524 41.181Z" fill="#FF134F"/>
<path d="M6.36138 17.4893C6.02651 17.8083 5.70095 18.1381 5.38867 18.4798C5.40728 18.4612 5.42588 18.4438 5.44448 18.4264C5.76872 18.1261 6.07302 17.8123 6.36138 17.4893Z" fill="#28B8C4"/>
<path d="M2.9375 21.7571L3.51156 20.8613C3.31356 21.155 3.12088 21.4527 2.9375 21.7571Z" fill="#28B8C4"/>
<path d="M5.27467 44.669C5.3358 43.9268 5.83411 43.1751 6.46531 42.78L7.84729 41.9149C8.69111 41.3168 9.67976 41.3288 10.493 41.8214C7.22141 38.3463 5.94573 33.3253 7.36094 28.4952C7.76092 27.1321 8.38282 25.8344 9.16949 24.6623C8.40142 25.5287 7.0965 25.7143 6.09589 25.0842L3.81162 23.8332C2.97313 23.3686 2.5758 22.3407 2.88808 21.832C2.00308 23.3112 1.30145 24.9026 0.816425 26.558C-1.50771 34.4868 1.26291 43.0216 7.44067 48.1601C6.92641 47.7249 6.43341 47.2657 5.96699 46.781C5.45273 46.2243 5.21221 45.4113 5.27334 44.6677L5.27467 44.669Z" fill="#28B8C4"/>
<path d="M10.4775 23.0033C10.738 22.7176 11.0091 22.4426 11.2895 22.1836C11.3891 22.0915 11.4795 21.994 11.5632 21.8926C11.1858 22.229 10.8204 22.6095 10.4775 23.0033Z" fill="#28B8C4"/>
<path d="M11.167 50.6206C11.6706 50.7702 12.3311 50.7461 12.8267 50.5619C13.5815 50.2348 14.0865 49.6154 14.2938 48.9091L14.7389 47.3912C15.095 46.1777 14.5834 44.9267 13.6652 44.3233C12.4639 43.6344 11.4022 42.788 10.4933 41.8228C9.68003 41.3315 8.69005 41.3195 7.84757 41.9163L6.46558 42.7814C5.83571 43.1765 5.3374 43.9281 5.27494 44.6704C5.21382 45.4127 5.45434 46.2257 5.9686 46.7838C6.43502 47.2684 6.92935 47.7276 7.44228 48.1629C8.4389 48.9919 9.52456 49.7328 10.6926 50.3683C10.8933 50.4271 10.9663 50.5619 11.1657 50.6206H11.167Z" fill="#C92876"/>
<path d="M3.61873 20.6916L3.50977 20.8612C4.07718 20.0215 4.70439 19.2244 5.38741 18.4795C4.68711 19.1564 3.61873 20.6916 3.61873 20.6916Z" fill="#28B8C4"/>
<path d="M2.89762 21.8182C2.89762 21.8182 2.89231 21.8289 2.88965 21.8329C2.90559 21.8076 2.92154 21.7822 2.93616 21.7568L2.89762 21.8169V21.8182Z" fill="#28B8C4"/>
<path d="M9.19104 16.2876C9.92589 16.3918 10.6435 16.9365 10.9983 17.5906L11.7783 19.0271C12.3709 19.987 12.2354 21.0764 11.563 21.8921C11.5657 21.8894 11.5683 21.8867 11.571 21.8854C16.8691 17.1674 17.7036 8.72736 15.3303 1.74783C15.2226 1.5676 15.2598 1.41942 15.1535 1.23919C14.8838 0.786612 14.3828 0.354063 13.8938 0.152474C13.1178 -0.122542 12.3298 -0.0103999 11.6999 0.367413L10.3485 1.18045C9.26812 1.8306 8.79904 3.09755 9.06746 4.16557C10.5597 8.89958 9.56445 13.8966 6.36328 17.4892C6.58918 17.2742 6.81774 17.0633 7.05295 16.859C7.63631 16.3757 8.45886 16.1808 9.19237 16.2863L9.19104 16.2876Z" fill="#28B8C4"/>
<path d="M9.33169 24.4611C9.66655 23.9899 10.0559 23.4866 10.4771 23.002C10.0054 23.5186 9.56556 24.074 9.1709 24.6627C9.22804 24.5986 9.28119 24.5319 9.33169 24.4611Z" fill="#28B8C4"/>
<path d="M3.81349 23.835L6.09776 25.0859C7.09837 25.7161 8.40329 25.5305 9.17136 24.6641C9.56735 24.0753 10.0059 23.52 10.4776 23.0033C10.8204 22.6095 11.1859 22.229 11.5633 21.8926C12.2357 21.0769 12.3725 19.9875 11.7785 19.0276L10.9985 17.5911C10.6437 16.9356 9.92481 16.3922 9.19129 16.2881C8.45777 16.184 7.63522 16.3775 7.05186 16.8608C6.81666 17.0651 6.5881 17.276 6.3622 17.491C6.07384 17.8154 5.76954 18.1291 5.4453 18.4282C5.4267 18.4455 5.40809 18.4629 5.38949 18.4816C4.70647 19.2265 4.07926 20.0235 3.51185 20.8632L2.93779 21.759C2.92184 21.7844 2.9059 21.8098 2.89128 21.8351C2.579 22.3425 2.97633 23.3718 3.81482 23.8364L3.81349 23.835Z" fill="#0FD7E4"/>
<path d="M51.1263 31.0666C51.0373 30.8503 51.0107 30.6674 50.9921 30.5393C50.9881 30.5139 50.9841 30.4792 50.9802 30.4619C50.7569 30.0093 50.3064 29.53 49.8746 29.2844C49.2168 28.9706 48.5192 28.964 47.9066 29.2643L46.1153 30.1441C45.1413 30.6221 44.5738 31.7582 44.7572 32.8529C46.8236 41.5893 42.9261 50.3097 35.272 54.0665C32.3167 55.5177 28.8325 56.1064 25.4585 55.7259C24.3038 55.5924 23.4188 56.1865 23.149 57.2746L23.1344 57.3266L22.5032 59.3652C22.2933 60.0448 22.4128 60.9446 22.7889 61.5066C23.2221 62.1554 23.9065 62.6294 24.5749 62.7468C29.3122 63.4451 34.2421 62.6908 38.4585 60.6201C48.9005 55.4936 54.2199 43.0739 51.125 31.0666H51.1263Z" fill="#036F78"/>
</svg>
