<svg width="158" height="63" viewBox="0 0 158 63" fill="none" xmlns="http://www.w3.org/2000/svg">
<path d="M30.4305 14.6039C30.2298 14.5451 30.1581 14.4103 29.9574 14.3502C29.4538 14.2007 28.7934 14.2234 28.2977 14.4076C27.5416 14.7334 27.0366 15.3528 26.8293 16.0604L26.3828 17.5783C26.0267 18.7918 26.5357 20.0428 27.4539 20.6462C32.9792 23.8222 35.5598 30.3078 33.7473 36.477C33.5732 37.0711 33.3553 37.6531 33.1014 38.2165C33.7154 37.4636 34.7811 37.0444 35.8574 37.2953L37.3923 37.6531C38.1072 37.82 38.7517 38.2899 39.1211 39.0282C39.3337 39.5155 39.3948 40.175 39.2765 40.689C39.2287 40.8932 39.0998 40.9747 39.0533 41.1789C37.6726 44.1387 35.6342 46.6432 33.1798 48.5737C33.4974 48.4735 33.7978 48.3213 34.0516 48.1117C36.987 45.5752 39.1915 42.1602 40.2904 38.4168C42.9946 29.2104 38.8301 19.1803 30.4318 14.6025L30.4305 14.6039Z" fill="#FF5D81"/>
<path d="M31.9099 48.685C31.175 48.5795 30.4575 48.0362 30.1027 47.3807L29.324 45.9442C28.6582 44.8655 28.9107 43.6212 29.8156 42.7895C31.1764 41.5319 32.3178 39.9593 33.1018 38.2197C33.0168 38.3252 32.9397 38.436 32.872 38.5535C30.0415 44.2821 23.7495 47.2512 17.5119 45.7973C15.0589 45.2246 12.772 43.935 11.01 42.2248C10.8492 42.0673 10.6751 41.9338 10.493 41.823C11.402 42.7882 12.4637 43.6346 13.665 44.3235C14.5832 44.9269 15.0935 46.1778 14.7387 47.3914L14.2935 48.9093C14.0862 49.6169 13.5813 50.2363 12.8265 50.5621C12.3308 50.7463 11.6704 50.7703 11.1668 50.6208C10.9661 50.5621 10.893 50.4272 10.6937 50.3685C9.52564 49.733 8.43999 48.9921 7.44336 48.163C9.89373 50.2403 12.8424 51.7409 15.9705 52.4712C22.1084 53.9023 28.4257 52.3163 33.1789 48.5769C32.767 48.7064 32.3245 48.7464 31.9099 48.6863V48.685Z" fill="#DF1C4D"/>
<path d="M39.0524 41.181C39.1003 40.9767 39.2292 40.8953 39.2757 40.691C39.3939 40.177 39.3328 39.5162 39.1202 39.0302C38.7521 38.292 38.1063 37.822 37.3914 37.6551L35.8566 37.2974C34.7802 37.0464 33.7145 37.4669 33.1006 38.2185C32.3166 39.9581 31.1751 41.5307 29.8144 42.7883C28.9108 43.6201 28.657 44.8643 29.3227 45.943L30.1014 47.3795C30.4562 48.035 31.1738 48.5797 31.9086 48.6838C32.3232 48.7426 32.7657 48.7038 33.1777 48.5743C35.632 46.6439 37.6704 44.1394 39.0511 41.1796L39.0524 41.181Z" fill="#FF134F"/>
<path d="M6.36138 17.4893C6.02651 17.8083 5.70095 18.1381 5.38867 18.4798C5.40728 18.4612 5.42588 18.4438 5.44448 18.4264C5.76872 18.1261 6.07302 17.8123 6.36138 17.4893Z" fill="#28B8C4"/>
<path d="M2.9375 21.7571L3.51156 20.8613C3.31356 21.155 3.12088 21.4527 2.9375 21.7571Z" fill="#28B8C4"/>
<path d="M5.27467 44.669C5.3358 43.9268 5.83411 43.1751 6.46531 42.78L7.84729 41.9149C8.69111 41.3168 9.67976 41.3288 10.493 41.8214C7.22141 38.3463 5.94573 33.3253 7.36094 28.4952C7.76092 27.1321 8.38282 25.8344 9.16949 24.6623C8.40142 25.5287 7.0965 25.7143 6.09589 25.0842L3.81162 23.8332C2.97313 23.3686 2.5758 22.3407 2.88808 21.832C2.00308 23.3112 1.30145 24.9026 0.816425 26.558C-1.50771 34.4868 1.26291 43.0216 7.44067 48.1601C6.92641 47.7249 6.43341 47.2657 5.96699 46.781C5.45273 46.2243 5.21221 45.4113 5.27334 44.6677L5.27467 44.669Z" fill="#28B8C4"/>
<path d="M10.4775 23.0033C10.738 22.7176 11.0091 22.4426 11.2895 22.1836C11.3891 22.0915 11.4795 21.994 11.5632 21.8926C11.1858 22.229 10.8204 22.6095 10.4775 23.0033Z" fill="#28B8C4"/>
<path d="M11.167 50.6206C11.6706 50.7702 12.3311 50.7461 12.8267 50.5619C13.5815 50.2348 14.0865 49.6154 14.2938 48.9091L14.7389 47.3912C15.095 46.1777 14.5834 44.9267 13.6652 44.3233C12.4639 43.6344 11.4022 42.788 10.4933 41.8228C9.68003 41.3315 8.69005 41.3195 7.84757 41.9163L6.46558 42.7814C5.83571 43.1765 5.3374 43.9281 5.27494 44.6704C5.21382 45.4127 5.45434 46.2257 5.9686 46.7838C6.43502 47.2684 6.92935 47.7276 7.44228 48.1629C8.4389 48.9919 9.52456 49.7328 10.6926 50.3683C10.8933 50.4271 10.9663 50.5619 11.1657 50.6206H11.167Z" fill="#C92876"/>
<path d="M3.61873 20.6916L3.50977 20.8612C4.07718 20.0215 4.70439 19.2244 5.38741 18.4795C4.68711 19.1564 3.61873 20.6916 3.61873 20.6916Z" fill="#28B8C4"/>
<path d="M2.89762 21.8182C2.89762 21.8182 2.89231 21.8289 2.88965 21.8329C2.90559 21.8076 2.92154 21.7822 2.93616 21.7568L2.89762 21.8169V21.8182Z" fill="#28B8C4"/>
<path d="M9.19104 16.2876C9.92589 16.3918 10.6435 16.9365 10.9983 17.5906L11.7783 19.0271C12.3709 19.987 12.2354 21.0764 11.563 21.8921C11.5657 21.8894 11.5683 21.8867 11.571 21.8854C16.8691 17.1674 17.7036 8.72736 15.3303 1.74783C15.2226 1.5676 15.2598 1.41942 15.1535 1.23919C14.8838 0.786612 14.3828 0.354063 13.8938 0.152474C13.1178 -0.122542 12.3298 -0.0103999 11.6999 0.367413L10.3485 1.18045C9.26812 1.8306 8.79904 3.09755 9.06746 4.16557C10.5597 8.89958 9.56445 13.8966 6.36328 17.4892C6.58918 17.2742 6.81774 17.0633 7.05295 16.859C7.63631 16.3757 8.45886 16.1808 9.19237 16.2863L9.19104 16.2876Z" fill="#28B8C4"/>
<path d="M9.33169 24.4611C9.66655 23.9899 10.0559 23.4866 10.4771 23.002C10.0054 23.5186 9.56556 24.074 9.1709 24.6627C9.22804 24.5986 9.28119 24.5319 9.33169 24.4611Z" fill="#28B8C4"/>
<path d="M3.81349 23.835L6.09776 25.0859C7.09837 25.7161 8.40329 25.5305 9.17136 24.6641C9.56735 24.0753 10.0059 23.52 10.4776 23.0033C10.8204 22.6095 11.1859 22.229 11.5633 21.8926C12.2357 21.0769 12.3725 19.9875 11.7785 19.0276L10.9985 17.5911C10.6437 16.9356 9.92481 16.3922 9.19129 16.2881C8.45777 16.184 7.63522 16.3775 7.05186 16.8608C6.81666 17.0651 6.5881 17.276 6.3622 17.491C6.07384 17.8154 5.76954 18.1291 5.4453 18.4282C5.4267 18.4455 5.40809 18.4629 5.38949 18.4816C4.70647 19.2265 4.07926 20.0235 3.51185 20.8632L2.93779 21.759C2.92184 21.7844 2.9059 21.8098 2.89128 21.8351C2.579 22.3425 2.97633 23.3718 3.81482 23.8364L3.81349 23.835Z" fill="#0FD7E4"/>
<path d="M51.1263 31.0666C51.0373 30.8503 51.0107 30.6674 50.9921 30.5393C50.9881 30.5139 50.9841 30.4792 50.9802 30.4619C50.7569 30.0093 50.3064 29.53 49.8746 29.2844C49.2168 28.9706 48.5192 28.964 47.9066 29.2643L46.1153 30.1441C45.1413 30.6221 44.5738 31.7582 44.7572 32.8529C46.8236 41.5893 42.9261 50.3097 35.272 54.0665C32.3167 55.5177 28.8325 56.1064 25.4585 55.7259C24.3038 55.5924 23.4188 56.1865 23.149 57.2746L23.1344 57.3266L22.5032 59.3652C22.2933 60.0448 22.4128 60.9446 22.7889 61.5066C23.2221 62.1554 23.9065 62.6294 24.5749 62.7469C29.3122 63.4451 34.2421 62.6908 38.4585 60.6201C48.9005 55.4936 54.2199 43.0739 51.125 31.0666H51.1263Z" fill="#036F78"/>
<path d="M68.1235 27.5002H65.897L65.9116 26.3503H68.1235C68.8853 26.3503 69.52 26.1917 70.0278 25.8743C70.5356 25.552 70.9165 25.1028 71.1704 24.5266C71.4292 23.9456 71.5586 23.2668 71.5586 22.4905V21.8386C71.5586 21.2283 71.4854 20.6863 71.3389 20.2126C71.1924 19.7341 70.9775 19.3313 70.6943 19.0042C70.4111 18.6721 70.0645 18.4207 69.6543 18.2498C69.249 18.0789 68.7827 17.9934 68.2554 17.9934H65.853V16.8362H68.2554C68.9536 16.8362 69.5908 16.9534 70.167 17.1877C70.7432 17.4172 71.2388 17.7517 71.6538 18.1912C72.0737 18.6257 72.396 19.1531 72.6206 19.7732C72.8452 20.3884 72.9575 21.0818 72.9575 21.8533V22.4905C72.9575 23.262 72.8452 23.9578 72.6206 24.5779C72.396 25.1931 72.0713 25.718 71.6465 26.1526C71.2266 26.5872 70.7188 26.9216 70.123 27.156C69.5322 27.3855 68.8657 27.5002 68.1235 27.5002ZM66.6514 16.8362V27.5002H65.2378V16.8362H66.6514ZM79.5493 26.1453V22.0657C79.5493 21.7532 79.4858 21.4822 79.3589 21.2527C79.2368 21.0183 79.0513 20.8376 78.8022 20.7107C78.5532 20.5837 78.2456 20.5203 77.8794 20.5203C77.5376 20.5203 77.2373 20.5789 76.9785 20.696C76.7246 20.8132 76.5244 20.967 76.3779 21.1575C76.2363 21.3479 76.1655 21.553 76.1655 21.7727H74.8105C74.8105 21.4895 74.8838 21.2087 75.0303 20.9304C75.1768 20.6521 75.3867 20.4006 75.6602 20.176C75.9385 19.9465 76.2705 19.7659 76.6562 19.634C77.0469 19.4973 77.4814 19.429 77.96 19.429C78.5361 19.429 79.0439 19.5266 79.4834 19.7219C79.9277 19.9172 80.2744 20.2126 80.5234 20.6082C80.7773 20.9988 80.9043 21.4895 80.9043 22.0803V25.7717C80.9043 26.0354 80.9263 26.3162 80.9702 26.614C81.019 26.9119 81.0898 27.1682 81.1826 27.3831V27.5002H79.769C79.7007 27.344 79.647 27.1365 79.6079 26.8777C79.5688 26.614 79.5493 26.3699 79.5493 26.1453ZM79.7837 22.6956L79.7983 23.6477H78.4287C78.043 23.6477 77.6987 23.6794 77.396 23.7429C77.0933 23.8015 76.8394 23.8918 76.6343 24.0139C76.4292 24.136 76.2729 24.2898 76.1655 24.4753C76.0581 24.656 76.0044 24.8684 76.0044 25.1125C76.0044 25.3616 76.0605 25.5886 76.1729 25.7937C76.2852 25.9988 76.4536 26.1624 76.6782 26.2844C76.9077 26.4016 77.1885 26.4602 77.5205 26.4602C77.9355 26.4602 78.3018 26.3723 78.6191 26.1965C78.9365 26.0208 79.188 25.8059 79.3735 25.552C79.564 25.2981 79.6665 25.0515 79.6812 24.8123L80.2598 25.4641C80.2256 25.6692 80.1328 25.8962 79.9814 26.1453C79.8301 26.3943 79.6274 26.6335 79.3735 26.863C79.1245 27.0876 78.8267 27.2756 78.48 27.427C78.1382 27.5735 77.7524 27.6467 77.3228 27.6467C76.7856 27.6467 76.3145 27.5417 75.9092 27.3318C75.5088 27.1218 75.1963 26.8411 74.9717 26.4895C74.752 26.1331 74.6421 25.7351 74.6421 25.2957C74.6421 24.8708 74.7251 24.4973 74.8911 24.175C75.0571 23.8479 75.2964 23.5769 75.6089 23.3621C75.9214 23.1423 76.2974 22.9763 76.7368 22.864C77.1763 22.7517 77.667 22.6956 78.209 22.6956H79.7837ZM86.3535 19.5754V20.6155H82.0688V19.5754H86.3535ZM83.519 17.6492H84.874V25.5374C84.874 25.8059 84.9155 26.0085 84.9985 26.1453C85.0815 26.282 85.189 26.3723 85.3208 26.4163C85.4526 26.4602 85.5942 26.4822 85.7456 26.4822C85.8579 26.4822 85.9751 26.4724 86.0972 26.4529C86.2241 26.4285 86.3193 26.4089 86.3828 26.3943L86.3901 27.5002C86.2827 27.5344 86.1411 27.5662 85.9653 27.5955C85.7944 27.6296 85.5869 27.6467 85.3428 27.6467C85.0107 27.6467 84.7056 27.5808 84.4272 27.449C84.1489 27.3171 83.9268 27.0974 83.7607 26.7898C83.5996 26.4773 83.519 26.0574 83.519 25.53V17.6492ZM92.6157 26.1453V22.0657C92.6157 21.7532 92.5522 21.4822 92.4253 21.2527C92.3032 21.0183 92.1177 20.8376 91.8687 20.7107C91.6196 20.5837 91.312 20.5203 90.9458 20.5203C90.604 20.5203 90.3037 20.5789 90.0449 20.696C89.791 20.8132 89.5908 20.967 89.4443 21.1575C89.3027 21.3479 89.2319 21.553 89.2319 21.7727H87.877C87.877 21.4895 87.9502 21.2087 88.0967 20.9304C88.2432 20.6521 88.4531 20.4006 88.7266 20.176C89.0049 19.9465 89.3369 19.7659 89.7227 19.634C90.1133 19.4973 90.5479 19.429 91.0264 19.429C91.6025 19.429 92.1104 19.5266 92.5498 19.7219C92.9941 19.9172 93.3408 20.2126 93.5898 20.6082C93.8438 20.9988 93.9707 21.4895 93.9707 22.0803V25.7717C93.9707 26.0354 93.9927 26.3162 94.0366 26.614C94.0854 26.9119 94.1562 27.1682 94.249 27.3831V27.5002H92.8354C92.7671 27.344 92.7134 27.1365 92.6743 26.8777C92.6353 26.614 92.6157 26.3699 92.6157 26.1453ZM92.8501 22.6956L92.8647 23.6477H91.4951C91.1094 23.6477 90.7651 23.6794 90.4624 23.7429C90.1597 23.8015 89.9058 23.8918 89.7007 24.0139C89.4956 24.136 89.3394 24.2898 89.2319 24.4753C89.1245 24.656 89.0708 24.8684 89.0708 25.1125C89.0708 25.3616 89.127 25.5886 89.2393 25.7937C89.3516 25.9988 89.52 26.1624 89.7446 26.2844C89.9741 26.4016 90.2549 26.4602 90.5869 26.4602C91.002 26.4602 91.3682 26.3723 91.6855 26.1965C92.0029 26.0208 92.2544 25.8059 92.4399 25.552C92.6304 25.2981 92.7329 25.0515 92.7476 24.8123L93.3262 25.4641C93.292 25.6692 93.1992 25.8962 93.0479 26.1453C92.8965 26.3943 92.6938 26.6335 92.4399 26.863C92.1909 27.0876 91.8931 27.2756 91.5464 27.427C91.2046 27.5735 90.8188 27.6467 90.3892 27.6467C89.8521 27.6467 89.3809 27.5417 88.9756 27.3318C88.5752 27.1218 88.2627 26.8411 88.0381 26.4895C87.8184 26.1331 87.7085 25.7351 87.7085 25.2957C87.7085 24.8708 87.7915 24.4973 87.9575 24.175C88.1235 23.8479 88.3628 23.5769 88.6753 23.3621C88.9878 23.1423 89.3638 22.9763 89.8032 22.864C90.2427 22.7517 90.7334 22.6956 91.2754 22.6956H92.8501ZM106.466 24.1091H107.872C107.799 24.783 107.606 25.386 107.293 25.9182C106.981 26.4504 106.539 26.8728 105.968 27.1853C105.396 27.4929 104.684 27.6467 103.829 27.6467C103.204 27.6467 102.635 27.5295 102.123 27.2952C101.615 27.0608 101.178 26.7288 100.812 26.2991C100.445 25.8645 100.162 25.3445 99.9619 24.739C99.7666 24.1287 99.6689 23.45 99.6689 22.7029V21.6409C99.6689 20.8938 99.7666 20.2175 99.9619 19.6121C100.162 19.0017 100.448 18.4792 100.819 18.0447C101.195 17.6101 101.646 17.2756 102.174 17.0413C102.701 16.8069 103.294 16.6897 103.954 16.6897C104.759 16.6897 105.44 16.8411 105.997 17.1438C106.554 17.4465 106.986 17.8665 107.293 18.4036C107.606 18.9358 107.799 19.5535 107.872 20.2566H106.466C106.397 19.7585 106.271 19.3313 106.085 18.9749C105.899 18.6135 105.636 18.3352 105.294 18.1399C104.952 17.9446 104.505 17.8469 103.954 17.8469C103.48 17.8469 103.062 17.9373 102.701 18.1179C102.345 18.2986 102.044 18.5549 101.8 18.887C101.561 19.219 101.38 19.6169 101.258 20.0808C101.136 20.5447 101.075 21.0598 101.075 21.6262V22.7029C101.075 23.2253 101.129 23.7161 101.236 24.175C101.349 24.634 101.517 25.0369 101.742 25.3835C101.966 25.7302 102.252 26.0037 102.599 26.2039C102.945 26.3992 103.355 26.4968 103.829 26.4968C104.43 26.4968 104.908 26.4016 105.265 26.2112C105.621 26.0208 105.89 25.7473 106.07 25.3909C106.256 25.0344 106.388 24.6072 106.466 24.1091ZM114.266 26.1453V22.0657C114.266 21.7532 114.203 21.4822 114.076 21.2527C113.954 21.0183 113.768 20.8376 113.519 20.7107C113.27 20.5837 112.962 20.5203 112.596 20.5203C112.254 20.5203 111.954 20.5789 111.695 20.696C111.441 20.8132 111.241 20.967 111.095 21.1575C110.953 21.3479 110.882 21.553 110.882 21.7727H109.527C109.527 21.4895 109.601 21.2087 109.747 20.9304C109.894 20.6521 110.104 20.4006 110.377 20.176C110.655 19.9465 110.987 19.7659 111.373 19.634C111.764 19.4973 112.198 19.429 112.677 19.429C113.253 19.429 113.761 19.5266 114.2 19.7219C114.645 19.9172 114.991 20.2126 115.24 20.6082C115.494 20.9988 115.621 21.4895 115.621 22.0803V25.7717C115.621 26.0354 115.643 26.3162 115.687 26.614C115.736 26.9119 115.807 27.1682 115.899 27.3831V27.5002H114.486C114.417 27.344 114.364 27.1365 114.325 26.8777C114.286 26.614 114.266 26.3699 114.266 26.1453ZM114.5 22.6956L114.515 23.6477H113.146C112.76 23.6477 112.416 23.6794 112.113 23.7429C111.81 23.8015 111.556 23.8918 111.351 24.0139C111.146 24.136 110.99 24.2898 110.882 24.4753C110.775 24.656 110.721 24.8684 110.721 25.1125C110.721 25.3616 110.777 25.5886 110.89 25.7937C111.002 25.9988 111.17 26.1624 111.395 26.2844C111.625 26.4016 111.905 26.4602 112.237 26.4602C112.652 26.4602 113.019 26.3723 113.336 26.1965C113.653 26.0208 113.905 25.8059 114.09 25.552C114.281 25.2981 114.383 25.0515 114.398 24.8123L114.977 25.4641C114.942 25.6692 114.85 25.8962 114.698 26.1453C114.547 26.3943 114.344 26.6335 114.09 26.863C113.841 27.0876 113.543 27.2756 113.197 27.427C112.855 27.5735 112.469 27.6467 112.04 27.6467C111.502 27.6467 111.031 27.5417 110.626 27.3318C110.226 27.1218 109.913 26.8411 109.688 26.4895C109.469 26.1331 109.359 25.7351 109.359 25.2957C109.359 24.8708 109.442 24.4973 109.608 24.175C109.774 23.8479 110.013 23.5769 110.326 23.3621C110.638 23.1423 111.014 22.9763 111.454 22.864C111.893 22.7517 112.384 22.6956 112.926 22.6956H114.5ZM121.07 19.5754V20.6155H116.786V19.5754H121.07ZM118.236 17.6492H119.591V25.5374C119.591 25.8059 119.632 26.0085 119.715 26.1453C119.798 26.282 119.906 26.3723 120.038 26.4163C120.169 26.4602 120.311 26.4822 120.462 26.4822C120.575 26.4822 120.692 26.4724 120.814 26.4529C120.941 26.4285 121.036 26.4089 121.1 26.3943L121.107 27.5002C121 27.5344 120.858 27.5662 120.682 27.5955C120.511 27.6296 120.304 27.6467 120.06 27.6467C119.728 27.6467 119.422 27.5808 119.144 27.449C118.866 27.3171 118.644 27.0974 118.478 26.7898C118.316 26.4773 118.236 26.0574 118.236 25.53V17.6492ZM125.831 26.5334C126.153 26.5334 126.451 26.4675 126.725 26.3357C126.998 26.2039 127.223 26.0232 127.398 25.7937C127.574 25.5593 127.674 25.2932 127.699 24.9954H128.988C128.963 25.4641 128.805 25.9011 128.512 26.3064C128.224 26.7068 127.845 27.0315 127.376 27.2805C126.908 27.5247 126.393 27.6467 125.831 27.6467C125.235 27.6467 124.715 27.5417 124.271 27.3318C123.832 27.1218 123.465 26.8337 123.172 26.4675C122.884 26.1013 122.667 25.6814 122.521 25.2078C122.379 24.7292 122.308 24.2239 122.308 23.6917V23.384C122.308 22.8518 122.379 22.3489 122.521 21.8752C122.667 21.3967 122.884 20.9744 123.172 20.6082C123.465 20.2419 123.832 19.9539 124.271 19.7439C124.715 19.5339 125.235 19.429 125.831 19.429C126.451 19.429 126.993 19.5559 127.457 19.8098C127.921 20.0588 128.285 20.4006 128.548 20.8352C128.817 21.2649 128.963 21.7532 128.988 22.3H127.699C127.674 21.9729 127.582 21.6775 127.42 21.4138C127.264 21.1501 127.049 20.9402 126.776 20.7839C126.507 20.6228 126.192 20.5422 125.831 20.5422C125.416 20.5422 125.067 20.6252 124.784 20.7913C124.505 20.9524 124.283 21.1721 124.117 21.4504C123.956 21.7239 123.839 22.0291 123.766 22.366C123.697 22.698 123.663 23.0374 123.663 23.384V23.6917C123.663 24.0383 123.697 24.3801 123.766 24.717C123.834 25.054 123.949 25.3591 124.11 25.6326C124.276 25.906 124.498 26.1257 124.776 26.2917C125.06 26.4529 125.411 26.5334 125.831 26.5334ZM131.866 16.2502V27.5002H130.511V16.2502H131.866ZM131.544 23.2375L130.98 23.2156C130.985 22.6736 131.065 22.1731 131.222 21.7141C131.378 21.2502 131.598 20.8474 131.881 20.5056C132.164 20.1638 132.501 19.9001 132.892 19.7146C133.287 19.5242 133.724 19.429 134.203 19.429C134.593 19.429 134.945 19.4827 135.257 19.5901C135.57 19.6926 135.836 19.8586 136.056 20.0881C136.28 20.3176 136.451 20.6155 136.568 20.9817C136.686 21.343 136.744 21.7849 136.744 22.3074V27.5002H135.382V22.2927C135.382 21.8777 135.321 21.5457 135.199 21.2966C135.077 21.0427 134.898 20.8596 134.664 20.7473C134.43 20.6301 134.142 20.5715 133.8 20.5715C133.463 20.5715 133.155 20.6423 132.877 20.7839C132.604 20.9255 132.367 21.1208 132.167 21.3699C131.971 21.6189 131.817 21.9045 131.705 22.2268C131.598 22.5442 131.544 22.8811 131.544 23.2375ZM141.593 22.4099V23.5232H138.019V22.4099H141.593ZM147.591 26.1453V22.0657C147.591 21.7532 147.528 21.4822 147.401 21.2527C147.279 21.0183 147.093 20.8376 146.844 20.7107C146.595 20.5837 146.288 20.5203 145.921 20.5203C145.58 20.5203 145.279 20.5789 145.021 20.696C144.767 20.8132 144.566 20.967 144.42 21.1575C144.278 21.3479 144.208 21.553 144.208 21.7727H142.853C142.853 21.4895 142.926 21.2087 143.072 20.9304C143.219 20.6521 143.429 20.4006 143.702 20.176C143.98 19.9465 144.312 19.7659 144.698 19.634C145.089 19.4973 145.523 19.429 146.002 19.429C146.578 19.429 147.086 19.5266 147.525 19.7219C147.97 19.9172 148.316 20.2126 148.565 20.6082C148.819 20.9988 148.946 21.4895 148.946 22.0803V25.7717C148.946 26.0354 148.968 26.3162 149.012 26.614C149.061 26.9119 149.132 27.1682 149.225 27.3831V27.5002H147.811C147.743 27.344 147.689 27.1365 147.65 26.8777C147.611 26.614 147.591 26.3699 147.591 26.1453ZM147.826 22.6956L147.84 23.6477H146.471C146.085 23.6477 145.741 23.6794 145.438 23.7429C145.135 23.8015 144.881 23.8918 144.676 24.0139C144.471 24.136 144.315 24.2898 144.208 24.4753C144.1 24.656 144.046 24.8684 144.046 25.1125C144.046 25.3616 144.103 25.5886 144.215 25.7937C144.327 25.9988 144.496 26.1624 144.72 26.2844C144.95 26.4016 145.23 26.4602 145.562 26.4602C145.978 26.4602 146.344 26.3723 146.661 26.1965C146.979 26.0208 147.23 25.8059 147.416 25.552C147.606 25.2981 147.708 25.0515 147.723 24.8123L148.302 25.4641C148.268 25.6692 148.175 25.8962 148.023 26.1453C147.872 26.3943 147.669 26.6335 147.416 26.863C147.167 27.0876 146.869 27.2756 146.522 27.427C146.18 27.5735 145.794 27.6467 145.365 27.6467C144.828 27.6467 144.356 27.5417 143.951 27.3318C143.551 27.1218 143.238 26.8411 143.014 26.4895C142.794 26.1331 142.684 25.7351 142.684 25.2957C142.684 24.8708 142.767 24.4973 142.933 24.175C143.099 23.8479 143.338 23.5769 143.651 23.3621C143.963 23.1423 144.339 22.9763 144.779 22.864C145.218 22.7517 145.709 22.6956 146.251 22.6956H147.826ZM152.55 16.2502V27.5002H151.188V16.2502H152.55ZM156.197 16.2502V27.5002H154.835V16.2502H156.197ZM72.6792 34.8362H76.2095C77.0103 34.8362 77.6865 34.9583 78.2383 35.2024C78.7949 35.4465 79.2173 35.8079 79.5054 36.2864C79.7983 36.76 79.9448 37.3435 79.9448 38.0369C79.9448 38.5251 79.8447 38.9719 79.6445 39.3772C79.4492 39.7776 79.166 40.1194 78.7949 40.4026C78.4287 40.6809 77.9893 40.8884 77.4766 41.0251L77.0811 41.179H73.7632L73.7485 40.0291H76.2534C76.7612 40.0291 77.1836 39.9412 77.5205 39.7654C77.8574 39.5847 78.1113 39.343 78.2822 39.0403C78.4531 38.7375 78.5386 38.4031 78.5386 38.0369C78.5386 37.6267 78.458 37.2678 78.2969 36.9602C78.1357 36.6526 77.8818 36.4158 77.5352 36.2498C77.1934 36.0789 76.7515 35.9934 76.2095 35.9934H74.0928V45.5002H72.6792V34.8362ZM78.9121 45.5002L76.3193 40.6663L77.7915 40.6589L80.4209 45.4124V45.5002H78.9121ZM85.0059 45.6467C84.4541 45.6467 83.9536 45.554 83.5044 45.3684C83.0601 45.178 82.6768 44.9119 82.3545 44.5701C82.0371 44.2283 81.793 43.823 81.6221 43.3542C81.4512 42.8855 81.3657 42.3728 81.3657 41.8162V41.5085C81.3657 40.864 81.4609 40.2903 81.6514 39.7874C81.8418 39.2795 82.1006 38.8499 82.4277 38.4983C82.7549 38.1467 83.126 37.8806 83.541 37.7C83.9561 37.5193 84.3857 37.429 84.8301 37.429C85.3965 37.429 85.8848 37.5266 86.2949 37.7219C86.71 37.9172 87.0493 38.1907 87.313 38.5422C87.5767 38.8889 87.772 39.2991 87.8989 39.7727C88.0259 40.2415 88.0894 40.7542 88.0894 41.3108V41.9187H82.1714V40.8127H86.7344V40.7102C86.7148 40.3586 86.6416 40.0168 86.5146 39.6848C86.3926 39.3528 86.1973 39.0793 85.9287 38.8645C85.6602 38.6497 85.2939 38.5422 84.8301 38.5422C84.5225 38.5422 84.2393 38.6082 83.9805 38.74C83.7217 38.8669 83.4995 39.0574 83.314 39.3113C83.1284 39.5652 82.9844 39.8752 82.8818 40.2415C82.7793 40.6077 82.728 41.03 82.728 41.5085V41.8162C82.728 42.1921 82.7793 42.5461 82.8818 42.8782C82.9893 43.2053 83.1431 43.4934 83.3433 43.7424C83.5483 43.9915 83.7949 44.1868 84.083 44.3284C84.376 44.47 84.708 44.5408 85.0791 44.5408C85.5576 44.5408 85.9629 44.4431 86.2949 44.2478C86.627 44.0525 86.9175 43.7913 87.1665 43.4641L87.9868 44.116C87.8159 44.3748 87.5986 44.6213 87.335 44.8557C87.0713 45.0901 86.7466 45.2805 86.3608 45.427C85.98 45.5735 85.5283 45.6467 85.0059 45.6467ZM91.0264 39.0989V48.5471H89.6641V37.5754H90.9092L91.0264 39.0989ZM96.3657 41.4719V41.6257C96.3657 42.2019 96.2974 42.7366 96.1606 43.2297C96.0239 43.718 95.8237 44.1428 95.5601 44.5042C95.3013 44.8655 94.9814 45.1462 94.6006 45.3464C94.2197 45.5466 93.7827 45.6467 93.2896 45.6467C92.7866 45.6467 92.3423 45.5637 91.9565 45.3977C91.5708 45.2317 91.2437 44.99 90.9751 44.6726C90.7065 44.3552 90.4917 43.9744 90.3306 43.53C90.1743 43.0857 90.0669 42.5852 90.0083 42.0286V41.2083C90.0669 40.6223 90.1768 40.0974 90.3379 39.6335C90.499 39.1697 90.7114 38.7742 90.9751 38.447C91.2437 38.115 91.5684 37.8635 91.9492 37.6926C92.3301 37.5168 92.7695 37.429 93.2676 37.429C93.7656 37.429 94.2075 37.5266 94.5933 37.7219C94.979 37.9124 95.3037 38.1858 95.5674 38.5422C95.8311 38.8987 96.0288 39.3259 96.1606 39.824C96.2974 40.3171 96.3657 40.8665 96.3657 41.4719ZM95.0034 41.6257V41.4719C95.0034 41.0764 94.9619 40.7053 94.8789 40.3586C94.7959 40.0071 94.6665 39.6995 94.4907 39.4358C94.3198 39.1672 94.1001 38.9573 93.8315 38.8059C93.563 38.6497 93.2432 38.5715 92.8721 38.5715C92.5303 38.5715 92.2324 38.6301 91.9785 38.7473C91.7295 38.8645 91.5171 39.0232 91.3413 39.2234C91.1655 39.4187 91.0215 39.6433 90.9092 39.8972C90.8018 40.1462 90.7212 40.405 90.6675 40.6736V42.5706C90.7651 42.9124 90.9019 43.2346 91.0776 43.5374C91.2534 43.8352 91.4878 44.0769 91.7808 44.2625C92.0737 44.4431 92.4424 44.5334 92.8867 44.5334C93.2529 44.5334 93.5679 44.4578 93.8315 44.3064C94.1001 44.1501 94.3198 43.9377 94.4907 43.6692C94.6665 43.4006 94.7959 43.093 94.8789 42.7463C94.9619 42.3948 95.0034 42.0212 95.0034 41.6257ZM97.7354 41.6257V41.4573C97.7354 40.886 97.8184 40.3562 97.9844 39.8679C98.1504 39.3748 98.3896 38.9475 98.7021 38.5862C99.0146 38.22 99.3931 37.9368 99.8374 37.7366C100.282 37.5315 100.78 37.429 101.332 37.429C101.888 37.429 102.389 37.5315 102.833 37.7366C103.282 37.9368 103.663 38.22 103.976 38.5862C104.293 38.9475 104.535 39.3748 104.701 39.8679C104.867 40.3562 104.95 40.886 104.95 41.4573V41.6257C104.95 42.197 104.867 42.7268 104.701 43.2151C104.535 43.7034 104.293 44.1306 103.976 44.4968C103.663 44.8582 103.285 45.1414 102.84 45.3464C102.401 45.5466 101.903 45.6467 101.346 45.6467C100.79 45.6467 100.289 45.5466 99.8447 45.3464C99.4004 45.1414 99.0195 44.8582 98.7021 44.4968C98.3896 44.1306 98.1504 43.7034 97.9844 43.2151C97.8184 42.7268 97.7354 42.197 97.7354 41.6257ZM99.0903 41.4573V41.6257C99.0903 42.0212 99.1367 42.3948 99.2295 42.7463C99.3223 43.093 99.4614 43.4006 99.647 43.6692C99.8374 43.9377 100.074 44.1501 100.357 44.3064C100.641 44.4578 100.97 44.5334 101.346 44.5334C101.717 44.5334 102.042 44.4578 102.32 44.3064C102.604 44.1501 102.838 43.9377 103.023 43.6692C103.209 43.4006 103.348 43.093 103.441 42.7463C103.539 42.3948 103.587 42.0212 103.587 41.6257V41.4573C103.587 41.0667 103.539 40.698 103.441 40.3513C103.348 39.9998 103.207 39.6897 103.016 39.4211C102.831 39.1477 102.596 38.9329 102.313 38.7766C102.035 38.6204 101.708 38.5422 101.332 38.5422C100.96 38.5422 100.633 38.6204 100.35 38.7766C100.072 38.9329 99.8374 39.1477 99.647 39.4211C99.4614 39.6897 99.3223 39.9998 99.2295 40.3513C99.1367 40.698 99.0903 41.0667 99.0903 41.4573ZM111.263 43.3982C111.263 43.2029 111.219 43.0222 111.131 42.8562C111.048 42.6853 110.875 42.5315 110.611 42.3948C110.353 42.2532 109.962 42.1311 109.439 42.0286C109 41.9358 108.602 41.8259 108.246 41.699C107.894 41.572 107.594 41.4182 107.345 41.2375C107.101 41.0569 106.913 40.8445 106.781 40.6003C106.649 40.3562 106.583 40.0706 106.583 39.7434C106.583 39.4309 106.651 39.1355 106.788 38.8572C106.93 38.5789 107.127 38.3323 107.381 38.1174C107.64 37.9026 107.95 37.7341 108.312 37.6121C108.673 37.49 109.076 37.429 109.52 37.429C110.155 37.429 110.697 37.5413 111.146 37.7659C111.595 37.9905 111.939 38.2908 112.179 38.6667C112.418 39.0378 112.538 39.4504 112.538 39.9045H111.183C111.183 39.6848 111.117 39.4724 110.985 39.2673C110.858 39.0574 110.67 38.884 110.421 38.7473C110.177 38.6106 109.876 38.5422 109.52 38.5422C109.144 38.5422 108.839 38.6008 108.604 38.718C108.375 38.8303 108.207 38.9744 108.099 39.1501C107.997 39.3259 107.945 39.5115 107.945 39.7068C107.945 39.8533 107.97 39.9851 108.019 40.1023C108.072 40.2146 108.165 40.3196 108.297 40.4172C108.429 40.51 108.614 40.5979 108.854 40.6809C109.093 40.7639 109.398 40.8469 109.769 40.9299C110.418 41.0764 110.953 41.2522 111.373 41.4573C111.793 41.6624 112.105 41.9138 112.311 42.2117C112.516 42.5095 112.618 42.8708 112.618 43.2957C112.618 43.6423 112.545 43.9597 112.398 44.2478C112.257 44.5359 112.049 44.7849 111.776 44.9949C111.507 45.2 111.185 45.3611 110.809 45.4783C110.438 45.5906 110.021 45.6467 109.557 45.6467C108.858 45.6467 108.268 45.5222 107.784 45.2732C107.301 45.0242 106.935 44.7019 106.686 44.3064C106.437 43.9109 106.312 43.4934 106.312 43.054H107.674C107.694 43.425 107.801 43.7205 107.997 43.9402C108.192 44.155 108.431 44.3088 108.714 44.4016C108.998 44.4895 109.278 44.5334 109.557 44.5334C109.928 44.5334 110.238 44.4846 110.487 44.387C110.741 44.2893 110.934 44.155 111.065 43.9841C111.197 43.8132 111.263 43.6179 111.263 43.3982ZM115.87 37.5754V45.5002H114.508V37.5754H115.87ZM114.405 35.4734C114.405 35.2537 114.471 35.0681 114.603 34.9167C114.74 34.7654 114.94 34.6897 115.204 34.6897C115.462 34.6897 115.66 34.7654 115.797 34.9167C115.938 35.0681 116.009 35.2537 116.009 35.4734C116.009 35.6833 115.938 35.864 115.797 36.0154C115.66 36.1619 115.462 36.2351 115.204 36.2351C114.94 36.2351 114.74 36.1619 114.603 36.0154C114.471 35.864 114.405 35.6833 114.405 35.4734ZM121.363 37.5754V38.6155H117.079V37.5754H121.363ZM118.529 35.6492H119.884V43.5374C119.884 43.8059 119.925 44.0085 120.008 44.1453C120.091 44.282 120.199 44.3723 120.331 44.4163C120.462 44.4602 120.604 44.4822 120.755 44.4822C120.868 44.4822 120.985 44.4724 121.107 44.4529C121.234 44.4285 121.329 44.4089 121.393 44.3943L121.4 45.5002C121.292 45.5344 121.151 45.5662 120.975 45.5955C120.804 45.6296 120.597 45.6467 120.353 45.6467C120.021 45.6467 119.715 45.5808 119.437 45.449C119.159 45.3171 118.937 45.0974 118.771 44.7898C118.609 44.4773 118.529 44.0574 118.529 43.53V35.6492ZM122.447 41.6257V41.4573C122.447 40.886 122.53 40.3562 122.696 39.8679C122.862 39.3748 123.102 38.9475 123.414 38.5862C123.727 38.22 124.105 37.9368 124.549 37.7366C124.994 37.5315 125.492 37.429 126.043 37.429C126.6 37.429 127.101 37.5315 127.545 37.7366C127.994 37.9368 128.375 38.22 128.688 38.5862C129.005 38.9475 129.247 39.3748 129.413 39.8679C129.579 40.3562 129.662 40.886 129.662 41.4573V41.6257C129.662 42.197 129.579 42.7268 129.413 43.2151C129.247 43.7034 129.005 44.1306 128.688 44.4968C128.375 44.8582 127.997 45.1414 127.552 45.3464C127.113 45.5466 126.615 45.6467 126.058 45.6467C125.501 45.6467 125.001 45.5466 124.557 45.3464C124.112 45.1414 123.731 44.8582 123.414 44.4968C123.102 44.1306 122.862 43.7034 122.696 43.2151C122.53 42.7268 122.447 42.197 122.447 41.6257ZM123.802 41.4573V41.6257C123.802 42.0212 123.849 42.3948 123.941 42.7463C124.034 43.093 124.173 43.4006 124.359 43.6692C124.549 43.9377 124.786 44.1501 125.069 44.3064C125.353 44.4578 125.682 44.5334 126.058 44.5334C126.429 44.5334 126.754 44.4578 127.032 44.3064C127.315 44.1501 127.55 43.9377 127.735 43.6692C127.921 43.4006 128.06 43.093 128.153 42.7463C128.25 42.3948 128.299 42.0212 128.299 41.6257V41.4573C128.299 41.0667 128.25 40.698 128.153 40.3513C128.06 39.9998 127.918 39.6897 127.728 39.4211C127.542 39.1477 127.308 38.9329 127.025 38.7766C126.747 38.6204 126.419 38.5422 126.043 38.5422C125.672 38.5422 125.345 38.6204 125.062 38.7766C124.784 38.9329 124.549 39.1477 124.359 39.4211C124.173 39.6897 124.034 39.9998 123.941 40.3513C123.849 40.698 123.802 41.0667 123.802 41.4573ZM132.716 38.8206V45.5002H131.361V37.5754H132.679L132.716 38.8206ZM135.191 37.5315L135.184 38.7913C135.072 38.7668 134.964 38.7522 134.862 38.7473C134.764 38.7375 134.652 38.7327 134.525 38.7327C134.212 38.7327 133.937 38.7815 133.697 38.8792C133.458 38.9768 133.255 39.1135 133.089 39.2893C132.923 39.4651 132.792 39.675 132.694 39.9192C132.601 40.1584 132.54 40.4221 132.511 40.7102L132.13 40.9299C132.13 40.4514 132.176 40.0022 132.269 39.5823C132.367 39.1624 132.516 38.7913 132.716 38.469C132.916 38.1418 133.17 37.8879 133.478 37.7073C133.79 37.5217 134.161 37.429 134.591 37.429C134.688 37.429 134.801 37.4412 134.928 37.4656C135.055 37.4851 135.143 37.5071 135.191 37.5315ZM138.802 44.6799L141.007 37.5754H142.457L139.278 46.7234C139.205 46.9187 139.107 47.1287 138.985 47.3533C138.868 47.5828 138.717 47.8 138.531 48.0051C138.346 48.2102 138.121 48.3762 137.857 48.5032C137.599 48.635 137.289 48.7009 136.927 48.7009C136.82 48.7009 136.683 48.6863 136.517 48.657C136.351 48.6277 136.234 48.6033 136.166 48.5837L136.158 47.4851C136.197 47.49 136.258 47.4949 136.341 47.4998C136.429 47.5095 136.49 47.5144 136.524 47.5144C136.832 47.5144 137.093 47.4729 137.308 47.3899C137.523 47.3118 137.704 47.1775 137.85 46.9871C138.001 46.8015 138.131 46.5452 138.238 46.218L138.802 44.6799ZM137.184 37.5754L139.242 43.7278L139.593 45.156L138.619 45.6541L135.704 37.5754H137.184Z" fill="#001F24"/>
</svg>
